Dinish-SemiBold.ufo
<glyph name="exclam" format="2">
  <advance width="251"/>
  <unicode hex="0021"/>
  <outline>
    <contour>
      <point x="84.667" y="224.333" type="line"/>
      <point x="167.333" y="224.333" type="line"/>
      <point x="188.667" y="707" type="line"/>
      <point x="63.333" y="707" type="line"/>
    </contour>
    <contour>
      <point x="65.667" y="0" type="line"/>
      <point x="186" y="0" type="line"/>
      <point x="186" y="120.333" type="line"/>
      <point x="65.667" y="120.333" type="line"/>
    </contour>
  </outline>
</glyph>
<glyph name="quotedbl" format="2">
  <advance width="365"/>
  <unicode hex="0022"/>
  <outline>
    <contour>
      <point x="44" y="424.333" type="line"/>
      <point x="146.667" y="424.333" type="line"/>
      <point x="146.667" y="707" type="line"/>
      <point x="44" y="707" type="line"/>
    </contour>
    <contour>
      <point x="219.333" y="424.333" type="line"/>
      <point x="321" y="424.333" type="line"/>
      <point x="321" y="707" type="line"/>
      <point x="219.333" y="707" type="line"/>
    </contour>
  </outline>
</glyph>
<glyph name="dollar" format="2">
  <advance width="498"/>
  <unicode hex="0024"/>
  <outline>
    <contour>
      <point x="198.667" y="-60.667" type="line"/>
      <point x="288.333" y="-60.667" type="line"/>
      <point x="288.333" y="33.333" type="line"/>
      <point x="392.158" y="50.572"/>
      <point x="449" y="115.27"/>
      <point x="449" y="220.72" type="curve" smooth="yes"/>
      <point x="449" y="347.342"/>
      <point x="368.011" y="377.24"/>
      <point x="271.75" y="402.701" type="curve" smooth="yes"/>
      <point x="247.462" y="409.297" type="line" smooth="yes"/>
      <point x="178.893" y="426.692"/>
      <point x="151" y="452.496"/>
      <point x="151" y="502.313" type="curve" smooth="yes"/>
      <point x="151" y="558.03"/>
      <point x="181.464" y="586.833"/>
      <point x="240.5" y="586.833" type="curve" smooth="yes"/>
      <point x="299.956" y="586.833"/>
      <point x="329.748" y="557.448"/>
      <point x="335.667" y="493" type="curve"/>
      <point x="440" y="493" type="line"/>
      <point x="432.951" y="594.298"/>
      <point x="379.541" y="658.74"/>
      <point x="288.333" y="676" type="curve"/>
      <point x="288.333" y="758.333" type="line"/>
      <point x="198.667" y="758.333" type="line"/>
      <point x="198.667" y="676.333" type="line"/>
      <point x="101.387" y="659.286"/>
      <point x="45" y="592.701"/>
      <point x="45" y="495.155" type="curve" smooth="yes"/>
      <point x="45" y="402.124"/>
      <point x="91.627" y="348.203"/>
      <point x="200.518" y="321.494" type="curve" smooth="yes"/>
      <point x="227.828" y="314.524" type="line" smooth="yes"/>
      <point x="314.509" y="292.504"/>
      <point x="341.667" y="268.874"/>
      <point x="341.667" y="214.667" type="curve" smooth="yes"/>
      <point x="341.667" y="153.848"/>
      <point x="308.464" y="123.164"/>
      <point x="242.661" y="123.164" type="curve" smooth="yes"/>
      <point x="174.817" y="123.164"/>
      <point x="139.961" y="155.862"/>
      <point x="132.667" y="226" type="curve"/>
      <point x="31.333" y="226" type="line"/>
      <point x="37.933" y="114.128"/>
      <point x="96.74" y="45.833"/>
      <point x="198.667" y="31.667" type="curve"/>
    </contour>
  </outline>
</glyph>
<glyph name="percent" format="2">
  <advance width="897"/>
  <unicode hex="0025"/>
  <outline>
    <contour>
      <point x="209.666" y="0" type="line"/>
      <point x="297.666" y="0" type="line"/>
      <point x="689" y="710.333" type="line"/>
      <point x="599.666" y="710.333" type="line"/>
    </contour>
    <contour>
      <point x="174" y="271" type="curve" smooth="yes"/>
      <point x="273.142" y="271"/>
      <point x="307" y="332.404"/>
      <point x="307" y="423.667" type="curve" smooth="yes"/>
      <point x="307" y="567.667" type="line" smooth="yes"/>
      <point x="307" y="659.176"/>
      <point x="270.348" y="713.333"/>
      <point x="174" y="713.333" type="curve" smooth="yes"/>
      <point x="80.322" y="713.333"/>
      <point x="40.667" y="656.398"/>
      <point x="40.667" y="567.667" type="curve" smooth="yes"/>
      <point x="40.667" y="423.667" type="line" smooth="yes"/>
      <point x="40.667" y="332.041"/>
      <point x="74.657" y="271"/>
    </contour>
    <contour>
      <point x="174" y="351.667" type="curve" smooth="yes"/>
      <point x="135.627" y="351.667"/>
      <point x="134" y="387.298"/>
      <point x="134" y="417.553" type="curve" smooth="yes"/>
      <point x="134" y="566.738" type="line" smooth="yes"/>
      <point x="134" y="598.713"/>
      <point x="135.724" y="633"/>
      <point x="174" y="633" type="curve" smooth="yes"/>
      <point x="211.692" y="633"/>
      <point x="213.333" y="598.367"/>
      <point x="213.333" y="566.738" type="curve" smooth="yes"/>
      <point x="213.333" y="417.554" type="line" smooth="yes"/>
      <point x="213.333" y="386.716"/>
      <point x="212.394" y="351.667"/>
    </contour>
    <contour>
      <point x="723.667" y="-7" type="curve" smooth="yes"/>
      <point x="822.809" y="-7"/>
      <point x="856.667" y="54.404"/>
      <point x="856.667" y="145.667" type="curve" smooth="yes"/>
      <point x="856.667" y="289.667" type="line" smooth="yes"/>
      <point x="856.667" y="381.176"/>
      <point x="820.015" y="435.333"/>
      <point x="723.667" y="435.333" type="curve" smooth="yes"/>
      <point x="629.989" y="435.333"/>
      <point x="590.334" y="378.398"/>
      <point x="590.334" y="289.667" type="curve" smooth="yes"/>
      <point x="590.334" y="145.667" type="line" smooth="yes"/>
      <point x="590.334" y="54.041"/>
      <point x="624.324" y="-7"/>
    </contour>
    <contour>
      <point x="723.667" y="73.667" type="curve" smooth="yes"/>
      <point x="685.294" y="73.667"/>
      <point x="683.667" y="109.298"/>
      <point x="683.667" y="139.553" type="curve" smooth="yes"/>
      <point x="683.667" y="288.738" type="line" smooth="yes"/>
      <point x="683.667" y="320.713"/>
      <point x="685.391" y="355"/>
      <point x="723.667" y="355" type="curve" smooth="yes"/>
      <point x="761.359" y="355"/>
      <point x="763" y="320.367"/>
      <point x="763" y="288.738" type="curve" smooth="yes"/>
      <point x="763" y="139.554" type="line" smooth="yes"/>
      <point x="763" y="108.716"/>
      <point x="762.061" y="73.667"/>
    </contour>
  </outline>
</glyph>
<glyph name="ampersand" format="2">
  <advance width="612"/>
  <unicode hex="0026"/>
  <outline>
    <contour>
      <point x="414.667" y="235" type="line"/>
      <point x="313" y="375.333" type="line"/>
      <point x="370.459" y="424.411"/>
      <point x="429.333" y="478.997"/>
      <point x="429.333" y="560.333" type="curve" smooth="yes"/>
      <point x="429.333" y="654.528"/>
      <point x="358.191" y="717.667"/>
      <point x="266" y="717.667" type="curve" smooth="yes"/>
      <point x="174.213" y="717.667"/>
      <point x="101.333" y="652.739"/>
      <point x="101.333" y="559" type="curve" smooth="yes"/>
      <point x="101.333" y="498.115"/>
      <point x="143.491" y="438.24"/>
      <point x="180" y="390.333" type="curve"/>
      <point x="112.33" y="332.569"/>
      <point x="50.667" y="266.968"/>
      <point x="50.667" y="172.333" type="curve" smooth="yes"/>
      <point x="50.667" y="59.358"/>
      <point x="118.959" y="-10.667"/>
      <point x="232.333" y="-10.667" type="curve" smooth="yes"/>
      <point x="307.561" y="-10.667"/>
      <point x="359.034" y="18.507"/>
      <point x="406.667" y="75.333" type="curve"/>
      <point x="416.157" y="61.005" type="line" smooth="yes"/>
      <point x="440.333" y="24.244"/>
      <point x="472.379" y="0"/>
      <point x="521.166" y="0" type="curve" smooth="yes"/>
      <point x="560.333" y="0" type="line"/>
      <point x="560.333" y="95.706" type="line"/>
      <point x="554.78" y="95.706" type="line" smooth="yes"/>
      <point x="524.862" y="95.706"/>
      <point x="505.306" y="108.185"/>
      <point x="482.874" y="139.813" type="curve" smooth="yes"/>
      <point x="471" y="157" type="line"/>
      <point x="555.333" y="265" type="line"/>
      <point x="485.667" y="326.333" type="line"/>
    </contour>
    <contour>
      <point x="257" y="452.667" type="curve"/>
      <point x="228.973" y="485.627"/>
      <point x="203.667" y="526.993"/>
      <point x="203.667" y="563" type="curve" smooth="yes"/>
      <point x="203.667" y="601.175"/>
      <point x="226.408" y="631.667"/>
      <point x="266.667" y="631.667" type="curve" smooth="yes"/>
      <point x="305.397" y="631.667"/>
      <point x="329.333" y="600.235"/>
      <point x="329.333" y="563.333" type="curve" smooth="yes"/>
      <point x="329.333" y="518.16"/>
      <point x="292.099" y="481.12"/>
    </contour>
    <contour>
      <point x="350.333" y="153" type="line"/>
      <point x="322.329" y="117.892"/>
      <point x="289.5" y="83.333"/>
      <point x="241.333" y="83.333" type="curve" smooth="yes"/>
      <point x="182.797" y="83.333"/>
      <point x="154.667" y="124.363"/>
      <point x="154.667" y="179.333" type="curve" smooth="yes"/>
      <point x="154.667" y="234.746"/>
      <point x="197.673" y="277.742"/>
      <point x="236.333" y="312" type="curve"/>
    </contour>
  </outline>
</glyph>
<glyph name="parenright" format="2">
  <advance width="309"/>
  <unicode hex="0029"/>
  <outline>
    <contour>
      <point x="130.667" y="-86" type="line"/>
      <point x="213.826" y="41.424"/>
      <point x="258.667" y="183.483"/>
      <point x="258.667" y="336" type="curve" smooth="yes"/>
      <point x="258.667" y="489.227"/>
      <point x="214.828" y="630.799"/>
      <point x="129.667" y="758" type="curve"/>
      <point x="50.667" y="758" type="line"/>
      <point x="116.176" y="628.925"/>
      <point x="151.667" y="480.712"/>
      <point x="151.667" y="336" type="curve" smooth="yes"/>
      <point x="151.667" y="189.859"/>
      <point x="115.951" y="44.594"/>
      <point x="50.667" y="-86" type="curve"/>
    </contour>
  </outline>
</glyph>
<glyph name="asterisk" format="2">
  <advance width="386"/>
  <unicode hex="002A"/>
  <outline>
    <contour>
      <point x="79.333" y="461.333" type="line"/>
      <point x="162" y="509" type="line"/>
      <point x="162" y="407" type="line"/>
      <point x="224" y="407" type="line"/>
      <point x="224" y="508.333" type="line"/>
      <point x="306.333" y="461.333" type="line"/>
      <point x="335.333" y="510.333" type="line"/>
      <point x="250" y="559" type="line"/>
      <point x="334.667" y="607.667" type="line"/>
      <point x="307" y="656.333" type="line"/>
      <point x="224" y="608.667" type="line"/>
      <point x="224" y="707" type="line"/>
      <point x="162" y="707" type="line"/>
      <point x="162" y="609.333" type="line"/>
      <point x="79.333" y="656.333" type="line"/>
      <point x="50.667" y="607.667" type="line"/>
      <point x="135.667" y="559" type="line"/>
      <point x="50.667" y="510.333" type="line"/>
    </contour>
  </outline>
</glyph>
<glyph name="zero" format="2">
  <advance width="517"/>
  <unicode hex="0030"/>
  <outline>
    <contour>
      <point x="258.667" y="-10.667" type="curve" smooth="yes"/>
      <point x="410.493" y="-10.667"/>
      <point x="461" y="88.736"/>
      <point x="461" y="226.667" type="curve" smooth="yes"/>
      <point x="461" y="486.333" type="line" smooth="yes"/>
      <point x="461" y="623.364"/>
      <point x="407.238" y="717.667"/>
      <point x="258.667" y="717.667" type="curve" smooth="yes"/>
      <point x="112.179" y="717.667"/>
      <point x="56.667" y="621.362"/>
      <point x="56.667" y="486.333" type="curve" smooth="yes"/>
      <point x="56.667" y="226.667" type="line" smooth="yes"/>
      <point x="56.667" y="89.008"/>
      <point x="107.006" y="-10.667"/>
    </contour>
    <contour>
      <point x="258.667" y="89" type="curve" smooth="yes"/>
      <point x="179.303" y="89"/>
      <point x="171.333" y="175.459"/>
      <point x="171.333" y="239.333" type="curve" smooth="yes"/>
      <point x="171.333" y="467.333" type="line" smooth="yes"/>
      <point x="171.333" y="531.339"/>
      <point x="179.37" y="616.333"/>
      <point x="258.667" y="616.333" type="curve" smooth="yes"/>
      <point x="337.964" y="616.333"/>
      <point x="346.667" y="532.115"/>
      <point x="346.667" y="467.333" type="curve" smooth="yes"/>
      <point x="346.667" y="239.333" type="line" smooth="yes"/>
      <point x="346.667" y="174.779"/>
      <point x="338.028" y="89"/>
    </contour>
  </outline>
</glyph>
<glyph name="two" format="2">
  <advance width="496"/>
  <unicode hex="0032"/>
  <outline>
    <contour>
      <point x="52.667" y="0" type="line"/>
      <point x="445.667" y="0" type="line"/>
      <point x="445.667" y="101" type="line"/>
      <point x="196.939" y="101" type="line"/>
      <point x="381.667" y="351" type="line" smooth="yes"/>
      <point x="426.23" y="411.074"/>
      <point x="445.667" y="463.345"/>
      <point x="445.667" y="523.245" type="curve"/>
      <point x="445.529" y="531.951" type="line" smooth="yes"/>
      <point x="441.906" y="645.646"/>
      <point x="367.011" y="717.667"/>
      <point x="249.942" y="717.667" type="curve" smooth="yes"/>
      <point x="130.885" y="717.667"/>
      <point x="50.667" y="643.169"/>
      <point x="50.667" y="531.333" type="curve" smooth="yes"/>
      <point x="50.667" y="507.667" type="line"/>
      <point x="162.728" y="507.667" type="line"/>
      <point x="162.728" y="517.439" type="line" smooth="yes"/>
      <point x="162.728" y="586.28"/>
      <point x="191.122" y="619.333"/>
      <point x="243.698" y="619.333" type="curve" smooth="yes"/>
      <point x="296.499" y="619.333"/>
      <point x="329.599" y="586.508"/>
      <point x="329.599" y="528.096" type="curve" smooth="yes"/>
      <point x="329.599" y="521.04" type="line" smooth="yes"/>
      <point x="329.599" y="480.74"/>
      <point x="316.828" y="444.994"/>
      <point x="288.81" y="407.333" type="curve" smooth="yes"/>
      <point x="52.667" y="90.667" type="line"/>
    </contour>
  </outline>
</glyph>
<glyph name="three" format="2">
  <advance width="513"/>
  <unicode hex="0033"/>
  <outline>
    <contour>
      <point x="51.337" y="187" type="line"/>
      <point x="51.337" y="170.991" type="line" smooth="yes"/>
      <point x="51.337" y="54.844"/>
      <point x="124.11" y="-10.667"/>
      <point x="252.667" y="-10.667" type="curve" smooth="yes"/>
      <point x="376.28" y="-10.667"/>
      <point x="456.308" y="69.619"/>
      <point x="456.308" y="190.333" type="curve" smooth="yes"/>
      <point x="456.308" y="205.504" type="line" smooth="yes"/>
      <point x="456.308" y="294.386"/>
      <point x="423.917" y="349.828"/>
      <point x="360" y="375.333" type="curve"/>
      <point x="413.897" y="401.517"/>
      <point x="444.99" y="455.844"/>
      <point x="444.99" y="522.328" type="curve" smooth="yes"/>
      <point x="444.99" y="529.333" type="line" smooth="yes"/>
      <point x="444.99" y="647.55"/>
      <point x="373.154" y="717.667"/>
      <point x="252.333" y="717.667" type="curve" smooth="yes"/>
      <point x="130.817" y="717.667"/>
      <point x="57.667" y="648.86"/>
      <point x="57.667" y="535" type="curve" smooth="yes"/>
      <point x="57.667" y="517.333" type="line"/>
      <point x="163.341" y="517.333" type="line"/>
      <point x="163.341" y="522.791" type="line" smooth="yes"/>
      <point x="163.341" y="587.686"/>
      <point x="191.126" y="619.333"/>
      <point x="248.333" y="619.333" type="curve" smooth="yes"/>
      <point x="300.575" y="619.333"/>
      <point x="333.634" y="584.565"/>
      <point x="333.634" y="529.447" type="curve" smooth="yes"/>
      <point x="333.634" y="522.667" type="line" smooth="yes"/>
      <point x="333.634" y="443.976"/>
      <point x="304.958" y="414"/>
      <point x="225" y="414" type="curve" smooth="yes"/>
      <point x="207" y="414" type="line"/>
      <point x="207" y="315.667" type="line"/>
      <point x="225.333" y="315.667" type="line" smooth="yes"/>
      <point x="308.373" y="315.667"/>
      <point x="344.982" y="282.259"/>
      <point x="344.982" y="210" type="curve" smooth="yes"/>
      <point x="344.982" y="196.03" type="line" smooth="yes"/>
      <point x="344.982" y="124.275"/>
      <point x="312.73" y="86.667"/>
      <point x="251.667" y="86.667" type="curve" smooth="yes"/>
      <point x="189.125" y="86.667"/>
      <point x="159.672" y="116.069"/>
      <point x="159.672" y="177.392" type="curve" smooth="yes"/>
      <point x="159.672" y="187" type="line"/>
    </contour>
  </outline>
</glyph>
<glyph name="four" format="2">
  <advance width="525"/>
  <unicode hex="0034"/>
  <outline>
    <contour>
      <point x="39.667" y="121.333" type="line"/>
      <point x="308" y="121.333" type="line"/>
      <point x="308" y="0" type="line"/>
      <point x="422.333" y="0" type="line"/>
      <point x="422.333" y="121.333" type="line"/>
      <point x="486.667" y="121.333" type="line"/>
      <point x="486.667" y="222" type="line"/>
      <point x="422.333" y="222" type="line"/>
      <point x="422.333" y="396.667" type="line"/>
      <point x="308" y="396.667" type="line"/>
      <point x="308" y="222" type="line"/>
      <point x="154" y="222" type="line"/>
      <point x="359.333" y="707" type="line"/>
      <point x="245" y="707" type="line"/>
      <point x="39.667" y="222" type="line"/>
    </contour>
  </outline>
</glyph>
<glyph name="five" format="2">
  <advance width="504"/>
  <unicode hex="0035"/>
  <outline>
    <contour>
      <point x="56.702" y="174.333" type="line"/>
      <point x="56.702" y="166.991" type="line" smooth="yes"/>
      <point x="56.702" y="52.158"/>
      <point x="124.95" y="-10.667"/>
      <point x="249.667" y="-10.667" type="curve" smooth="yes"/>
      <point x="374.12" y="-10.667"/>
      <point x="448" y="64.573"/>
      <point x="448" y="191.333" type="curve" smooth="yes"/>
      <point x="448" y="261" type="line" smooth="yes"/>
      <point x="448" y="391.079"/>
      <point x="384.97" y="463"/>
      <point x="271" y="463" type="curve" smooth="yes"/>
      <point x="230.964" y="463"/>
      <point x="192.654" y="449.16"/>
      <point x="167" y="425.667" type="curve"/>
      <point x="167" y="607.333" type="line"/>
      <point x="434.333" y="607.333" type="line"/>
      <point x="434.333" y="707" type="line"/>
      <point x="67" y="707" type="line"/>
      <point x="67" y="309" type="line"/>
      <point x="166" y="309" type="line"/>
      <point x="179.865" y="344.552"/>
      <point x="210.183" y="365"/>
      <point x="249" y="365" type="curve" smooth="yes"/>
      <point x="313.438" y="365"/>
      <point x="336.713" y="329.863"/>
      <point x="336.713" y="232.439" type="curve" smooth="yes"/>
      <point x="336.713" y="222.588" type="line" smooth="yes"/>
      <point x="336.713" y="125.779"/>
      <point x="311.694" y="87"/>
      <point x="249.333" y="87" type="curve" smooth="yes"/>
      <point x="194.463" y="87"/>
      <point x="162.4" y="116.866"/>
      <point x="162.4" y="168.067" type="curve" smooth="yes"/>
      <point x="162.4" y="174.333" type="line"/>
    </contour>
  </outline>
</glyph>
<glyph name="seven" format="2">
  <advance width="458"/>
  <unicode hex="0037"/>
  <outline>
    <contour>
      <point x="89.667" y="0" type="line"/>
      <point x="204.667" y="0" type="line"/>
      <point x="424.667" y="606.333" type="line"/>
      <point x="424.775" y="607.181"/>
      <point x="424.667" y="700.387"/>
      <point x="424.667" y="707" type="curve"/>
      <point x="34.333" y="707" type="line"/>
      <point x="34.333" y="606.333" type="line"/>
      <point x="313.667" y="606.333" type="line"/>
    </contour>
  </outline>
</glyph>
<glyph name="eight" format="2">
  <advance width="533"/>
  <unicode hex="0038"/>
  <outline>
    <contour>
      <point x="146.667" y="371.667" type="curve"/>
      <point x="91.603" y="341.8"/>
      <point x="57.213" y="281.591"/>
      <point x="57.213" y="215" type="curve" smooth="yes"/>
      <point x="57.213" y="185.875" type="line" smooth="yes"/>
      <point x="57.213" y="64.142"/>
      <point x="136.588" y="-10.667"/>
      <point x="265.667" y="-10.667" type="curve" smooth="yes"/>
      <point x="390.735" y="-10.667"/>
      <point x="476.014" y="71.508"/>
      <point x="476.014" y="192" type="curve" smooth="yes"/>
      <point x="476.014" y="215.164" type="line" smooth="yes"/>
      <point x="476.014" y="286.447"/>
      <point x="445.899" y="339.196"/>
      <point x="386.667" y="371.667" type="curve"/>
      <point x="434.939" y="399.393"/>
      <point x="463.379" y="450.909"/>
      <point x="463.379" y="510.667" type="curve" smooth="yes"/>
      <point x="463.379" y="529.955" type="line" smooth="yes"/>
      <point x="463.379" y="644.411"/>
      <point x="386.598" y="717.667"/>
      <point x="266.667" y="717.667" type="curve" smooth="yes"/>
      <point x="153.103" y="717.667"/>
      <point x="70.852" y="638.693"/>
      <point x="70.852" y="529.667" type="curve" smooth="yes"/>
      <point x="70.852" y="511.467" type="line" smooth="yes"/>
      <point x="70.852" y="445.214"/>
      <point x="95.466" y="399.826"/>
    </contour>
    <contour>
      <point x="181.792" y="511.451" type="curve" smooth="yes"/>
      <point x="181.792" y="529.824" type="line" smooth="yes"/>
      <point x="181.792" y="583.897"/>
      <point x="215.396" y="619.333"/>
      <point x="266.667" y="619.333" type="curve" smooth="yes"/>
      <point x="317.126" y="619.333"/>
      <point x="352.951" y="582.171"/>
      <point x="352.951" y="529.824" type="curve" smooth="yes"/>
      <point x="352.951" y="511.451" type="line" smooth="yes"/>
      <point x="352.951" y="453.505"/>
      <point x="319.771" y="417.333"/>
      <point x="266.667" y="417.333" type="curve" smooth="yes"/>
      <point x="215.36" y="417.333"/>
      <point x="181.792" y="454.573"/>
    </contour>
    <contour>
      <point x="168.143" y="194.602" type="curve" smooth="yes"/>
      <point x="168.143" y="217.156" type="line" smooth="yes"/>
      <point x="168.143" y="280.499"/>
      <point x="206.795" y="321.333"/>
      <point x="266.667" y="321.333" type="curve" smooth="yes"/>
      <point x="326.101" y="321.333"/>
      <point x="365.288" y="279.942"/>
      <point x="365.288" y="217.156" type="curve" smooth="yes"/>
      <point x="365.288" y="194.602" type="line" smooth="yes"/>
      <point x="365.288" y="127.85"/>
      <point x="327.62" y="86.667"/>
      <point x="266.667" y="86.667" type="curve" smooth="yes"/>
      <point x="208.977" y="86.667"/>
      <point x="168.143" y="131.403"/>
    </contour>
  </outline>
</glyph>
<glyph name="nine" format="2">
  <advance width="520"/>
  <unicode hex="0039"/>
  <outline>
    <contour>
      <point x="142.667" y="0" type="line"/>
      <point x="262.667" y="0" type="line"/>
      <point x="425" y="320.333" type="line" smooth="yes"/>
      <point x="450.699" y="370.979"/>
      <point x="469.667" y="421.391"/>
      <point x="469.667" y="479" type="curve" smooth="yes"/>
      <point x="469.667" y="512" type="line" smooth="yes"/>
      <point x="469.667" y="641.881"/>
      <point x="388.826" y="717.667"/>
      <point x="260.333" y="717.667" type="curve" smooth="yes"/>
      <point x="132.73" y="717.667"/>
      <point x="50.667" y="636.564"/>
      <point x="50.667" y="508.667" type="curve" smooth="yes"/>
      <point x="50.667" y="475" type="line" smooth="yes"/>
      <point x="50.667" y="364.284"/>
      <point x="115.076" y="279.667"/>
      <point x="231" y="279.667" type="curve" smooth="yes"/>
      <point x="251.511" y="279.667"/>
      <point x="273.052" y="283.928"/>
      <point x="291" y="294" type="curve"/>
    </contour>
    <contour>
      <point x="165" y="481" type="curve" smooth="yes"/>
      <point x="165" y="514" type="line" smooth="yes"/>
      <point x="165" y="573.982"/>
      <point x="196.762" y="619.333"/>
      <point x="260.333" y="619.333" type="curve" smooth="yes"/>
      <point x="324.134" y="619.333"/>
      <point x="354.667" y="574.259"/>
      <point x="354.667" y="514.333" type="curve" smooth="yes"/>
      <point x="354.667" y="480" type="line" smooth="yes"/>
      <point x="354.667" y="420.665"/>
      <point x="322.917" y="376.667"/>
      <point x="260.333" y="376.667" type="curve" smooth="yes"/>
      <point x="197.632" y="376.667"/>
      <point x="165" y="421.493"/>
    </contour>
  </outline>
</glyph>
<glyph name="equal" format="2">
  <advance width="535"/>
  <unicode hex="003D"/>
  <outline>
    <contour>
      <point x="52" y="336.667" type="line"/>
      <point x="483.333" y="336.667" type="line"/>
      <point x="483.333" y="436.333" type="line"/>
      <point x="52" y="436.333" type="line"/>
    </contour>
    <contour>
      <point x="52" y="129" type="line"/>
      <point x="483.333" y="129" type="line"/>
      <point x="483.333" y="228" type="line"/>
      <point x="52" y="228" type="line"/>
    </contour>
  </outline>
</glyph>
<glyph name="greater" format="2">
  <advance width="535"/>
  <unicode hex="003E"/>
  <outline>
    <contour>
      <point x="52" y="64.667" type="line"/>
      <point x="483.333" y="236.333" type="line"/>
      <point x="483.333" y="327" type="line"/>
      <point x="52" y="497.667" type="line"/>
      <point x="52" y="395" type="line"/>
      <point x="346.333" y="281.667" type="line"/>
      <point x="52" y="168.333" type="line"/>
    </contour>
  </outline>
</glyph>
<glyph name="question" format="2">
  <advance width="454"/>
  <unicode hex="003F"/>
  <outline>
    <contour>
      <point x="166" y="192.667" type="line"/>
      <point x="275.516" y="192.667" type="line"/>
      <point x="275.516" y="235.73" type="line" smooth="yes"/>
      <point x="275.516" y="274.921"/>
      <point x="281.137" y="293.867"/>
      <point x="303.667" y="321.667" type="curve" smooth="yes"/>
      <point x="330.565" y="354.743" type="line" smooth="yes"/>
      <point x="374.568" y="408.902"/>
      <point x="415" y="465.761"/>
      <point x="415" y="538.667" type="curve" smooth="yes"/>
      <point x="415" y="650.387"/>
      <point x="330.418" y="717"/>
      <point x="223.333" y="717" type="curve" smooth="yes"/>
      <point x="100.231" y="717"/>
      <point x="33.633" y="648.298"/>
      <point x="31.667" y="526" type="curve"/>
      <point x="139" y="526" type="line"/>
      <point x="140.485" y="581.356"/>
      <point x="159.752" y="617"/>
      <point x="220" y="617" type="curve" smooth="yes"/>
      <point x="272.953" y="617"/>
      <point x="302.667" y="588.849"/>
      <point x="302.667" y="535.333" type="curve" smooth="yes"/>
      <point x="302.667" y="485.44"/>
      <point x="267.947" y="441.709"/>
      <point x="233.372" y="400.011" type="curve" smooth="yes"/>
      <point x="204.399" y="365.161" type="line" smooth="yes"/>
      <point x="170.956" y="324.893"/>
      <point x="166" y="299.779"/>
      <point x="166" y="247.667" type="curve" smooth="yes"/>
    </contour>
    <contour>
      <point x="160.667" y="0" type="line"/>
      <point x="280.333" y="0" type="line"/>
      <point x="280.333" y="117.667" type="line"/>
      <point x="160.667" y="117.667" type="line"/>
    </contour>
  </outline>
</glyph>
<glyph name="at" format="2">
  <advance width="893"/>
  <unicode hex="0040"/>
  <outline>
    <contour>
      <point x="661.667" y="6" type="line"/>
      <point x="592.899" y="-30.053"/>
      <point x="526.019" y="-46.333"/>
      <point x="446.667" y="-46.333" type="curve" smooth="yes"/>
      <point x="266.15" y="-46.333"/>
      <point x="151.667" y="69.965"/>
      <point x="151.667" y="253.333" type="curve" smooth="yes"/>
      <point x="151.667" y="326.333" type="line" smooth="yes"/>
      <point x="151.667" y="509.473"/>
      <point x="263.73" y="621.667"/>
      <point x="446.667" y="621.667" type="curve" smooth="yes"/>
      <point x="630.001" y="621.667"/>
      <point x="742.736" y="509.582"/>
      <point x="742.736" y="327.333" type="curve" smooth="yes"/>
      <point x="742.736" y="266.284" type="line" smooth="yes"/>
      <point x="742.736" y="180.924"/>
      <point x="720.974" y="138.667"/>
      <point x="677" y="138.667" type="curve" smooth="yes"/>
      <point x="639.738" y="138.667"/>
      <point x="619.667" y="163.967"/>
      <point x="619.667" y="211" type="curve" smooth="yes"/>
      <point x="619.667" y="504.333" type="line"/>
      <point x="523" y="504.333" type="line"/>
      <point x="523" y="461.667" type="line"/>
      <point x="503.568" y="495.301"/>
      <point x="463.306" y="515"/>
      <point x="414" y="515" type="curve" smooth="yes"/>
      <point x="316.822" y="515"/>
      <point x="264.98" y="450.295"/>
      <point x="264.98" y="329" type="curve" smooth="yes"/>
      <point x="264.98" y="255.722" type="line" smooth="yes"/>
      <point x="264.98" y="119.397"/>
      <point x="314.568" y="55.667"/>
      <point x="419.333" y="55.667" type="curve" smooth="yes"/>
      <point x="483.283" y="55.667"/>
      <point x="529.285" y="79.934"/>
      <point x="550.333" y="124.667" type="curve"/>
      <point x="573.587" y="80.142"/>
      <point x="618.131" y="55.667"/>
      <point x="676" y="55.667" type="curve" smooth="yes"/>
      <point x="778.844" y="55.667"/>
      <point x="843" y="133.106"/>
      <point x="843" y="257.333" type="curve" smooth="yes"/>
      <point x="843" y="328.333" type="line" smooth="yes"/>
      <point x="843" y="553.623"/>
      <point x="679.198" y="712.333"/>
      <point x="446.667" y="712.333" type="curve" smooth="yes"/>
      <point x="212.767" y="712.333"/>
      <point x="50.667" y="553.5"/>
      <point x="50.667" y="324.333" type="curve" smooth="yes"/>
      <point x="50.667" y="253" type="line" smooth="yes"/>
      <point x="50.667" y="22.513"/>
      <point x="212.229" y="-136.333"/>
      <point x="446.667" y="-136.333" type="curve" smooth="yes"/>
      <point x="546.152" y="-136.333"/>
      <point x="620.567" y="-117.357"/>
      <point x="700.333" y="-71.667" type="curve"/>
    </contour>
    <contour>
      <point x="443.333" y="140.333" type="curve" smooth="yes"/>
      <point x="391.105" y="140.333"/>
      <point x="365.333" y="175.682"/>
      <point x="365.333" y="247.333" type="curve" smooth="yes"/>
      <point x="365.333" y="328.667" type="line" smooth="yes"/>
      <point x="365.333" y="395.313"/>
      <point x="392.704" y="431.333"/>
      <point x="443.333" y="431.333" type="curve" smooth="yes"/>
      <point x="493.997" y="431.333"/>
      <point x="520.667" y="396.045"/>
      <point x="520.667" y="329" type="curve" smooth="yes"/>
      <point x="520.667" y="243.667" type="line" smooth="yes"/>
      <point x="520.667" y="176.302"/>
      <point x="493.75" y="140.333"/>
    </contour>
  </outline>
</glyph>
<glyph name="A" format="2">
  <advance width="610"/>
  <unicode hex="0041"/>
  <anchor x="304.333" y="775" name="top"/>
  <anchor x="304.333" y="656.667" name="t.ring"/>
  <anchor x="304.333" y="-86" name="bottom"/>
  <anchor x="601.333" y="0" name="b.cedilla"/>
  <outline>
    <contour>
      <point x="5" y="0" type="line"/>
      <point x="125.333" y="0" type="line"/>
      <point x="173.667" y="148" type="line"/>
      <point x="435.667" y="148" type="line"/>
      <point x="484.333" y="0" type="line"/>
      <point x="605.333" y="0" type="line"/>
      <point x="352.333" y="707" type="line"/>
      <point x="258" y="707" type="line"/>
    </contour>
    <contour>
      <point x="205" y="243.667" type="line"/>
      <point x="304.333" y="547.333" type="line"/>
      <point x="404.667" y="243.667" type="line"/>
    </contour>
  </outline>
</glyph>
<glyph name="C" format="2">
  <advance width="614"/>
  <unicode hex="0043"/>
  <anchor x="310.667" y="775" name="top"/>
  <anchor x="278" y="0" name="b.cedilla"/>
  <anchor x="236" y="-86" name="bottom"/>
  <outline>
    <contour>
      <point x="446.653" y="226.667" type="line"/>
      <point x="446.653" y="222.211" type="line" smooth="yes"/>
      <point x="446.653" y="139.44"/>
      <point x="395.763" y="94.667"/>
      <point x="313" y="94.667" type="curve" smooth="yes"/>
      <point x="203.144" y="94.667"/>
      <point x="171.333" y="172.355"/>
      <point x="171.333" y="269.333" type="curve" smooth="yes"/>
      <point x="171.333" y="432.667" type="line" smooth="yes"/>
      <point x="171.333" y="530.11"/>
      <point x="197.366" y="615.333"/>
      <point x="311.333" y="615.333" type="curve" smooth="yes"/>
      <point x="391.87" y="615.333"/>
      <point x="446.603" y="570.408"/>
      <point x="446.603" y="490.397" type="curve" smooth="yes"/>
      <point x="446.603" y="482.333" type="line"/>
      <point x="560.958" y="482.333" type="line"/>
      <point x="560.958" y="491.223" type="line" smooth="yes"/>
      <point x="560.958" y="638.533"/>
      <point x="456.419" y="716.667"/>
      <point x="312" y="716.667" type="curve" smooth="yes"/>
      <point x="132.064" y="716.667"/>
      <point x="56.667" y="609.103"/>
      <point x="56.667" y="438.333" type="curve" smooth="yes"/>
      <point x="56.667" y="269.333" type="line" smooth="yes"/>
      <point x="56.667" y="99.487"/>
      <point x="131.525" y="-8"/>
      <point x="310.667" y="-8" type="curve" smooth="yes"/>
      <point x="455.886" y="-8"/>
      <point x="559" y="68.261"/>
      <point x="559" y="220.667" type="curve" smooth="yes"/>
      <point x="559" y="226.667" type="line"/>
    </contour>
  </outline>
</glyph>
<glyph name="F" format="2">
  <advance width="543"/>
  <unicode hex="0046"/>
  <anchor x="308" y="775" name="top"/>
  <anchor x="236" y="-86" name="bottom"/>
  <outline>
    <contour>
      <point x="161.973" y="302.667" type="line"/>
      <point x="462.667" y="302.667" type="line"/>
      <point x="462.667" y="403" type="line"/>
      <point x="161.973" y="403" type="line"/>
    </contour>
    <contour>
      <point x="162.153" y="606.667" type="line"/>
      <point x="509.667" y="606.667" type="line"/>
      <point x="509.667" y="707" type="line"/>
      <point x="162.153" y="707" type="line"/>
    </contour>
    <contour>
      <point x="67.333" y="0" type="line"/>
      <point x="182.333" y="0" type="line"/>
      <point x="182.333" y="707.073" type="line"/>
      <point x="67.333" y="707" type="line"/>
    </contour>
  </outline>
</glyph>
<glyph name="H" format="2">
  <advance width="630"/>
  <unicode hex="0048"/>
  <anchor x="315.333" y="775" name="top"/>
  <anchor x="316" y="-86" name="bottom"/>
  <outline>
    <contour>
      <point x="161.973" y="308.667" type="line"/>
      <point x="468.693" y="308.667" type="line"/>
      <point x="468.693" y="409" type="line"/>
      <point x="161.973" y="409" type="line"/>
    </contour>
    <contour>
      <point x="448.333" y="0" type="line"/>
      <point x="562.667" y="0" type="line"/>
      <point x="562.667" y="707" type="line"/>
      <point x="448.333" y="707" type="line"/>
    </contour>
    <contour>
      <point x="67.333" y="0" type="line"/>
      <point x="182.333" y="0" type="line"/>
      <point x="182.333" y="707" type="line"/>
      <point x="67.333" y="707" type="line"/>
    </contour>
  </outline>
</glyph>
<glyph name="J" format="2">
  <advance width="332"/>
  <unicode hex="004A"/>
  <anchor x="200.333" y="775" name="top"/>
  <anchor x="236" y="-86" name="bottom"/>
  <outline>
    <contour>
      <point x="27.667" y="0" type="line"/>
      <point x="108" y="0" type="line" smooth="yes"/>
      <point x="206.534" y="0"/>
      <point x="258" y="56.335"/>
      <point x="258" y="153.333" type="curve" smooth="yes"/>
      <point x="258" y="707" type="line"/>
      <point x="143.333" y="707" type="line"/>
      <point x="143.333" y="171" type="line" smooth="yes"/>
      <point x="143.333" y="107.788"/>
      <point x="114.787" y="101.458"/>
      <point x="71.397" y="101.458" type="curve" smooth="yes"/>
      <point x="27.667" y="101.458" type="line"/>
    </contour>
  </outline>
</glyph>
<glyph name="M" format="2">
  <advance width="771"/>
  <unicode hex="004D"/>
  <anchor x="386.667" y="775" name="top"/>
  <anchor x="236" y="-86" name="bottom"/>
  <outline>
    <contour>
      <point x="74.667" y="0" type="line"/>
      <point x="189.667" y="0" type="line"/>
      <point x="189.667" y="465.667" type="line"/>
      <point x="347" y="137.667" type="line"/>
      <point x="426.333" y="137.667" type="line"/>
      <point x="582" y="463.667" type="line"/>
      <point x="582" y="0" type="line"/>
      <point x="696.333" y="0" type="line"/>
      <point x="696.333" y="707" type="line"/>
      <point x="582" y="707" type="line"/>
      <point x="386.667" y="287.333" type="line"/>
      <point x="189.667" y="707" type="line"/>
      <point x="74.667" y="707" type="line"/>
    </contour>
  </outline>
</glyph>
<glyph name="O" format="2">
  <advance width="617"/>
  <unicode hex="004F"/>
  <anchor x="305.667" y="775" name="top"/>
  <anchor x="305.667" y="-86" name="bottom"/>
  <anchor x="258.333" y="0" name="b.cedilla"/>
  <outline>
    <contour>
      <point x="306.667" y="-8" type="curve" smooth="yes"/>
      <point x="471.518" y="-8"/>
      <point x="561" y="89.431"/>
      <point x="561" y="268.893" type="curve" smooth="yes"/>
      <point x="561" y="437.449" type="line" smooth="yes"/>
      <point x="561" y="619.348"/>
      <point x="473.4" y="716.667"/>
      <point x="309.667" y="716.667" type="curve" smooth="yes"/>
      <point x="145.01" y="716.667"/>
      <point x="56.667" y="619.167"/>
      <point x="56.667" y="437.449" type="curve" smooth="yes"/>
      <point x="56.667" y="268.893" type="line" smooth="yes"/>
      <point x="56.667" y="88.065"/>
      <point x="143.403" y="-8"/>
    </contour>
    <contour>
      <point x="308.097" y="94.667" type="curve" smooth="yes"/>
      <point x="217.04" y="94.667"/>
      <point x="171.333" y="152.782"/>
      <point x="171.333" y="268.887" type="curve" smooth="yes"/>
      <point x="171.333" y="431.802" type="line" smooth="yes"/>
      <point x="171.333" y="554.789"/>
      <point x="215.399" y="614"/>
      <point x="306.837" y="614" type="curve" smooth="yes"/>
      <point x="399.237" y="614"/>
      <point x="446.667" y="552.261"/>
      <point x="446.667" y="431.802" type="curve" smooth="yes"/>
      <point x="446.667" y="268.887" type="line" smooth="yes"/>
      <point x="446.667" y="154.27"/>
      <point x="399.25" y="94.667"/>
    </contour>
  </outline>
</glyph>
<glyph name="P" format="2">
  <advance width="583"/>
  <unicode hex="0050"/>
  <anchor x="291.333" y="775" name="top"/>
  <anchor x="236" y="-86" name="bottom"/>
  <outline>
    <contour>
      <point x="67.333" y="0" type="line"/>
      <point x="182.333" y="0" type="line"/>
      <point x="182.333" y="276" type="line"/>
      <point x="328.667" y="276" type="line" smooth="yes"/>
      <point x="468.716" y="276"/>
      <point x="556.667" y="357.785"/>
      <point x="556.667" y="488" type="curve" smooth="yes"/>
      <point x="556.667" y="626.084"/>
      <point x="468.667" y="707"/>
      <point x="328.667" y="707" type="curve" smooth="yes"/>
      <point x="67.333" y="707" type="line"/>
    </contour>
    <contour>
      <point x="182.333" y="377" type="line"/>
      <point x="182.333" y="606.333" type="line"/>
      <point x="322" y="606.333" type="line" smooth="yes"/>
      <point x="398.343" y="606.333"/>
      <point x="442.333" y="566.525"/>
      <point x="442.333" y="488" type="curve" smooth="yes"/>
      <point x="442.333" y="415.18"/>
      <point x="395.211" y="377"/>
      <point x="322" y="377" type="curve" smooth="yes"/>
    </contour>
  </outline>
</glyph>
<glyph name="Q" format="2">
  <advance width="617"/>
  <unicode hex="0051"/>
  <anchor x="309.333" y="775" name="top"/>
  <anchor x="236" y="-86" name="bottom"/>
  <outline>
    <contour>
      <point x="306.667" y="-8" type="curve" smooth="yes"/>
      <point x="473.894" y="-8"/>
      <point x="561" y="86.989"/>
      <point x="561" y="269.333" type="curve" smooth="yes"/>
      <point x="561" y="438.333" type="line" smooth="yes"/>
      <point x="561" y="622.442"/>
      <point x="475.919" y="716.667"/>
      <point x="309.667" y="716.667" type="curve" smooth="yes"/>
      <point x="142.417" y="716.667"/>
      <point x="56.667" y="622.325"/>
      <point x="56.667" y="438.333" type="curve" smooth="yes"/>
      <point x="56.667" y="269.333" type="line" smooth="yes"/>
      <point x="56.667" y="85.735"/>
      <point x="141.166" y="-8"/>
    </contour>
    <contour>
      <point x="309.667" y="94.667" type="curve" smooth="yes"/>
      <point x="215.265" y="94.667"/>
      <point x="171.333" y="149.954"/>
      <point x="171.333" y="269.333" type="curve" smooth="yes"/>
      <point x="171.333" y="432.667" type="line" smooth="yes"/>
      <point x="171.333" y="559.026"/>
      <point x="214.045" y="615.333"/>
      <point x="309.667" y="615.333" type="curve" smooth="yes"/>
      <point x="401.672" y="615.333"/>
      <point x="446.667" y="555.441"/>
      <point x="446.667" y="432.667" type="curve" smooth="yes"/>
      <point x="446.667" y="269.333" type="line" smooth="yes"/>
      <point x="446.667" y="152.31"/>
      <point x="401.414" y="94.667"/>
    </contour>
    <contour>
      <point x="446.333" y="-157" type="line"/>
      <point x="534.333" y="-108" type="line"/>
      <point x="451.309" y="44.15" type="line"/>
      <point x="356.009" y="9.501" type="line"/>
    </contour>
  </outline>
</glyph>
<glyph name="S" format="2">
  <advance width="560"/>
  <unicode hex="0053"/>
  <anchor x="269.333" y="775" name="top"/>
  <anchor x="251" y="0" name="b.cedilla"/>
  <anchor x="269.333" y="-86" name="bottom"/>
  <outline>
    <contour>
      <point x="28.667" y="210" type="line"/>
      <point x="38.455" y="64.77"/>
      <point x="130.702" y="-6"/>
      <point x="272" y="-6" type="curve" smooth="yes"/>
      <point x="408.927" y="-6"/>
      <point x="520.667" y="57.645"/>
      <point x="520.667" y="207.333" type="curve" smooth="yes"/>
      <point x="520.667" y="367.146"/>
      <point x="406.273" y="389.177"/>
      <point x="305.469" y="408.609" type="curve" smooth="yes"/>
      <point x="284.763" y="412.677" type="line" smooth="yes"/>
      <point x="213.895" y="426.868"/>
      <point x="154.333" y="444.547"/>
      <point x="154.333" y="517" type="curve" smooth="yes"/>
      <point x="154.333" y="589.681"/>
      <point x="209.384" y="619.667"/>
      <point x="275.333" y="619.667" type="curve" smooth="yes"/>
      <point x="346.616" y="619.667"/>
      <point x="396.472" y="585.285"/>
      <point x="398.333" y="510.333" type="curve"/>
      <point x="509" y="510.333" type="line"/>
      <point x="497.987" y="643.962"/>
      <point x="409.38" y="716.667"/>
      <point x="277.667" y="716.667" type="curve" smooth="yes"/>
      <point x="149.243" y="716.667"/>
      <point x="43.333" y="646.182"/>
      <point x="43.333" y="508.667" type="curve" smooth="yes"/>
      <point x="43.333" y="353.263"/>
      <point x="152.855" y="332.92"/>
      <point x="251.732" y="314.63" type="curve" smooth="yes"/>
      <point x="272.459" y="310.734" type="line" smooth="yes"/>
      <point x="345.537" y="296.677"/>
      <point x="408" y="278.415"/>
      <point x="408" y="198.333" type="curve" smooth="yes"/>
      <point x="408" y="118.273"/>
      <point x="349.288" y="92.333"/>
      <point x="278.333" y="92.333" type="curve" smooth="yes"/>
      <point x="198.192" y="92.333"/>
      <point x="145.249" y="125.784"/>
      <point x="138" y="210" type="curve"/>
    </contour>
  </outline>
</glyph>
<glyph name="U" format="2">
  <advance width="634"/>
  <unicode hex="0055"/>
  <anchor x="316.667" y="775" name="top"/>
  <anchor x="316.667" y="-86" name="bottom"/>
  <anchor x="365.667" y="0" name="b.cedilla"/>
  <outline>
    <contour>
      <point x="66.667" y="707" type="line"/>
      <point x="66.667" y="232" type="line" smooth="yes"/>
      <point x="66.667" y="89.859"/>
      <point x="178.381" y="-6"/>
      <point x="316.667" y="-6" type="curve" smooth="yes"/>
      <point x="456.004" y="-6"/>
      <point x="567.333" y="88.555"/>
      <point x="567.333" y="232" type="curve" smooth="yes"/>
      <point x="567.333" y="707" type="line"/>
      <point x="452.667" y="707" type="line"/>
      <point x="452.667" y="237.667" type="line" smooth="yes"/>
      <point x="452.667" y="154.173"/>
      <point x="402.88" y="94"/>
      <point x="316.667" y="94" type="curve" smooth="yes"/>
      <point x="229.638" y="94"/>
      <point x="181.333" y="153.895"/>
      <point x="181.333" y="237.667" type="curve" smooth="yes"/>
      <point x="181.333" y="707" type="line"/>
    </contour>
  </outline>
</glyph>
<glyph name="Y" format="2">
  <advance width="539"/>
  <unicode hex="0059"/>
  <anchor x="269" y="775" name="top"/>
  <anchor x="269" y="-86" name="bottom"/>
  <outline>
    <contour>
      <point x="212.667" y="0" type="line"/>
      <point x="327" y="0" type="line"/>
      <point x="327" y="292.667" type="line"/>
      <point x="534.667" y="707" type="line"/>
      <point x="409" y="707" type="line"/>
      <point x="269" y="402.667" type="line"/>
      <point x="130" y="707" type="line"/>
      <point x="5" y="707" type="line"/>
      <point x="212.667" y="292.333" type="line"/>
    </contour>
  </outline>
</glyph>
<glyph name="Z" format="2">
  <advance width="521"/>
  <unicode hex="005A"/>
  <anchor x="260.667" y="775" name="top"/>
  <anchor x="260.667" y="-86" name="bottom"/>
  <outline>
    <contour>
      <point x="34.333" y="0" type="line"/>
      <point x="490" y="0" type="line"/>
      <point x="490" y="101.333" type="line"/>
      <point x="160" y="101.333" type="line"/>
      <point x="482.667" y="606.333" type="line"/>
      <point x="482.667" y="707" type="line"/>
      <point x="42.667" y="707" type="line"/>
      <point x="42.667" y="606.333" type="line"/>
      <point x="357.667" y="606.333" type="line"/>
      <point x="34.333" y="101.333" type="line"/>
    </contour>
  </outline>
</glyph>
<glyph name="backslash" format="2">
  <advance width="410"/>
  <unicode hex="005C"/>
  <outline>
    <contour>
      <point x="268.667" y="-10" type="line"/>
      <point x="359.667" y="-10" type="line"/>
      <point x="142" y="710.333" type="line"/>
      <point x="50.667" y="710.333" type="line"/>
    </contour>
  </outline>
</glyph>
<glyph name="asciicircum" format="2">
  <advance width="535"/>
  <unicode hex="005E"/>
  <outline>
    <contour>
      <point x="47" y="282.667" type="line"/>
      <point x="137.667" y="282.667" type="line"/>
      <point x="267.333" y="606.333" type="line"/>
      <point x="397.667" y="282.667" type="line"/>
      <point x="488.667" y="282.667" type="line"/>
      <point x="313.667" y="710.333" type="line"/>
      <point x="222" y="710.333" type="line"/>
    </contour>
  </outline>
</glyph>
<glyph name="grave" format="2">
  <advance width="512"/>
  <unicode hex="0060"/>
  <outline>
    <contour>
      <point x="178" y="687.333" type="line"/>
      <point x="293.667" y="596.667" type="line"/>
      <point x="333.333" y="639.333" type="line"/>
      <point x="230.667" y="730" type="line"/>
    </contour>
  </outline>
</glyph>
<glyph name="a" format="2">
  <advance width="511"/>
  <unicode hex="0061"/>
  <anchor x="246.333" y="596.667" name="top"/>
  <anchor x="246.333" y="578" name="t.ring"/>
  <anchor x="247" y="-86" name="bottom"/>
  <anchor x="449.333" y="0" name="b.cedilla"/>
  <outline>
    <contour>
      <point x="344.667" y="0" type="line"/>
      <point x="449.333" y="0" type="line"/>
      <point x="449.333" y="351" type="line" smooth="yes"/>
      <point x="449.333" y="476.619"/>
      <point x="365.192" y="534.667"/>
      <point x="246.667" y="534.667" type="curve" smooth="yes"/>
      <point x="149.487" y="534.667"/>
      <point x="55" y="486.828"/>
      <point x="55" y="378" type="curve" smooth="yes"/>
      <point x="55" y="373.667" type="line"/>
      <point x="156.333" y="373.667" type="line"/>
      <point x="156.333" y="377" type="line" smooth="yes"/>
      <point x="156.333" y="426.619"/>
      <point x="201.319" y="450"/>
      <point x="246.333" y="450" type="curve" smooth="yes"/>
      <point x="307.285" y="450"/>
      <point x="342" y="416.664"/>
      <point x="342" y="355.333" type="curve" smooth="yes"/>
      <point x="342" y="307.667" type="line"/>
      <point x="312.153" y="308.297"/>
      <point x="282.322" y="309.784"/>
      <point x="252.464" y="309.784" type="curve" smooth="yes"/>
      <point x="147.475" y="309.784"/>
      <point x="40.667" y="281.103"/>
      <point x="40.667" y="155.333" type="curve" smooth="yes"/>
      <point x="40.667" y="50.194"/>
      <point x="111.403" y="-6"/>
      <point x="212.667" y="-6" type="curve" smooth="yes"/>
      <point x="262.481" y="-6"/>
      <point x="311.06" y="11.246"/>
      <point x="344.667" y="49" type="curve"/>
    </contour>
    <contour>
      <point x="342" y="232.667" type="line"/>
      <point x="342" y="184.667" type="line" smooth="yes"/>
      <point x="342" y="114.363"/>
      <point x="305.025" y="80.667"/>
      <point x="235.667" y="80.667" type="curve" smooth="yes"/>
      <point x="185.181" y="80.667"/>
      <point x="146" y="102.435"/>
      <point x="146" y="157.667" type="curve" smooth="yes"/>
      <point x="146" y="212.697"/>
      <point x="188.245" y="232.667"/>
      <point x="237.333" y="232.667" type="curve" smooth="yes"/>
    </contour>
  </outline>
</glyph>
<glyph name="c" format="2">
  <advance width="516"/>
  <unicode hex="0063"/>
  <anchor x="263.333" y="596.667" name="top"/>
  <anchor x="234" y="0" name="b.cedilla"/>
  <anchor x="236" y="-86" name="bottom"/>
  <outline>
    <contour>
      <point x="362.333" y="183.667" type="line"/>
      <point x="362.333" y="178.333" type="line" smooth="yes"/>
      <point x="362.333" y="119.711"/>
      <point x="321.83" y="89.333"/>
      <point x="264" y="89.333" type="curve" smooth="yes"/>
      <point x="182.959" y="89.333"/>
      <point x="158" y="142.808"/>
      <point x="158" y="215.667" type="curve" smooth="yes"/>
      <point x="158" y="312.333" type="line" smooth="yes"/>
      <point x="158" y="384.535"/>
      <point x="184.388" y="438.333"/>
      <point x="264.333" y="438.333" type="curve" smooth="yes"/>
      <point x="323.6" y="438.333"/>
      <point x="362.333" y="405.043"/>
      <point x="362.333" y="345.333" type="curve" smooth="yes"/>
      <point x="362.333" y="342" type="line"/>
      <point x="465.667" y="342" type="line"/>
      <point x="465.667" y="346.667" type="line" smooth="yes"/>
      <point x="465.667" y="471.372"/>
      <point x="383.734" y="534.667"/>
      <point x="262" y="534.667" type="curve" smooth="yes"/>
      <point x="121.075" y="534.667"/>
      <point x="50.667" y="452.68"/>
      <point x="50.667" y="315" type="curve" smooth="yes"/>
      <point x="50.667" y="213.667" type="line" smooth="yes"/>
      <point x="50.667" y="74.881"/>
      <point x="120.403" y="-6"/>
      <point x="262.333" y="-6" type="curve" smooth="yes"/>
      <point x="377.08" y="-6"/>
      <point x="465.667" y="55.96"/>
      <point x="465.667" y="177.667" type="curve" smooth="yes"/>
      <point x="465.667" y="183.667" type="line"/>
    </contour>
  </outline>
</glyph>
<glyph name="d" format="2">
  <advance width="525"/>
  <unicode hex="0064"/>
  <anchor x="234" y="588.667" name="top"/>
  <anchor x="234" y="-86" name="bottom"/>
  <outline>
    <contour>
      <point x="356.667" y="0" type="line"/>
      <point x="462.667" y="0" type="line"/>
      <point x="462.667" y="707" type="line"/>
      <point x="355.333" y="707" type="line"/>
      <point x="355.333" y="467.333" type="line"/>
      <point x="326.09" y="511.792"/>
      <point x="279.166" y="534.667"/>
      <point x="226.333" y="534.667" type="curve" smooth="yes"/>
      <point x="98.157" y="534.667"/>
      <point x="50.667" y="430.377"/>
      <point x="50.667" y="317" type="curve" smooth="yes"/>
      <point x="50.667" y="211.667" type="line" smooth="yes"/>
      <point x="50.667" y="99.006"/>
      <point x="99.492" y="-6"/>
      <point x="226.667" y="-6" type="curve" smooth="yes"/>
      <point x="277.918" y="-6"/>
      <point x="326.818" y="12.518"/>
      <point x="356.667" y="55.667" type="curve"/>
    </contour>
    <contour>
      <point x="252" y="89.333" type="curve" smooth="yes"/>
      <point x="177.113" y="89.333"/>
      <point x="159" y="152.85"/>
      <point x="159" y="215.667" type="curve" smooth="yes"/>
      <point x="159" y="312.333" type="line" smooth="yes"/>
      <point x="159" y="377.363"/>
      <point x="179.321" y="438.333"/>
      <point x="255.333" y="438.333" type="curve" smooth="yes"/>
      <point x="329.365" y="438.333"/>
      <point x="355.333" y="374.696"/>
      <point x="355.333" y="310.333" type="curve" smooth="yes"/>
      <point x="355.333" y="216" type="line" smooth="yes"/>
      <point x="355.333" y="148.617"/>
      <point x="327.847" y="89.333"/>
    </contour>
  </outline>
</glyph>
<glyph name="e" format="2">
  <advance width="524"/>
  <unicode hex="0065"/>
  <anchor x="262.667" y="596.667" name="top"/>
  <anchor x="263" y="-86" name="bottom"/>
  <anchor x="323.333" y="1" name="b.cedilla"/>
  <outline>
    <contour>
      <point x="158" y="234" type="line"/>
      <point x="473.667" y="234" type="line"/>
      <point x="473.667" y="301.667" type="line" smooth="yes"/>
      <point x="473.667" y="437.524"/>
      <point x="406.728" y="534.667"/>
      <point x="262.667" y="534.667" type="curve" smooth="yes"/>
      <point x="116.851" y="534.667"/>
      <point x="50.667" y="439.521"/>
      <point x="50.667" y="301.667" type="curve" smooth="yes"/>
      <point x="50.667" y="228.333" type="line" smooth="yes"/>
      <point x="50.667" y="88.219"/>
      <point x="118.649" y="-6"/>
      <point x="266" y="-6" type="curve" smooth="yes"/>
      <point x="369.385" y="-6"/>
      <point x="469.667" y="43.525"/>
      <point x="469.667" y="159.667" type="curve" smooth="yes"/>
      <point x="469.667" y="164.667" type="line"/>
      <point x="366.333" y="164.667" type="line"/>
      <point x="366.358" y="159.681" type="line"/>
      <point x="366.584" y="107.543"/>
      <point x="320.254" y="87.333"/>
      <point x="271" y="87.333" type="curve" smooth="yes"/>
      <point x="190.134" y="87.333"/>
      <point x="158" y="138.982"/>
      <point x="158" y="214.333" type="curve" smooth="yes"/>
    </contour>
    <contour>
      <point x="158" y="309.333" type="line"/>
      <point x="157.978" y="313.77" type="line"/>
      <point x="157.978" y="385.291"/>
      <point x="182.417" y="441.333"/>
      <point x="262.667" y="441.333" type="curve" smooth="yes"/>
      <point x="336.741" y="441.333"/>
      <point x="365.667" y="393.712"/>
      <point x="365.667" y="324.703" type="curve" smooth="yes"/>
      <point x="365.667" y="309.333" type="line"/>
    </contour>
  </outline>
</glyph>
<glyph name="f" format="2">
  <advance width="332"/>
  <unicode hex="0066"/>
  <anchor x="164" y="775" name="top"/>
  <anchor x="236" y="-86" name="bottom"/>
  <outline>
    <contour>
      <point x="94" y="0" type="line"/>
      <point x="201.333" y="0" type="line"/>
      <point x="201.333" y="450" type="line"/>
      <point x="301" y="450" type="line"/>
      <point x="301" y="527.667" type="line"/>
      <point x="201.333" y="527.667" type="line"/>
      <point x="201.333" y="546" type="line" smooth="yes"/>
      <point x="201.333" y="610.246"/>
      <point x="214.319" y="630.899"/>
      <point x="285.875" y="630.899" type="curve" smooth="yes"/>
      <point x="301" y="630.899" type="line"/>
      <point x="301" y="707" type="line"/>
      <point x="234.333" y="707" type="line" smooth="yes"/>
      <point x="147.429" y="707"/>
      <point x="94" y="656.186"/>
      <point x="94" y="568.667" type="curve" smooth="yes"/>
      <point x="94" y="527.667" type="line"/>
      <point x="34.667" y="527.667" type="line"/>
      <point x="34.667" y="450" type="line"/>
      <point x="94" y="450" type="line"/>
    </contour>
  </outline>
</glyph>
<glyph name="g" format="2">
  <advance width="525"/>
  <unicode hex="0067"/>
  <anchor x="245.333" y="596.667" name="top"/>
  <anchor x="236" y="-86" name="bottom"/>
  <outline>
    <contour>
      <point x="58.667" y="-17.333" type="line"/>
      <point x="65.061" y="-125.039"/>
      <point x="158.671" y="-166"/>
      <point x="254.667" y="-166" type="curve" smooth="yes"/>
      <point x="382.19" y="-166"/>
      <point x="462.667" y="-88.659"/>
      <point x="462.667" y="39.667" type="curve" smooth="yes"/>
      <point x="462.667" y="529" type="line"/>
      <point x="355.333" y="529" type="line"/>
      <point x="355.333" y="469" type="line"/>
      <point x="326.712" y="513.004"/>
      <point x="278.218" y="535.667"/>
      <point x="226.333" y="535.667" type="curve" smooth="yes"/>
      <point x="98.786" y="535.667"/>
      <point x="50.667" y="431.286"/>
      <point x="50.667" y="318.333" type="curve" smooth="yes"/>
      <point x="50.667" y="256" type="line" smooth="yes"/>
      <point x="50.667" y="143.224"/>
      <point x="99.257" y="38"/>
      <point x="226.667" y="38" type="curve" smooth="yes"/>
      <point x="277.712" y="38"/>
      <point x="327.018" y="57.092"/>
      <point x="356.667" y="100" type="curve"/>
      <point x="357.031" y="45.081" type="line"/>
      <point x="357.031" y="-24.273"/>
      <point x="337.563" y="-79"/>
      <point x="258" y="-79" type="curve" smooth="yes"/>
      <point x="218.224" y="-79"/>
      <point x="170.31" y="-61.812"/>
      <point x="163" y="-17.333" type="curve"/>
    </contour>
    <contour>
      <point x="252" y="134.333" type="curve" smooth="yes"/>
      <point x="177.378" y="134.333"/>
      <point x="159" y="197.232"/>
      <point x="159" y="260" type="curve" smooth="yes"/>
      <point x="159" y="313.333" type="line" smooth="yes"/>
      <point x="159" y="378.192"/>
      <point x="179.44" y="439.667"/>
      <point x="255.333" y="439.667" type="curve" smooth="yes"/>
      <point x="328.946" y="439.667"/>
      <point x="355.333" y="375.694"/>
      <point x="355.333" y="311.667" type="curve" smooth="yes"/>
      <point x="355.333" y="260.333" type="line" smooth="yes"/>
      <point x="355.333" y="192.7"/>
      <point x="327.935" y="134.333"/>
    </contour>
  </outline>
</glyph>
<glyph name="h" format="2">
  <advance width="533"/>
  <unicode hex="0068"/>
  <anchor x="280.667" y="775" name="top"/>
  <anchor x="280" y="-86" name="bottom"/>
  <outline>
    <contour>
      <point x="62.333" y="0" type="line"/>
      <point x="170" y="0" type="line"/>
      <point x="170" y="331.667" type="line" smooth="yes"/>
      <point x="170" y="391.659"/>
      <point x="204.094" y="438.333"/>
      <point x="267.333" y="438.333" type="curve" smooth="yes"/>
      <point x="333.204" y="438.333"/>
      <point x="362.667" y="393.292"/>
      <point x="362.667" y="331.667" type="curve" smooth="yes"/>
      <point x="362.667" y="0" type="line"/>
      <point x="470.667" y="0" type="line"/>
      <point x="470.667" y="345" type="line" smooth="yes"/>
      <point x="470.667" y="454.747"/>
      <point x="414.764" y="534.333"/>
      <point x="298.667" y="534.333" type="curve" smooth="yes"/>
      <point x="249.22" y="534.333"/>
      <point x="201.21" y="514.239"/>
      <point x="170" y="475.333" type="curve"/>
      <point x="170" y="707" type="line"/>
      <point x="62.333" y="707" type="line"/>
    </contour>
  </outline>
</glyph>
<glyph name="k" format="2">
  <advance width="523"/>
  <unicode hex="006B"/>
  <anchor x="230.333" y="773" name="top"/>
  <anchor x="255" y="-86" name="bottom"/>
  <outline>
    <contour>
      <point x="62.333" y="0" type="line"/>
      <point x="170" y="0" type="line"/>
      <point x="170" y="707" type="line"/>
      <point x="62.333" y="707" type="line"/>
    </contour>
    <contour>
      <point x="160.154" y="145.408" type="line"/>
      <point x="489" y="527.667" type="line"/>
      <point x="360.333" y="527.667" type="line"/>
      <point x="160.227" y="276.298" type="line"/>
    </contour>
    <contour>
      <point x="377" y="0" type="line"/>
      <point x="507.333" y="0" type="line"/>
      <point x="304.027" y="334.796" type="line"/>
      <point x="233.048" y="251.671" type="line"/>
    </contour>
  </outline>
</glyph>
<glyph name="l" format="2">
  <advance width="294"/>
  <unicode hex="006C"/>
  <anchor x="116.333" y="775" name="top"/>
  <anchor x="166" y="-86" name="bottom"/>
  <anchor x="288" y="397" name="dot"/>
  <outline>
    <contour>
      <point x="268" y="0" type="line"/>
      <point x="268" y="94.482" type="line"/>
      <point x="248.589" y="94.482" type="line" smooth="yes"/>
      <point x="202.317" y="94.482"/>
      <point x="170" y="107.097"/>
      <point x="170" y="160" type="curve" smooth="yes"/>
      <point x="170" y="707" type="line"/>
      <point x="62.333" y="707" type="line"/>
      <point x="62.333" y="153.333" type="line" smooth="yes"/>
      <point x="62.333" y="58.273"/>
      <point x="116.934" y="0"/>
      <point x="213" y="0" type="curve" smooth="yes"/>
    </contour>
  </outline>
</glyph>
<glyph name="m" format="2">
  <advance width="833"/>
  <unicode hex="006D"/>
  <anchor x="418" y="596.667" name="top"/>
  <anchor x="236" y="-86" name="bottom"/>
  <outline>
    <contour>
      <point x="62.333" y="0" type="line"/>
      <point x="170" y="0" type="line"/>
      <point x="170" y="331.667" type="line" smooth="yes"/>
      <point x="170" y="391.846"/>
      <point x="203.893" y="438.333"/>
      <point x="267.333" y="438.333" type="curve" smooth="yes"/>
      <point x="332.613" y="438.333"/>
      <point x="362.333" y="392.66"/>
      <point x="362.333" y="331.667" type="curve" smooth="yes"/>
      <point x="362.333" y="0" type="line"/>
      <point x="470.667" y="0" type="line"/>
      <point x="470.667" y="334.667" type="line" smooth="yes"/>
      <point x="470.667" y="395.352"/>
      <point x="505.047" y="438.333"/>
      <point x="568" y="438.333" type="curve" smooth="yes"/>
      <point x="633.109" y="438.333"/>
      <point x="662.667" y="392.377"/>
      <point x="662.667" y="331.667" type="curve" smooth="yes"/>
      <point x="662.667" y="0" type="line"/>
      <point x="770.667" y="0" type="line"/>
      <point x="770.667" y="345" type="line" smooth="yes"/>
      <point x="770.667" y="457.296"/>
      <point x="708.626" y="534.333"/>
      <point x="592.333" y="534.333" type="curve" smooth="yes"/>
      <point x="530.523" y="534.333"/>
      <point x="477.166" y="509.029"/>
      <point x="439" y="460.667" type="curve"/>
      <point x="407.464" y="511.424"/>
      <point x="357.573" y="534.333"/>
      <point x="298.667" y="534.333" type="curve" smooth="yes"/>
      <point x="249.046" y="534.333"/>
      <point x="199.393" y="513.146"/>
      <point x="167.667" y="474.667" type="curve"/>
      <point x="167.667" y="527.667" type="line"/>
      <point x="62.333" y="527.667" type="line"/>
    </contour>
  </outline>
</glyph>
<glyph name="n" format="2">
  <advance width="533"/>
  <unicode hex="006E"/>
  <anchor x="267.333" y="596.667" name="top"/>
  <anchor x="267.333" y="-86" name="bottom"/>
  <anchor x="0" y="760" name="dot"/>
  <outline>
    <contour>
      <point x="62.333" y="0" type="line"/>
      <point x="170" y="0" type="line"/>
      <point x="170" y="331.667" type="line" smooth="yes"/>
      <point x="170" y="391.14"/>
      <point x="204.659" y="438.333"/>
      <point x="267.333" y="438.333" type="curve" smooth="yes"/>
      <point x="331.487" y="438.333"/>
      <point x="362.667" y="391.769"/>
      <point x="362.667" y="331.667" type="curve" smooth="yes"/>
      <point x="362.667" y="0" type="line"/>
      <point x="470.667" y="0" type="line"/>
      <point x="470.667" y="345" type="line" smooth="yes"/>
      <point x="470.667" y="453.789"/>
      <point x="413.696" y="534.333"/>
      <point x="298.667" y="534.333" type="curve" smooth="yes"/>
      <point x="248.721" y="534.333"/>
      <point x="199.118" y="514.174"/>
      <point x="167.667" y="474.667" type="curve"/>
      <point x="167.667" y="527.667" type="line"/>
      <point x="62.333" y="527.667" type="line"/>
    </contour>
  </outline>
</glyph>
<glyph name="p" format="2">
  <advance width="525"/>
  <unicode hex="0070"/>
  <anchor x="278" y="596.667" name="top"/>
  <anchor x="236" y="-86" name="bottom"/>
  <outline>
    <contour>
      <point x="62.333" y="-158.667" type="line"/>
      <point x="170" y="-158.667" type="line"/>
      <point x="170" y="55" type="line"/>
      <point x="200.667" y="12"/>
      <point x="247.333" y="-6"/>
      <point x="299" y="-6" type="curve" smooth="yes"/>
      <point x="427.333" y="-6"/>
      <point x="474.667" y="98"/>
      <point x="474.667" y="211.667" type="curve" smooth="yes"/>
      <point x="474.667" y="317" type="line" smooth="yes"/>
      <point x="474.667" y="433.667"/>
      <point x="424.667" y="534.333"/>
      <point x="294.667" y="534.333" type="curve" smooth="yes"/>
      <point x="241.667" y="534.333"/>
      <point x="197.333" y="510.667"/>
      <point x="168" y="467.333" type="curve"/>
      <point x="168" y="527.667" type="line"/>
      <point x="62.333" y="527.667" type="line"/>
    </contour>
    <contour>
      <point x="273.333" y="89.333" type="curve" smooth="yes"/>
      <point x="198.667" y="89.333"/>
      <point x="169.333" y="149.667"/>
      <point x="169.333" y="216" type="curve" smooth="yes"/>
      <point x="169.333" y="310.333" type="line" smooth="yes"/>
      <point x="169.333" y="374.667"/>
      <point x="195.667" y="438.333"/>
      <point x="270" y="438.333" type="curve" smooth="yes"/>
      <point x="347" y="438.333"/>
      <point x="366.667" y="377.667"/>
      <point x="366.667" y="312" type="curve" smooth="yes"/>
      <point x="366.667" y="215.667" type="line" smooth="yes"/>
      <point x="366.667" y="152"/>
      <point x="349" y="89.333"/>
    </contour>
  </outline>
</glyph>
<glyph name="q" format="2">
  <advance width="525"/>
  <unicode hex="0071"/>
  <anchor x="250" y="596.667" name="top"/>
  <anchor x="236" y="-86" name="bottom"/>
  <outline>
    <contour>
      <point x="355.333" y="-158.667" type="line"/>
      <point x="462.667" y="-158.667" type="line"/>
      <point x="462.667" y="527.667" type="line"/>
      <point x="356.667" y="527.667" type="line"/>
      <point x="356.667" y="467.333" type="line"/>
      <point x="327.174" y="511.714"/>
      <point x="283.657" y="534.333"/>
      <point x="230.333" y="534.333" type="curve" smooth="yes"/>
      <point x="100.153" y="534.333"/>
      <point x="50.667" y="432.947"/>
      <point x="50.667" y="317" type="curve" smooth="yes"/>
      <point x="50.667" y="211.667" type="line" smooth="yes"/>
      <point x="50.667" y="98.651"/>
      <point x="98.081" y="-6"/>
      <point x="226.667" y="-6" type="curve" smooth="yes"/>
      <point x="278.949" y="-6"/>
      <point x="324.452" y="11.65"/>
      <point x="355.333" y="55" type="curve"/>
    </contour>
    <contour>
      <point x="252" y="89.333" type="curve" smooth="yes"/>
      <point x="177.06" y="89.333"/>
      <point x="159" y="152.023"/>
      <point x="159" y="215.667" type="curve" smooth="yes"/>
      <point x="159" y="312" type="line" smooth="yes"/>
      <point x="159" y="377.956"/>
      <point x="179.06" y="438.333"/>
      <point x="255.333" y="438.333" type="curve" smooth="yes"/>
      <point x="330.084" y="438.333"/>
      <point x="355.333" y="375.177"/>
      <point x="355.333" y="310.333" type="curve" smooth="yes"/>
      <point x="355.333" y="216" type="line" smooth="yes"/>
      <point x="355.333" y="148.365"/>
      <point x="328.333" y="89.333"/>
    </contour>
  </outline>
</glyph>
<glyph name="r" format="2">
  <advance width="359"/>
  <unicode hex="0072"/>
  <anchor x="200" y="596.667" name="top"/>
  <anchor x="200" y="-86" name="bottom"/>
  <outline>
    <contour>
      <point x="62.333" y="0" type="line"/>
      <point x="170" y="0" type="line"/>
      <point x="170" y="322.333" type="line" smooth="yes"/>
      <point x="170" y="390.178"/>
      <point x="207.089" y="442"/>
      <point x="278.667" y="442" type="curve" smooth="yes"/>
      <point x="297" y="442"/>
      <point x="317" y="439"/>
      <point x="338.333" y="432" type="curve"/>
      <point x="338.333" y="534.333" type="line"/>
      <point x="325.667" y="537"/>
      <point x="312.333" y="538"/>
      <point x="297.333" y="538" type="curve" smooth="yes"/>
      <point x="243.986" y="538"/>
      <point x="194.239" y="515.823"/>
      <point x="167.667" y="468" type="curve"/>
      <point x="167.667" y="527.667" type="line"/>
      <point x="62.333" y="527.667" type="line"/>
    </contour>
  </outline>
</glyph>
<glyph name="s" format="2">
  <advance width="481"/>
  <unicode hex="0073"/>
  <anchor x="241.667" y="596.667" name="top"/>
  <anchor x="219" y="0" name="b.cedilla"/>
  <anchor x="242.333" y="-86" name="bottom"/>
  <outline>
    <contour>
      <point x="40.675" y="158" type="line"/>
      <point x="40.675" y="153.155" type="line" smooth="yes"/>
      <point x="40.675" y="41.206"/>
      <point x="136.202" y="-6"/>
      <point x="238" y="-6" type="curve" smooth="yes"/>
      <point x="342.774" y="-6"/>
      <point x="445.667" y="40.132"/>
      <point x="445.667" y="159.333" type="curve" smooth="yes"/>
      <point x="445.667" y="255.063"/>
      <point x="380.423" y="289.759"/>
      <point x="262.915" y="311.464" type="curve" smooth="yes"/>
      <point x="228.944" y="317.733" type="line" smooth="yes"/>
      <point x="187.473" y="325.349"/>
      <point x="150" y="339.745"/>
      <point x="150" y="382.333" type="curve" smooth="yes"/>
      <point x="150" y="433.434"/>
      <point x="199.049" y="449"/>
      <point x="241.667" y="449" type="curve" smooth="yes"/>
      <point x="284.745" y="449"/>
      <point x="336.264" y="432.91"/>
      <point x="336.264" y="382.679" type="curve" smooth="yes"/>
      <point x="336.264" y="378" type="line"/>
      <point x="436.987" y="378" type="line"/>
      <point x="436.987" y="382.569" type="line" smooth="yes"/>
      <point x="436.987" y="489.727"/>
      <point x="336.583" y="534.667"/>
      <point x="241" y="534.667" type="curve" smooth="yes"/>
      <point x="143.395" y="534.667"/>
      <point x="48" y="484.014"/>
      <point x="48" y="375.333" type="curve" smooth="yes"/>
      <point x="48" y="284.554"/>
      <point x="115.106" y="244.985"/>
      <point x="224.111" y="225.159" type="curve" smooth="yes"/>
      <point x="260.182" y="218.609" type="line" smooth="yes"/>
      <point x="303.594" y="210.752"/>
      <point x="342.667" y="196.603"/>
      <point x="342.667" y="152" type="curve" smooth="yes"/>
      <point x="342.667" y="96.939"/>
      <point x="286.691" y="81.667"/>
      <point x="241.667" y="81.667" type="curve" smooth="yes"/>
      <point x="195.904" y="81.667"/>
      <point x="142.739" y="100.88"/>
      <point x="142.739" y="153.155" type="curve" smooth="yes"/>
      <point x="142.739" y="158" type="line"/>
    </contour>
  </outline>
</glyph>
<glyph name="t" format="2">
  <advance width="356"/>
  <unicode hex="0074"/>
  <anchor x="206.667" y="-86" name="bottom"/>
  <anchor x="158.333" y="775" name="top"/>
  <outline>
    <contour>
      <point x="309.333" y="0" type="line"/>
      <point x="309.333" y="92.305" type="line"/>
      <point x="297.223" y="92.305" type="line" smooth="yes"/>
      <point x="252.866" y="92.305"/>
      <point x="212" y="100.459"/>
      <point x="212" y="152" type="curve" smooth="yes"/>
      <point x="212" y="450" type="line"/>
      <point x="319.667" y="450" type="line"/>
      <point x="319.667" y="527.667" type="line"/>
      <point x="212" y="527.667" type="line"/>
      <point x="212" y="677.667" type="line"/>
      <point x="104.667" y="637.333" type="line"/>
      <point x="104.667" y="527.667" type="line"/>
      <point x="29" y="527.667" type="line"/>
      <point x="29" y="450" type="line"/>
      <point x="104.667" y="450" type="line"/>
      <point x="104.667" y="145.667" type="line" smooth="yes"/>
      <point x="104.667" y="55.205"/>
      <point x="162.113" y="0"/>
      <point x="252" y="0" type="curve" smooth="yes"/>
    </contour>
  </outline>
</glyph>
<glyph name="u" format="2">
  <advance width="533"/>
  <unicode hex="0075"/>
  <anchor x="266.667" y="596.667" name="top"/>
  <anchor x="266.667" y="-86" name="bottom"/>
  <anchor x="317.667" y="0" name="b.cedilla"/>
  <outline>
    <contour>
      <point x="62.333" y="527.667" type="line"/>
      <point x="62.333" y="206.667" type="line" smooth="yes"/>
      <point x="62.333" y="72.276"/>
      <point x="128.037" y="-6"/>
      <point x="266" y="-6" type="curve" smooth="yes"/>
      <point x="404.87" y="-6"/>
      <point x="470.667" y="71.015"/>
      <point x="470.667" y="206.667" type="curve" smooth="yes"/>
      <point x="470.667" y="527.667" type="line"/>
      <point x="362.667" y="527.667" type="line"/>
      <point x="362.667" y="214" type="line" smooth="yes"/>
      <point x="362.667" y="145.604"/>
      <point x="346.276" y="89.333"/>
      <point x="266.333" y="89.333" type="curve" smooth="yes"/>
      <point x="187.968" y="89.333"/>
      <point x="170" y="146.818"/>
      <point x="170" y="214" type="curve" smooth="yes"/>
      <point x="170" y="527.667" type="line"/>
    </contour>
  </outline>
</glyph>
<glyph name="y" format="2">
  <advance width="478"/>
  <unicode hex="0079"/>
  <anchor x="234" y="596.667" name="top"/>
  <anchor x="367" y="-110" name="dot"/>
  <anchor x="234" y="578" name="t.ring"/>
  <outline>
    <contour>
      <point x="75" y="-157.333" type="line"/>
      <point x="79.557" y="-157.341" type="line"/>
      <point x="172.76" y="-157.341"/>
      <point x="233.65" y="-146.329"/>
      <point x="267.333" y="-49.333" type="curve" smooth="yes"/>
      <point x="467.667" y="527.667" type="line"/>
      <point x="356.667" y="527.667" type="line"/>
      <point x="240.667" y="167.333" type="line"/>
      <point x="125.333" y="527.667" type="line"/>
      <point x="10.667" y="527.667" type="line"/>
      <point x="190.333" y="11" type="line"/>
      <point x="186.308" y="-2.591" type="line" smooth="yes"/>
      <point x="173.011" y="-47.511"/>
      <point x="151.804" y="-60.219"/>
      <point x="98.671" y="-60.219" type="curve"/>
      <point x="75" y="-60" type="line"/>
    </contour>
  </outline>
</glyph>
<glyph name="braceleft" format="2">
  <advance width="351"/>
  <unicode hex="007B"/>
  <outline>
    <contour>
      <point x="305.667" y="-86" type="line"/>
      <point x="305.667" y="2.545" type="line"/>
      <point x="284.586" y="2.545" type="line" smooth="yes"/>
      <point x="253.324" y="2.545"/>
      <point x="225.333" y="11.638"/>
      <point x="225.333" y="50.333" type="curve" smooth="yes"/>
      <point x="225.333" y="211" type="line" smooth="yes"/>
      <point x="225.333" y="270.668"/>
      <point x="217.861" y="315.555"/>
      <point x="156" y="338" type="curve"/>
      <point x="218.361" y="359.028"/>
      <point x="225.333" y="406.381"/>
      <point x="225.333" y="465.333" type="curve" smooth="yes"/>
      <point x="225.333" y="621" type="line" smooth="yes"/>
      <point x="225.333" y="657.55"/>
      <point x="251.319" y="668.403"/>
      <point x="284.506" y="668.403" type="curve" smooth="yes"/>
      <point x="305.667" y="668.403" type="line"/>
      <point x="305.667" y="758" type="line"/>
      <point x="240.667" y="758" type="line" smooth="yes"/>
      <point x="161.838" y="758"/>
      <point x="121" y="715.351"/>
      <point x="121" y="637" type="curve" smooth="yes"/>
      <point x="121" y="467.667" type="line" smooth="yes"/>
      <point x="121" y="413.174"/>
      <point x="101.952" y="386.013"/>
      <point x="45" y="385.333" type="curve"/>
      <point x="45" y="291" type="line"/>
      <point x="101.952" y="290.32"/>
      <point x="121" y="263.16"/>
      <point x="121" y="208.667" type="curve" smooth="yes"/>
      <point x="121" y="35.667" type="line" smooth="yes"/>
      <point x="121" y="-43.021"/>
      <point x="161.254" y="-86"/>
      <point x="240.667" y="-86" type="curve" smooth="yes"/>
    </contour>
  </outline>
</glyph>
<glyph name="exclamdown" format="2">
  <advance width="251"/>
  <unicode hex="00A1"/>
  <outline>
    <contour>
      <point x="65" y="406.333" type="line"/>
      <point x="187" y="406.333" type="line"/>
      <point x="187" y="527.667" type="line"/>
      <point x="65" y="527.667" type="line"/>
    </contour>
    <contour>
      <point x="63.333" y="-158.667" type="line"/>
      <point x="188.667" y="-158.667" type="line"/>
      <point x="167.333" y="304" type="line"/>
      <point x="84.667" y="304" type="line"/>
    </contour>
  </outline>
</glyph>
<glyph name="cent" format="2">
  <advance width="545"/>
  <unicode hex="00A2"/>
  <outline>
    <contour>
      <point x="244" y="-102" type="line"/>
      <point x="304" y="-102" type="line"/>
      <point x="304" y="-3" type="line"/>
      <point x="405.161" y="11.066"/>
      <point x="465.667" y="78.531"/>
      <point x="465.667" y="177.667" type="curve" smooth="yes"/>
      <point x="465.667" y="183.667" type="line"/>
      <point x="362.317" y="183.667" type="line"/>
      <point x="362.317" y="180.496" type="line" smooth="yes"/>
      <point x="362.317" y="121.821"/>
      <point x="326.651" y="89.144"/>
      <point x="262.631" y="89.144" type="curve" smooth="yes"/>
      <point x="192.561" y="89.144"/>
      <point x="158" y="130.934"/>
      <point x="158" y="215.667" type="curve" smooth="yes"/>
      <point x="158" y="312.333" type="line" smooth="yes"/>
      <point x="158" y="395.561"/>
      <point x="193.662" y="438.493"/>
      <point x="262.812" y="438.493" type="curve" smooth="yes"/>
      <point x="326.355" y="438.493"/>
      <point x="362.289" y="405.557"/>
      <point x="362.289" y="347.376" type="curve" smooth="yes"/>
      <point x="362.289" y="342" type="line"/>
      <point x="465.631" y="342" type="line"/>
      <point x="465.631" y="348.771" type="line" smooth="yes"/>
      <point x="465.631" y="453.329"/>
      <point x="408.851" y="517.279"/>
      <point x="304" y="531.667" type="curve"/>
      <point x="304" y="640.667" type="line"/>
      <point x="244" y="640.667" type="line"/>
      <point x="244" y="534" type="line"/>
      <point x="118.979" y="529.098"/>
      <point x="50.667" y="451.927"/>
      <point x="50.667" y="315" type="curve" smooth="yes"/>
      <point x="50.667" y="213.667" type="line" smooth="yes"/>
      <point x="50.667" y="76.67"/>
      <point x="118.576" y="-0.065"/>
      <point x="244" y="-5" type="curve"/>
    </contour>
  </outline>
</glyph>
<glyph name="sterling" format="2">
  <advance width="467"/>
  <unicode hex="00A3"/>
  <outline>
    <contour>
      <point x="47.667" y="0" type="line"/>
      <point x="439" y="0" type="line"/>
      <point x="439" y="100.667" type="line"/>
      <point x="175" y="100.667" type="line"/>
      <point x="197.9" y="125.65"/>
      <point x="207.883" y="160.426"/>
      <point x="207.883" y="215.292" type="curve" smooth="yes"/>
      <point x="207.883" y="287.667" type="line"/>
      <point x="343.667" y="287.667" type="line"/>
      <point x="343.667" y="387.667" type="line"/>
      <point x="207.667" y="387.667" type="line"/>
      <point x="207.667" y="544" type="line" smooth="yes"/>
      <point x="207.667" y="590.16"/>
      <point x="230.696" y="617.667"/>
      <point x="269.333" y="617.667" type="curve" smooth="yes"/>
      <point x="306.452" y="617.667"/>
      <point x="329.734" y="592.195"/>
      <point x="329.667" y="551.667" type="curve"/>
      <point x="437.667" y="551.667" type="line"/>
      <point x="437.691" y="654.669"/>
      <point x="373.908" y="717"/>
      <point x="268.333" y="717" type="curve" smooth="yes"/>
      <point x="157.071" y="717"/>
      <point x="93" y="648.474"/>
      <point x="93" y="529.667" type="curve" smooth="yes"/>
      <point x="93" y="387.667" type="line"/>
      <point x="28.667" y="387.667" type="line"/>
      <point x="28.667" y="287.667" type="line"/>
      <point x="93" y="287.667" type="line"/>
      <point x="93" y="193.667" type="line" smooth="yes"/>
      <point x="93" y="138.626"/>
      <point x="81.317" y="113.147"/>
      <point x="47.667" y="95" type="curve"/>
    </contour>
  </outline>
</glyph>
<glyph name="currency" format="2">
  <advance width="615"/>
  <unicode hex="00A4"/>
  <outline>
    <contour>
      <point x="128" y="84" type="line"/>
      <point x="196.667" y="152" type="line"/>
      <point x="229.712" y="130.756"/>
      <point x="267.841" y="121"/>
      <point x="307" y="121" type="curve" smooth="yes"/>
      <point x="346.303" y="121"/>
      <point x="384.812" y="130.675"/>
      <point x="418" y="152" type="curve"/>
      <point x="487" y="83" type="line"/>
      <point x="553" y="149.333" type="line"/>
      <point x="483.333" y="218" type="line"/>
      <point x="504.146" y="250.803"/>
      <point x="513.667" y="288.944"/>
      <point x="513.667" y="327.667" type="curve" smooth="yes"/>
      <point x="513.667" y="366.144"/>
      <point x="502.512" y="403.524"/>
      <point x="482.667" y="436.333" type="curve"/>
      <point x="552" y="506" type="line"/>
      <point x="486.667" y="571.333" type="line"/>
      <point x="417" y="503" type="line"/>
      <point x="383.909" y="523.096"/>
      <point x="345.693" y="533"/>
      <point x="307" y="533" type="curve" smooth="yes"/>
      <point x="268.461" y="533"/>
      <point x="230.606" y="523.016"/>
      <point x="197.667" y="503" type="curve"/>
      <point x="128" y="571.333" type="line"/>
      <point x="62.333" y="506" type="line"/>
      <point x="132" y="436" type="line"/>
      <point x="111.877" y="403.476"/>
      <point x="101.333" y="365.963"/>
      <point x="101.333" y="327.667" type="curve" smooth="yes"/>
      <point x="101.333" y="289.323"/>
      <point x="110.449" y="251.271"/>
      <point x="131" y="218.667" type="curve"/>
      <point x="62.333" y="150.333" type="line"/>
    </contour>
    <contour>
      <point x="307" y="208.667" type="curve" smooth="yes"/>
      <point x="238.495" y="208.667"/>
      <point x="192.333" y="260.725"/>
      <point x="192.333" y="327.667" type="curve" smooth="yes"/>
      <point x="192.333" y="393.929"/>
      <point x="239.597" y="445.333"/>
      <point x="307" y="445.333" type="curve" smooth="yes"/>
      <point x="374.274" y="445.333"/>
      <point x="423.333" y="394.562"/>
      <point x="423.333" y="327.667" type="curve" smooth="yes"/>
      <point x="423.333" y="260.107"/>
      <point x="375.362" y="208.667"/>
    </contour>
  </outline>
</glyph>
<glyph name="section" format="2">
  <advance width="523"/>
  <unicode hex="00A7"/>
  <outline>
    <contour>
      <point x="81.667" y="1.333" type="line"/>
      <point x="81.637" y="-111.008"/>
      <point x="143.956" y="-172"/>
      <point x="258.667" y="-172" type="curve" smooth="yes"/>
      <point x="364.352" y="-172"/>
      <point x="436.333" y="-107.458"/>
      <point x="436.333" y="-12.667" type="curve" smooth="yes"/>
      <point x="436.333" y="56.268"/>
      <point x="414.169" y="97.413"/>
      <point x="362.667" y="124.667" type="curve"/>
      <point x="419.775" y="148.917"/>
      <point x="455.667" y="210.157"/>
      <point x="455.667" y="283.333" type="curve" smooth="yes"/>
      <point x="455.667" y="399.46"/>
      <point x="400.313" y="448.677"/>
      <point x="299.176" y="476.076" type="curve" smooth="yes"/>
      <point x="234.574" y="493.557"/>
      <point x="196" y="515.742"/>
      <point x="196" y="572" type="curve" smooth="yes"/>
      <point x="196" y="614.78"/>
      <point x="222.679" y="641.333"/>
      <point x="265.667" y="641.333" type="curve" smooth="yes"/>
      <point x="312.766" y="641.333"/>
      <point x="337.411" y="614.052"/>
      <point x="337.333" y="562" type="curve"/>
      <point x="437" y="562" type="line"/>
      <point x="437.027" y="671.393"/>
      <point x="375.132" y="732.333"/>
      <point x="264" y="732.333" type="curve" smooth="yes"/>
      <point x="160.696" y="732.333"/>
      <point x="90" y="667.468"/>
      <point x="90" y="572.667" type="curve" smooth="yes"/>
      <point x="90" y="509.506"/>
      <point x="112.796" y="467.482"/>
      <point x="161.333" y="441" type="curve"/>
      <point x="100.994" y="412.497"/>
      <point x="67.333" y="355.525"/>
      <point x="67.333" y="282" type="curve" smooth="yes"/>
      <point x="67.333" y="172.703"/>
      <point x="110.912" y="118.646"/>
      <point x="225.115" y="88.453" type="curve" smooth="yes"/>
      <point x="300.276" y="68.564"/>
      <point x="331" y="39.365"/>
      <point x="331" y="-10" type="curve" smooth="yes"/>
      <point x="331" y="-54.333"/>
      <point x="303.4" y="-80.667"/>
      <point x="257" y="-80.667" type="curve" smooth="yes"/>
      <point x="206.461" y="-80.667"/>
      <point x="181.924" y="-53.841"/>
      <point x="182" y="1.333" type="curve"/>
    </contour>
    <contour>
      <point x="262" y="183" type="curve" smooth="yes"/>
      <point x="205.39" y="183"/>
      <point x="173.333" y="219.033"/>
      <point x="173.333" y="282.667" type="curve" smooth="yes"/>
      <point x="173.333" y="345.517"/>
      <point x="206.086" y="382.333"/>
      <point x="262" y="382.333" type="curve" smooth="yes"/>
      <point x="316.541" y="382.333"/>
      <point x="349.333" y="344.901"/>
      <point x="349.333" y="282.667" type="curve" smooth="yes"/>
      <point x="349.333" y="220.885"/>
      <point x="316.138" y="183"/>
    </contour>
  </outline>
</glyph>
<glyph name="dieresis" format="2">
  <advance width="512"/>
  <unicode hex="00A8"/>
  <outline>
    <contour>
      <point x="111" y="598" type="line"/>
      <point x="210.333" y="598" type="line"/>
      <point x="210.333" y="706.667" type="line"/>
      <point x="111" y="706.667" type="line"/>
    </contour>
    <contour>
      <point x="300.667" y="598" type="line"/>
      <point x="400" y="598" type="line"/>
      <point x="400" y="706.667" type="line"/>
      <point x="300.667" y="706.667" type="line"/>
    </contour>
  </outline>
</glyph>
<glyph name="copyright" format="2">
  <advance width="851"/>
  <unicode hex="00A9"/>
  <outline>
    <contour>
      <point x="418.667" y="-9.333" type="curve" smooth="yes"/>
      <point x="630" y="-9.333"/>
      <point x="770.333" y="133.667"/>
      <point x="770.333" y="349.333" type="curve" smooth="yes"/>
      <point x="770.333" y="564.667"/>
      <point x="629.667" y="709"/>
      <point x="418.667" y="709" type="curve" smooth="yes"/>
      <point x="208.667" y="709"/>
      <point x="68" y="564.667"/>
      <point x="68" y="349.333" type="curve" smooth="yes"/>
      <point x="68" y="134.667"/>
      <point x="208.333" y="-9.333"/>
    </contour>
    <contour>
      <point x="418.667" y="61.333" type="curve" smooth="yes"/>
      <point x="248.667" y="61.333"/>
      <point x="142.667" y="172"/>
      <point x="142.667" y="349.333" type="curve" smooth="yes"/>
      <point x="142.667" y="527.333"/>
      <point x="248.667" y="638.667"/>
      <point x="418.667" y="638.667" type="curve" smooth="yes"/>
      <point x="589.333" y="638.667"/>
      <point x="695.667" y="527"/>
      <point x="695.667" y="349.333" type="curve" smooth="yes"/>
      <point x="695.667" y="171.667"/>
      <point x="589.333" y="61.333"/>
    </contour>
    <contour>
      <point x="494.667" y="292" type="line"/>
      <point x="494.667" y="288.667" type="line" smooth="yes"/>
      <point x="494.667" y="245.667"/>
      <point x="470" y="222.333"/>
      <point x="424" y="222.333" type="curve" smooth="yes"/>
      <point x="370" y="222.333"/>
      <point x="346" y="251"/>
      <point x="346" y="314.667" type="curve" smooth="yes"/>
      <point x="346" y="385.667" type="line" smooth="yes"/>
      <point x="346" y="448"/>
      <point x="371.333" y="478"/>
      <point x="424" y="478" type="curve" smooth="yes"/>
      <point x="468.333" y="478"/>
      <point x="494.667" y="453.667"/>
      <point x="494.667" y="412" type="curve" smooth="yes"/>
      <point x="494.667" y="407.333" type="line"/>
      <point x="571" y="407.333" type="line"/>
      <point x="571" y="413" type="line" smooth="yes"/>
      <point x="571" y="500.667"/>
      <point x="517.333" y="549.333"/>
      <point x="421.333" y="549.333" type="curve" smooth="yes"/>
      <point x="320.667" y="549.333"/>
      <point x="266.667" y="493"/>
      <point x="266.667" y="387.333" type="curve" smooth="yes"/>
      <point x="266.667" y="313" type="line" smooth="yes"/>
      <point x="266.667" y="207"/>
      <point x="319.667" y="152"/>
      <point x="421.333" y="152" type="curve" smooth="yes"/>
      <point x="514.333" y="152"/>
      <point x="571" y="203.667"/>
      <point x="571" y="287" type="curve" smooth="yes"/>
      <point x="571" y="292" type="line"/>
    </contour>
  </outline>
</glyph>
<glyph name="ordfeminine" format="2">
  <advance width="353"/>
  <unicode hex="00AA"/>
  <outline>
    <contour>
      <point x="219.333" y="440" type="line"/>
      <point x="299.333" y="440" type="line"/>
      <point x="299.333" y="651.333" type="line" smooth="yes"/>
      <point x="299.333" y="726.333"/>
      <point x="253.333" y="766"/>
      <point x="168.333" y="766" type="curve" smooth="yes"/>
      <point x="93" y="766"/>
      <point x="45.333" y="728"/>
      <point x="45.333" y="668" type="curve" smooth="yes"/>
      <point x="45.333" y="664.667" type="line"/>
      <point x="122.333" y="664.667" type="line"/>
      <point x="122.333" y="667.667" type="line" smooth="yes"/>
      <point x="122.333" y="689.333"/>
      <point x="139.667" y="702.667"/>
      <point x="167.667" y="702.667" type="curve" smooth="yes"/>
      <point x="199.667" y="702.667"/>
      <point x="216.667" y="686.333"/>
      <point x="216.667" y="655.667" type="curve" smooth="yes"/>
      <point x="216.667" y="632" type="line"/>
      <point x="184.333" y="632" type="line" smooth="yes"/>
      <point x="81.667" y="632"/>
      <point x="36.667" y="603.333"/>
      <point x="36.667" y="538.667" type="curve" smooth="yes"/>
      <point x="36.667" y="474.667"/>
      <point x="76.667" y="436"/>
      <point x="142.667" y="436" type="curve" smooth="yes"/>
      <point x="175.333" y="436"/>
      <point x="196.333" y="444.667"/>
      <point x="219.333" y="468" type="curve"/>
    </contour>
    <contour>
      <point x="216.667" y="575.333" type="line"/>
      <point x="216.667" y="555.667" type="line" smooth="yes"/>
      <point x="216.667" y="520"/>
      <point x="199.667" y="504"/>
      <point x="162" y="504" type="curve" smooth="yes"/>
      <point x="132.667" y="504"/>
      <point x="116.333" y="517.333"/>
      <point x="116.333" y="541" type="curve" smooth="yes"/>
      <point x="116.333" y="563.333"/>
      <point x="132" y="575.333"/>
      <point x="163" y="575.333" type="curve" smooth="yes"/>
    </contour>
  </outline>
</glyph>
<glyph name="guillemotleft" format="2">
  <advance width="521"/>
  <unicode hex="00AB"/>
  <outline>
    <contour>
      <point x="241.667" y="48" type="line"/>
      <point x="241.667" y="165.667" type="line"/>
      <point x="138.667" y="270" type="line"/>
      <point x="241.667" y="375.333" type="line"/>
      <point x="241.667" y="493" type="line"/>
      <point x="20.667" y="270" type="line"/>
    </contour>
    <contour>
      <point x="459" y="48" type="line"/>
      <point x="459" y="165.667" type="line"/>
      <point x="355" y="270" type="line"/>
      <point x="459" y="375.333" type="line"/>
      <point x="459" y="493" type="line"/>
      <point x="237.667" y="270" type="line"/>
    </contour>
  </outline>
</glyph>
<glyph name="registered" format="2">
  <advance width="506"/>
  <unicode hex="00AE"/>
  <outline>
    <contour>
      <point x="252.667" y="314.333" type="curve" smooth="yes"/>
      <point x="363.39" y="314.333"/>
      <point x="446" y="398.511"/>
      <point x="446" y="511.333" type="curve" smooth="yes"/>
      <point x="446" y="623.165"/>
      <point x="362.978" y="707.333"/>
      <point x="252.667" y="707.333" type="curve" smooth="yes"/>
      <point x="143.785" y="707.333"/>
      <point x="60" y="622.1"/>
      <point x="60" y="511.333" type="curve" smooth="yes"/>
      <point x="60" y="399.625"/>
      <point x="143.416" y="314.333"/>
    </contour>
    <contour>
      <point x="252.667" y="352.333" type="curve" smooth="yes"/>
      <point x="163.078" y="352.333"/>
      <point x="100.333" y="417.822"/>
      <point x="100.333" y="511.333" type="curve" smooth="yes"/>
      <point x="100.333" y="604.818"/>
      <point x="162.534" y="669.333"/>
      <point x="252.667" y="669.333" type="curve" smooth="yes"/>
      <point x="342.423" y="669.333"/>
      <point x="405.333" y="604.23"/>
      <point x="405.333" y="511.333" type="curve" smooth="yes"/>
      <point x="405.333" y="417.694"/>
      <point x="342.57" y="352.333"/>
    </contour>
    <contour>
      <point x="176.333" y="403" type="line"/>
      <point x="224" y="403" type="line"/>
      <point x="224" y="486.667" type="line"/>
      <point x="255" y="486.667" type="line"/>
      <point x="294.667" y="403" type="line"/>
      <point x="346" y="403" type="line"/>
      <point x="302" y="494" type="line"/>
      <point x="327.82" y="505.506"/>
      <point x="340.667" y="525.678"/>
      <point x="340.667" y="554.667" type="curve" smooth="yes"/>
      <point x="340.667" y="597.387"/>
      <point x="313.02" y="621.667"/>
      <point x="264.333" y="621.667" type="curve" smooth="yes"/>
      <point x="176.333" y="621.667" type="line"/>
    </contour>
    <contour>
      <point x="224" y="527.333" type="line"/>
      <point x="224" y="580.667" type="line"/>
      <point x="262" y="580.667" type="line" smooth="yes"/>
      <point x="282.759" y="580.667"/>
      <point x="293.667" y="571.483"/>
      <point x="293.667" y="554" type="curve" smooth="yes"/>
      <point x="293.667" y="536.517"/>
      <point x="282.759" y="527.333"/>
      <point x="262" y="527.333" type="curve" smooth="yes"/>
    </contour>
  </outline>
</glyph>
<glyph name="threesuperior" format="2">
  <advance width="341"/>
  <unicode hex="00B3"/>
  <outline>
    <contour>
      <point x="38.685" y="554" type="line"/>
      <point x="38.685" y="549.625" type="line" smooth="yes"/>
      <point x="38.685" y="464.591"/>
      <point x="82.491" y="426.333"/>
      <point x="169.333" y="426.333" type="curve" smooth="yes"/>
      <point x="244.267" y="426.333"/>
      <point x="299.897" y="474.957"/>
      <point x="299.897" y="551.667" type="curve" smooth="yes"/>
      <point x="299.897" y="562.75" type="line" smooth="yes"/>
      <point x="299.897" y="604.022"/>
      <point x="287.039" y="642.969"/>
      <point x="244.333" y="660.333" type="curve"/>
      <point x="276.214" y="677.941"/>
      <point x="293.229" y="708.076"/>
      <point x="293.229" y="744.333" type="curve" smooth="yes"/>
      <point x="293.229" y="753.423" type="line" smooth="yes"/>
      <point x="293.229" y="828.114"/>
      <point x="245.534" y="868.333"/>
      <point x="168" y="868.333" type="curve" smooth="yes"/>
      <point x="94.28" y="868.333"/>
      <point x="40.667" y="828.821"/>
      <point x="40.667" y="751.333" type="curve" smooth="yes"/>
      <point x="40.667" y="740.667" type="line"/>
      <point x="124.02" y="740.667" type="line"/>
      <point x="124.02" y="744.774" type="line" smooth="yes"/>
      <point x="124.02" y="772.306"/>
      <point x="131.502" y="790.667"/>
      <point x="164.667" y="790.667" type="curve" smooth="yes"/>
      <point x="191.964" y="790.667"/>
      <point x="203.239" y="770.719"/>
      <point x="203.239" y="745.667" type="curve" smooth="yes"/>
      <point x="203.239" y="737.706" type="line" smooth="yes"/>
      <point x="203.239" y="698.46"/>
      <point x="184.085" y="691.711"/>
      <point x="149.497" y="691.711" type="curve" smooth="yes"/>
      <point x="138.333" y="691.711" type="line"/>
      <point x="138.333" y="614.572" type="line"/>
      <point x="149.062" y="614.572" type="line" smooth="yes"/>
      <point x="184.358" y="614.572"/>
      <point x="210.259" y="603.772"/>
      <point x="210.259" y="562" type="curve" smooth="yes"/>
      <point x="210.259" y="554.506" type="line" smooth="yes"/>
      <point x="210.259" y="527.195"/>
      <point x="200.791" y="503"/>
      <point x="167" y="503" type="curve" smooth="yes"/>
      <point x="132.994" y="503"/>
      <point x="122.367" y="519.991"/>
      <point x="122.367" y="549.133" type="curve" smooth="yes"/>
      <point x="122.367" y="554" type="line"/>
    </contour>
  </outline>
</glyph>
<glyph name="mu" format="2">
  <advance width="530"/>
  <unicode hex="00B5"/>
  <outline>
    <contour>
      <point x="62.333" y="-158.667" type="line"/>
      <point x="169.333" y="-158.667" type="line"/>
      <point x="169.333" y="17.333" type="line"/>
      <point x="190.232" y="1.524"/>
      <point x="216.974" y="-6.667"/>
      <point x="247.667" y="-6.667" type="curve" smooth="yes"/>
      <point x="296.334" y="-6.667"/>
      <point x="335.262" y="13.365"/>
      <point x="362.333" y="52.333" type="curve"/>
      <point x="362.333" y="0" type="line"/>
      <point x="468.333" y="0" type="line"/>
      <point x="468.333" y="527.667" type="line"/>
      <point x="360" y="527.667" type="line"/>
      <point x="360" y="194.667" type="line" smooth="yes"/>
      <point x="360" y="130.919"/>
      <point x="321.774" y="89"/>
      <point x="263.667" y="89" type="curve" smooth="yes"/>
      <point x="205.743" y="89"/>
      <point x="170" y="129.336"/>
      <point x="170" y="194.667" type="curve" smooth="yes"/>
      <point x="170" y="527.667" type="line"/>
      <point x="62.333" y="527.667" type="line"/>
    </contour>
  </outline>
</glyph>
<glyph name="paragraph" format="2">
  <advance width="648"/>
  <unicode hex="00B6"/>
  <outline>
    <contour>
      <point x="266" y="-158.667" type="line"/>
      <point x="364.333" y="-158.667" type="line"/>
      <point x="364.333" y="616" type="line"/>
      <point x="451.333" y="616" type="line"/>
      <point x="451.333" y="-158.667" type="line"/>
      <point x="547" y="-158.667" type="line"/>
      <point x="547" y="707" type="line"/>
      <point x="296.667" y="707" type="line" smooth="yes"/>
      <point x="161.11" y="707"/>
      <point x="67.333" y="616.769"/>
      <point x="67.333" y="486.333" type="curve" smooth="yes"/>
      <point x="67.333" y="363.83"/>
      <point x="147.985" y="274.25"/>
      <point x="266" y="265.667" type="curve"/>
    </contour>
  </outline>
</glyph>
<glyph name="ordmasculine" format="2">
  <advance width="354"/>
  <unicode hex="00BA"/>
  <outline>
    <contour>
      <point x="43.333" y="571.333" type="line" smooth="yes"/>
      <point x="43.333" y="483.807"/>
      <point x="90.798" y="436"/>
      <point x="177.667" y="436" type="curve" smooth="yes"/>
      <point x="264.636" y="436"/>
      <point x="311.333" y="483.281"/>
      <point x="311.333" y="571.333" type="curve" smooth="yes"/>
      <point x="311.333" y="631.333" type="line" smooth="yes"/>
      <point x="311.333" y="719.54"/>
      <point x="265.233" y="766"/>
      <point x="177.667" y="766" type="curve" smooth="yes"/>
      <point x="90.191" y="766"/>
      <point x="43.333" y="719.023"/>
      <point x="43.333" y="631.333" type="curve" smooth="yes"/>
    </contour>
    <contour>
      <point x="177" y="510.667" type="curve" smooth="yes"/>
      <point x="143.078" y="510.667"/>
      <point x="126" y="530.979"/>
      <point x="126" y="571.333" type="curve" smooth="yes"/>
      <point x="126" y="630.667" type="line" smooth="yes"/>
      <point x="126" y="671.122"/>
      <point x="143.177" y="691.667"/>
      <point x="177" y="691.667" type="curve" smooth="yes"/>
      <point x="210.823" y="691.667"/>
      <point x="228" y="671.122"/>
      <point x="228" y="630.667" type="curve" smooth="yes"/>
      <point x="228" y="571.333" type="line" smooth="yes"/>
      <point x="228" y="530.979"/>
      <point x="210.922" y="510.667"/>
    </contour>
  </outline>
</glyph>
<glyph name="guillemotright" format="2">
  <advance width="521"/>
  <unicode hex="00BB"/>
  <outline>
    <contour>
      <point x="62.333" y="48" type="line"/>
      <point x="284" y="270" type="line"/>
      <point x="62.333" y="493" type="line"/>
      <point x="62.333" y="375.333" type="line"/>
      <point x="167" y="270" type="line"/>
      <point x="62.333" y="165.667" type="line"/>
    </contour>
    <contour>
      <point x="279.667" y="48" type="line"/>
      <point x="500.667" y="270" type="line"/>
      <point x="279.667" y="493" type="line"/>
      <point x="279.667" y="375.333" type="line"/>
      <point x="383.333" y="270" type="line"/>
      <point x="279.667" y="165.667" type="line"/>
    </contour>
  </outline>
</glyph>
<glyph name="onequarter" format="2">
  <advance width="778"/>
  <unicode hex="00BC"/>
  <outline>
    <contour>
      <point x="108.667" y="0" type="line"/>
      <point x="197" y="0" type="line"/>
      <point x="587.667" y="710.333" type="line"/>
      <point x="498.667" y="710.333" type="line"/>
    </contour>
    <contour>
      <point x="99.667" y="280" type="line"/>
      <point x="194" y="280" type="line"/>
      <point x="194" y="708.333" type="line"/>
      <point x="100.333" y="708.333" type="line"/>
      <point x="29" y="656" type="line"/>
      <point x="29" y="555.333" type="line"/>
      <point x="99.667" y="606.667" type="line"/>
    </contour>
    <contour>
      <point x="461" y="64.333" type="line"/>
      <point x="625.333" y="64.333" type="line"/>
      <point x="625.333" y="0" type="line"/>
      <point x="718.667" y="0" type="line"/>
      <point x="718.667" y="64.333" type="line"/>
      <point x="750.667" y="64.333" type="line"/>
      <point x="750.667" y="145.667" type="line"/>
      <point x="718.667" y="145.667" type="line"/>
      <point x="718.667" y="239.333" type="line"/>
      <point x="625.333" y="239.333" type="line"/>
      <point x="625.333" y="145.667" type="line"/>
      <point x="554.667" y="145.667" type="line"/>
      <point x="672.667" y="428.333" type="line"/>
      <point x="579" y="428.333" type="line"/>
      <point x="461" y="145.667" type="line"/>
    </contour>
  </outline>
</glyph>
<glyph name="onehalf" format="2">
  <advance width="792"/>
  <unicode hex="00BD"/>
  <outline>
    <contour>
      <point x="108.667" y="0" type="line"/>
      <point x="197" y="0" type="line"/>
      <point x="587.667" y="710.333" type="line"/>
      <point x="498.667" y="710.333" type="line"/>
    </contour>
    <contour>
      <point x="99.667" y="280" type="line"/>
      <point x="194" y="280" type="line"/>
      <point x="194" y="708.333" type="line"/>
      <point x="100.333" y="708.333" type="line"/>
      <point x="29" y="656" type="line"/>
      <point x="29" y="555.333" type="line"/>
      <point x="99.667" y="606.667" type="line"/>
    </contour>
    <contour>
      <point x="492.333" y="0" type="line"/>
      <point x="751" y="0" type="line"/>
      <point x="751" y="80.667" type="line"/>
      <point x="610.667" y="80.667" type="line"/>
      <point x="710" y="208.333" type="line" smooth="yes"/>
      <point x="735.087" y="240.366"/>
      <point x="750.629" y="265.838"/>
      <point x="750.629" y="308" type="curve" smooth="yes"/>
      <point x="750.629" y="313.301" type="line" smooth="yes"/>
      <point x="750.629" y="389.52"/>
      <point x="699.168" y="435.333"/>
      <point x="621.333" y="435.333" type="curve" smooth="yes"/>
      <point x="547.885" y="435.333"/>
      <point x="489.333" y="395.273"/>
      <point x="489.333" y="317" type="curve" smooth="yes"/>
      <point x="489.333" y="302" type="line"/>
      <point x="579.369" y="302" type="line"/>
      <point x="579.369" y="307.531" type="line" smooth="yes"/>
      <point x="579.369" y="332.513"/>
      <point x="586.143" y="357.667"/>
      <point x="617.333" y="357.667" type="curve" smooth="yes"/>
      <point x="643.034" y="357.667"/>
      <point x="655.631" y="338.992"/>
      <point x="655.631" y="315" type="curve" smooth="yes"/>
      <point x="655.631" y="310.211" type="line" smooth="yes"/>
      <point x="655.631" y="286.408"/>
      <point x="648.404" y="273.254"/>
      <point x="633" y="253.333" type="curve" smooth="yes"/>
      <point x="492.333" y="72.333" type="line"/>
    </contour>
  </outline>
</glyph>
<glyph name="threequarters" format="2">
  <advance width="879"/>
  <unicode hex="00BE"/>
  <outline>
    <contour>
      <point x="202" y="0" type="line"/>
      <point x="290" y="0" type="line"/>
      <point x="680.667" y="710.333" type="line"/>
      <point x="591.667" y="710.333" type="line"/>
    </contour>
    <contour>
      <point x="38.751" y="401.333" type="line"/>
      <point x="38.751" y="396.958" type="line" smooth="yes"/>
      <point x="38.751" y="311.924"/>
      <point x="82.558" y="273.667"/>
      <point x="169.4" y="273.667" type="curve" smooth="yes"/>
      <point x="244.334" y="273.667"/>
      <point x="299.964" y="322.29"/>
      <point x="299.964" y="399" type="curve" smooth="yes"/>
      <point x="299.964" y="410.083" type="line" smooth="yes"/>
      <point x="299.964" y="451.356"/>
      <point x="287.105" y="490.303"/>
      <point x="244.4" y="507.667" type="curve"/>
      <point x="276.28" y="525.274"/>
      <point x="293.296" y="555.41"/>
      <point x="293.296" y="591.667" type="curve" smooth="yes"/>
      <point x="293.296" y="600.757" type="line" smooth="yes"/>
      <point x="293.296" y="675.448"/>
      <point x="245.6" y="715.667"/>
      <point x="168.067" y="715.667" type="curve" smooth="yes"/>
      <point x="94.346" y="715.667"/>
      <point x="40.733" y="676.155"/>
      <point x="40.733" y="598.667" type="curve" smooth="yes"/>
      <point x="40.733" y="588" type="line"/>
      <point x="124.087" y="588" type="line"/>
      <point x="124.087" y="592.107" type="line" smooth="yes"/>
      <point x="124.087" y="619.639"/>
      <point x="131.569" y="638"/>
      <point x="164.733" y="638" type="curve" smooth="yes"/>
      <point x="192.031" y="638"/>
      <point x="203.305" y="618.052"/>
      <point x="203.305" y="593" type="curve" smooth="yes"/>
      <point x="203.305" y="585.04" type="line" smooth="yes"/>
      <point x="203.305" y="545.794"/>
      <point x="184.152" y="539.044"/>
      <point x="149.563" y="539.044" type="curve" smooth="yes"/>
      <point x="138.4" y="539.044" type="line"/>
      <point x="138.4" y="461.905" type="line"/>
      <point x="149.129" y="461.905" type="line" smooth="yes"/>
      <point x="184.425" y="461.905"/>
      <point x="210.325" y="451.105"/>
      <point x="210.325" y="409.333" type="curve" smooth="yes"/>
      <point x="210.325" y="401.839" type="line" smooth="yes"/>
      <point x="210.325" y="374.528"/>
      <point x="200.857" y="350.333"/>
      <point x="167.067" y="350.333" type="curve" smooth="yes"/>
      <point x="133.061" y="350.333"/>
      <point x="122.434" y="367.325"/>
      <point x="122.434" y="396.467" type="curve" smooth="yes"/>
      <point x="122.434" y="401.333" type="line"/>
    </contour>
    <contour>
      <point x="559" y="64.333" type="line"/>
      <point x="723.333" y="64.333" type="line"/>
      <point x="723.333" y="0" type="line"/>
      <point x="816.667" y="0" type="line"/>
      <point x="816.667" y="64.333" type="line"/>
      <point x="848.667" y="64.333" type="line"/>
      <point x="848.667" y="145.667" type="line"/>
      <point x="816.667" y="145.667" type="line"/>
      <point x="816.667" y="239.333" type="line"/>
      <point x="723.333" y="239.333" type="line"/>
      <point x="723.333" y="145.667" type="line"/>
      <point x="652.667" y="145.667" type="line"/>
      <point x="770.667" y="428.333" type="line"/>
      <point x="677" y="428.333" type="line"/>
      <point x="559" y="145.667" type="line"/>
    </contour>
  </outline>
</glyph>
<glyph name="questiondown" format="2">
  <advance width="454"/>
  <unicode hex="00BF"/>
  <outline>
    <contour>
      <point x="174.333" y="407.333" type="line"/>
      <point x="293.333" y="407.333" type="line"/>
      <point x="293.333" y="527.667" type="line"/>
      <point x="174.333" y="527.667" type="line"/>
    </contour>
    <contour>
      <point x="315.667" y="22.333" type="line"/>
      <point x="314.28" y="-39.928"/>
      <point x="288.259" y="-69.333"/>
      <point x="234.667" y="-69.333" type="curve" smooth="yes"/>
      <point x="181.342" y="-69.333"/>
      <point x="151.667" y="-40.127"/>
      <point x="151.667" y="12.333" type="curve" smooth="yes"/>
      <point x="151.667" y="51.351"/>
      <point x="167.063" y="81.71"/>
      <point x="212.905" y="132.746" type="curve" smooth="yes"/>
      <point x="225.663" y="147.115" type="line" smooth="yes"/>
      <point x="270.046" y="196.242"/>
      <point x="288.333" y="239.611"/>
      <point x="288.333" y="295.667" type="curve" smooth="yes"/>
      <point x="288.333" y="334" type="line"/>
      <point x="178.752" y="334" type="line"/>
      <point x="178.752" y="308.197" type="line" smooth="yes"/>
      <point x="178.752" y="262.225"/>
      <point x="172.21" y="241.42"/>
      <point x="149.398" y="214.711" type="curve" smooth="yes"/>
      <point x="136.684" y="199.979" type="line" smooth="yes"/>
      <point x="79.258" y="132.702"/>
      <point x="39.333" y="77.689"/>
      <point x="39.333" y="7.667" type="curve" smooth="yes"/>
      <point x="39.333" y="-97.509"/>
      <point x="116.585" y="-168.667"/>
      <point x="230.667" y="-168.667" type="curve" smooth="yes"/>
      <point x="354.647" y="-168.667"/>
      <point x="423" y="-100.784"/>
      <point x="423" y="22.333" type="curve"/>
    </contour>
  </outline>
</glyph>
<glyph name="AE" format="2">
  <advance width="898"/>
  <unicode hex="00C6"/>
  <anchor x="505" y="775" name="top"/>
  <outline>
    <contour>
      <point x="5" y="0" type="line"/>
      <point x="126" y="0" type="line"/>
      <point x="203.333" y="154.333" type="line"/>
      <point x="431" y="154.333" type="line"/>
      <point x="431" y="0" type="line"/>
      <point x="858" y="0" type="line"/>
      <point x="858" y="100.667" type="line"/>
      <point x="546" y="100.667" type="line"/>
      <point x="546" y="307.333" type="line"/>
      <point x="809.667" y="307.333" type="line"/>
      <point x="809.667" y="407.667" type="line"/>
      <point x="546" y="407.667" type="line"/>
      <point x="546" y="606.333" type="line"/>
      <point x="858" y="606.333" type="line"/>
      <point x="858" y="707" type="line"/>
      <point x="365" y="707" type="line"/>
    </contour>
    <contour>
      <point x="251" y="250.333" type="line"/>
      <point x="431" y="609.333" type="line"/>
      <point x="431" y="250.333" type="line"/>
    </contour>
  </outline>
</glyph>
<glyph name="Eth" format="2">
  <advance width="673"/>
  <unicode hex="00D0"/>
  <outline>
    <component base="D" xScale="1" xOffset="52.333"/>
    <contour>
      <point x="39" y="308.667" type="line"/>
      <point x="362.667" y="308.667" type="line"/>
      <point x="362.667" y="409.667" type="line"/>
      <point x="39" y="409.667" type="line"/>
    </contour>
  </outline>
</glyph>
<glyph name="multiply" format="2">
  <advance width="535"/>
  <unicode hex="00D7"/>
  <outline>
    <contour>
      <point x="129" y="107" type="line"/>
      <point x="226" y="174" type="line"/>
      <point x="349.333" y="134" type="line"/>
      <point x="443.333" y="144.667" type="line"/>
      <point x="377.333" y="241" type="line"/>
      <point x="416.667" y="364" type="line"/>
      <point x="406.667" y="458.667" type="line"/>
      <point x="310" y="392.333" type="line"/>
      <point x="186" y="431.667" type="line"/>
      <point x="92.667" y="422.333" type="line"/>
      <point x="159" y="325.333" type="line"/>
      <point x="119.667" y="202" type="line"/>
    </contour>
  </outline>
</glyph>
<glyph name="Oslash" format="2">
  <advance width="617"/>
  <unicode hex="00D8"/>
  <anchor x="305.667" y="775" name="top"/>
  <outline>
    <component base="O"/>
    <contour>
      <point x="56.667" y="-20" type="line"/>
      <point x="125.667" y="-20" type="line"/>
      <point x="561" y="730.333" type="line"/>
      <point x="492.667" y="730.333" type="line"/>
    </contour>
  </outline>
</glyph>
<glyph name="germandbls" format="2">
  <advance width="530"/>
  <unicode hex="00DF"/>
  <outline>
    <contour>
      <point x="62.333" y="0" type="line"/>
      <point x="170" y="0" type="line"/>
      <point x="170" y="523" type="line" smooth="yes"/>
      <point x="170" y="590.913"/>
      <point x="201.323" y="622"/>
      <point x="269" y="622" type="curve" smooth="yes"/>
      <point x="321.913" y="622"/>
      <point x="362.667" y="606.699"/>
      <point x="362.667" y="546.667" type="curve" smooth="yes"/>
      <point x="362.667" y="491.423"/>
      <point x="340.201" y="472.691"/>
      <point x="273.898" y="472.691" type="curve" smooth="yes"/>
      <point x="258.667" y="472.691" type="line"/>
      <point x="258.667" y="381.258" type="line"/>
      <point x="273.891" y="381.258" type="line" smooth="yes"/>
      <point x="352.071" y="381.258"/>
      <point x="372" y="351.344"/>
      <point x="372" y="234" type="curve" smooth="yes"/>
      <point x="372" y="124.233"/>
      <point x="349.963" y="87.511"/>
      <point x="283.844" y="87.511" type="curve" smooth="yes"/>
      <point x="259" y="87.511" type="line"/>
      <point x="259" y="-3.978" type="line"/>
      <point x="274.612" y="-3.978" type="line" smooth="yes"/>
      <point x="442.771" y="-3.978"/>
      <point x="479" y="38.111"/>
      <point x="479" y="232" type="curve" smooth="yes"/>
      <point x="479" y="344.865"/>
      <point x="453.221" y="400.228"/>
      <point x="409.333" y="431" type="curve"/>
      <point x="453.803" y="459.207"/>
      <point x="470.333" y="499.453"/>
      <point x="470.333" y="551" type="curve" smooth="yes"/>
      <point x="470.333" y="672.463"/>
      <point x="375.968" y="716"/>
      <point x="268" y="716" type="curve" smooth="yes"/>
      <point x="130.27" y="716"/>
      <point x="62.333" y="651.297"/>
      <point x="62.333" y="512.667" type="curve" smooth="yes"/>
    </contour>
  </outline>
</glyph>
<glyph name="eth" format="2">
  <advance width="516"/>
  <unicode hex="00F0"/>
  <outline>
    <contour>
      <point x="130" y="523" type="line"/>
      <point x="235" y="555.333" type="line"/>
      <point x="299.333" y="465" type="line"/>
      <point x="277.409" y="475.917"/>
      <point x="252.558" y="479"/>
      <point x="228.333" y="479" type="curve" smooth="yes"/>
      <point x="100.585" y="479"/>
      <point x="50.667" y="375.878"/>
      <point x="50.667" y="262" type="curve" smooth="yes"/>
      <point x="50.667" y="213.333" type="line" smooth="yes"/>
      <point x="50.667" y="80.267"/>
      <point x="117.252" y="-10.333"/>
      <point x="257" y="-10.333" type="curve" smooth="yes"/>
      <point x="399.339" y="-10.333"/>
      <point x="465.529" y="80.263"/>
      <point x="465.529" y="211.886" type="curve" smooth="yes"/>
      <point x="465.529" y="237.325" type="line" smooth="yes"/>
      <point x="465.529" y="368.242"/>
      <point x="436.162" y="436.58"/>
      <point x="372.759" y="526.155" type="curve" smooth="yes"/>
      <point x="331.333" y="584.667" type="line"/>
      <point x="407" y="607.333" type="line"/>
      <point x="384.667" y="680" type="line"/>
      <point x="285.333" y="649" type="line"/>
      <point x="241.667" y="710.333" type="line"/>
      <point x="126.333" y="710.333" type="line"/>
      <point x="189.667" y="620.333" type="line"/>
      <point x="107.667" y="595.333" type="line"/>
    </contour>
    <contour>
      <point x="259" y="85" type="curve" smooth="yes"/>
      <point x="178.022" y="85"/>
      <point x="152.667" y="141.92"/>
      <point x="152.667" y="214.667" type="curve" smooth="yes"/>
      <point x="152.667" y="265.333" type="line" smooth="yes"/>
      <point x="152.667" y="337.753"/>
      <point x="180.167" y="389.667"/>
      <point x="259" y="389.667" type="curve" smooth="yes"/>
      <point x="337.698" y="389.667"/>
      <point x="363" y="334.178"/>
      <point x="363" y="263.333" type="curve" smooth="yes"/>
      <point x="363" y="215" type="line" smooth="yes"/>
      <point x="363" y="143.911"/>
      <point x="339.166" y="85"/>
    </contour>
  </outline>
</glyph>
<glyph name="divide" format="2">
  <advance width="535"/>
  <unicode hex="00F7"/>
  <outline>
    <contour>
      <point x="267.333" y="383" type="curve" smooth="yes"/>
      <point x="302.435" y="383"/>
      <point x="329.667" y="410.231"/>
      <point x="329.667" y="445.333" type="curve" smooth="yes"/>
      <point x="329.667" y="480.168"/>
      <point x="301.948" y="507"/>
      <point x="267.333" y="507" type="curve" smooth="yes"/>
      <point x="232.308" y="507"/>
      <point x="206.333" y="480.099"/>
      <point x="206.333" y="445.333" type="curve" smooth="yes"/>
      <point x="206.333" y="410.277"/>
      <point x="231.784" y="383"/>
    </contour>
    <contour>
      <point x="52" y="232.333" type="line"/>
      <point x="484" y="232.333" type="line"/>
      <point x="484" y="332.667" type="line"/>
      <point x="52" y="332.667" type="line"/>
    </contour>
    <contour>
      <point x="267.333" y="59.333" type="curve" smooth="yes"/>
      <point x="302.583" y="59.333"/>
      <point x="329.667" y="86.378"/>
      <point x="329.667" y="121.667" type="curve" smooth="yes"/>
      <point x="329.667" y="156.502"/>
      <point x="301.948" y="183.333"/>
      <point x="267.333" y="183.333" type="curve" smooth="yes"/>
      <point x="232.308" y="183.333"/>
      <point x="206.333" y="156.433"/>
      <point x="206.333" y="121.667" type="curve" smooth="yes"/>
      <point x="206.333" y="86.611"/>
      <point x="231.784" y="59.333"/>
    </contour>
  </outline>
</glyph>
<glyph name="Dcroat" format="2">
  <advance width="685"/>
  <unicode hex="0110"/>
  <outline>
    <component base="D" xScale="1" xOffset="52.333"/>
    <contour>
      <point x="39" y="409.667" type="line"/>
      <point x="39" y="308.667" type="line"/>
      <point x="362.667" y="308.667" type="line"/>
      <point x="362.667" y="409.667" type="line"/>
    </contour>
  </outline>
</glyph>
<glyph name="dcroat" format="2">
  <advance width="525"/>
  <unicode hex="0111"/>
  <outline>
    <component base="d"/>
    <contour>
      <point x="244.333" y="584.333" type="line"/>
      <point x="525" y="584.333" type="line"/>
      <point x="525" y="647.667" type="line"/>
      <point x="244.333" y="647.667" type="line"/>
    </contour>
  </outline>
</glyph>
<glyph name="Hbar" format="2">
  <advance width="630"/>
  <unicode hex="0126"/>
  <outline>
    <contour>
      <point x="20" y="510.667" type="line"/>
      <point x="608.667" y="510.667" type="line"/>
      <point x="608.667" y="611.667" type="line"/>
      <point x="20" y="611.667" type="line"/>
    </contour>
    <contour>
      <point x="161.973" y="308.667" type="line"/>
      <point x="468.693" y="308.667" type="line"/>
      <point x="468.693" y="409" type="line"/>
      <point x="161.973" y="409" type="line"/>
    </contour>
    <contour>
      <point x="448.333" y="0" type="line"/>
      <point x="562.667" y="0" type="line"/>
      <point x="562.667" y="707" type="line"/>
      <point x="448.333" y="707" type="line"/>
    </contour>
    <contour>
      <point x="67.333" y="0" type="line"/>
      <point x="182.333" y="0" type="line"/>
      <point x="182.333" y="707" type="line"/>
      <point x="67.333" y="707" type="line"/>
    </contour>
  </outline>
</glyph>
<glyph name="kgreenlandic" format="2">
  <advance width="523"/>
  <unicode hex="0138"/>
  <anchor x="230.333" y="773" name="top"/>
  <anchor x="255" y="-86" name="bottom"/>
  <outline>
    <contour>
      <point x="62.333" y="0" type="line"/>
      <point x="170" y="0" type="line"/>
      <point x="170" y="527.667" type="line"/>
      <point x="62.333" y="494.333" type="line"/>
    </contour>
    <contour>
      <point x="160.154" y="145.408" type="line"/>
      <point x="489" y="527.667" type="line"/>
      <point x="360.333" y="527.667" type="line"/>
      <point x="160.227" y="276.298" type="line"/>
    </contour>
    <contour>
      <point x="377" y="0" type="line"/>
      <point x="507.333" y="0" type="line"/>
      <point x="304.027" y="334.796" type="line"/>
      <point x="233.048" y="251.671" type="line"/>
    </contour>
  </outline>
</glyph>
<glyph name="Lcaron" format="2">
  <advance width="532"/>
  <unicode hex="013D"/>
  <outline>
    <component base="L"/>
    <contour>
      <point x="282" y="497.667" type="line"/>
      <point x="370" y="572.333" type="line"/>
      <point x="370" y="706.333" type="line"/>
      <point x="282" y="706.333" type="line"/>
    </contour>
  </outline>
</glyph>
<glyph name="lcaron" format="2">
  <advance width="322"/>
  <unicode hex="013E"/>
  <outline>
    <component base="l"/>
    <contour>
      <point x="228.667" y="498.333" type="line"/>
      <point x="316.667" y="573" type="line"/>
      <point x="316.667" y="707" type="line"/>
      <point x="228.667" y="707" type="line"/>
    </contour>
  </outline>
</glyph>
<glyph name="Lslash" format="2">
  <advance width="532"/>
  <unicode hex="0141"/>
  <outline>
    <component base="L"/>
    <contour>
      <point x="30.667" y="299.333" type="line"/>
      <point x="287" y="414" type="line"/>
      <point x="287" y="508.667" type="line"/>
      <point x="31.667" y="394" type="line"/>
    </contour>
  </outline>
</glyph>
<glyph name="lslash" format="2">
  <advance width="288"/>
  <unicode hex="0142"/>
  <outline>
    <component base="l"/>
    <contour>
      <point x="0.833" y="303.333" type="line"/>
      <point x="257.667" y="417.333" type="line"/>
      <point x="257.667" y="512.667" type="line"/>
      <point x="0.833" y="398" type="line"/>
    </contour>
  </outline>
</glyph>
<glyph name="Eng" format="2">
  <advance width="659"/>
  <unicode hex="014A"/>
  <outline>
    <contour>
      <point x="67.333" y="0" type="line"/>
      <point x="182.333" y="0" type="line"/>
      <point x="182.333" y="483.667" type="line"/>
      <point x="477.288" y="0" type="line"/>
      <point x="477.303" y="-13.373" type="line" smooth="yes"/>
      <point x="477.351" y="-63.333"/>
      <point x="459.945" y="-78.692"/>
      <point x="404.627" y="-78.692" type="curve" smooth="yes"/>
      <point x="386" y="-78.692" type="line"/>
      <point x="386" y="-173" type="line"/>
      <point x="441" y="-173" type="line" smooth="yes"/>
      <point x="544.877" y="-173"/>
      <point x="591.667" y="-111.936"/>
      <point x="591.667" y="-12.333" type="curve" smooth="yes"/>
      <point x="591.667" y="707" type="line"/>
      <point x="477.333" y="707" type="line"/>
      <point x="477.333" y="222.333" type="line"/>
      <point x="182.333" y="707" type="line"/>
      <point x="67.333" y="707" type="line"/>
    </contour>
  </outline>
</glyph>
<glyph name="eng" format="2">
  <advance width="533"/>
  <unicode hex="014B"/>
  <outline>
    <contour>
      <point x="62.333" y="0" type="line"/>
      <point x="170" y="0" type="line"/>
      <point x="170" y="331.667" type="line" smooth="yes"/>
      <point x="170" y="391.937"/>
      <point x="203.6" y="438.333"/>
      <point x="267.333" y="438.333" type="curve" smooth="yes"/>
      <point x="332.717" y="438.333"/>
      <point x="362.667" y="392.607"/>
      <point x="362.667" y="331.667" type="curve" smooth="yes"/>
      <point x="362.667" y="0" type="line" smooth="yes"/>
      <point x="362.667" y="-55.829"/>
      <point x="340.84" y="-78.462"/>
      <point x="281.964" y="-78.462" type="curve" smooth="yes"/>
      <point x="265.667" y="-78.462" type="line"/>
      <point x="265.667" y="-173" type="line"/>
      <point x="320.667" y="-173" type="line" smooth="yes"/>
      <point x="426.83" y="-173"/>
      <point x="471.033" y="-111.273"/>
      <point x="471" y="0" type="curve"/>
      <point x="471" y="345" type="line" smooth="yes"/>
      <point x="471" y="454.767"/>
      <point x="414.53" y="534.333"/>
      <point x="298.667" y="534.333" type="curve" smooth="yes"/>
      <point x="247.66" y="534.333"/>
      <point x="199.707" y="515.103"/>
      <point x="167.667" y="474.667" type="curve"/>
      <point x="167.667" y="527.667" type="line"/>
      <point x="62.333" y="527.667" type="line"/>
    </contour>
  </outline>
</glyph>
<glyph name="OE" format="2">
  <advance width="899"/>
  <unicode hex="0152"/>
  <outline>
    <contour>
      <point x="453.333" y="0" type="line"/>
      <point x="859" y="0" type="line"/>
      <point x="859" y="100.667" type="line"/>
      <point x="560.833" y="100.667" type="line"/>
      <point x="560.833" y="307.333" type="line"/>
      <point x="811" y="307.333" type="line"/>
      <point x="811" y="407.667" type="line"/>
      <point x="560.833" y="407.667" type="line"/>
      <point x="560.833" y="606.333" type="line"/>
      <point x="859" y="606.333" type="line"/>
      <point x="859" y="707" type="line"/>
      <point x="453.333" y="707" type="line"/>
      <point x="453.333" y="669.667" type="line"/>
      <point x="409.537" y="702.994"/>
      <point x="355.939" y="716.667"/>
      <point x="301.333" y="716.667" type="curve" smooth="yes"/>
      <point x="126.087" y="716.667"/>
      <point x="56.667" y="599.826"/>
      <point x="56.667" y="438.333" type="curve" smooth="yes"/>
      <point x="56.667" y="269.333" type="line" smooth="yes"/>
      <point x="56.667" y="106.594"/>
      <point x="123.738" y="-8"/>
      <point x="300.333" y="-8" type="curve" smooth="yes"/>
      <point x="354.848" y="-8"/>
      <point x="409.351" y="4.841"/>
      <point x="453.333" y="38" type="curve"/>
    </contour>
    <contour>
      <point x="309.667" y="94.667" type="curve" smooth="yes"/>
      <point x="198.327" y="94.667"/>
      <point x="171.333" y="171.797"/>
      <point x="171.333" y="269.333" type="curve" smooth="yes"/>
      <point x="171.333" y="432.667" type="line" smooth="yes"/>
      <point x="171.333" y="531.65"/>
      <point x="193.702" y="615.333"/>
      <point x="309.667" y="615.333" type="curve" smooth="yes"/>
      <point x="421.742" y="615.333"/>
      <point x="446.667" y="528.176"/>
      <point x="446.667" y="432.667" type="curve" smooth="yes"/>
      <point x="446.667" y="269.333" type="line" smooth="yes"/>
      <point x="446.667" y="174.449"/>
      <point x="418.441" y="94.667"/>
    </contour>
  </outline>
</glyph>
<glyph name="oe" format="2">
  <advance width="835"/>
  <unicode hex="0153"/>
  <outline>
    <contour>
      <point x="469.667" y="234" type="line"/>
      <point x="784.333" y="234" type="line"/>
      <point x="784.333" y="301.667" type="line" smooth="yes"/>
      <point x="784.333" y="438.782"/>
      <point x="720.333" y="534.667"/>
      <point x="574" y="534.667" type="curve" smooth="yes"/>
      <point x="516.037" y="534.667"/>
      <point x="458.602" y="517.729"/>
      <point x="419" y="474" type="curve"/>
      <point x="378.873" y="519.345"/>
      <point x="320.442" y="534.667"/>
      <point x="261.333" y="534.667" type="curve" smooth="yes"/>
      <point x="119.803" y="534.667"/>
      <point x="50.667" y="452.17"/>
      <point x="50.667" y="315" type="curve" smooth="yes"/>
      <point x="50.667" y="213.667" type="line" smooth="yes"/>
      <point x="50.667" y="75.592"/>
      <point x="119.028" y="-6"/>
      <point x="261.333" y="-6" type="curve" smooth="yes"/>
      <point x="320.18" y="-6"/>
      <point x="379.21" y="8.911"/>
      <point x="419" y="54.333" type="curve"/>
      <point x="459.797" y="9.482"/>
      <point x="517.633" y="-6"/>
      <point x="577" y="-6" type="curve" smooth="yes"/>
      <point x="682.243" y="-6"/>
      <point x="780.333" y="41.066"/>
      <point x="780.333" y="159.667" type="curve" smooth="yes"/>
      <point x="780.333" y="164.667" type="line"/>
      <point x="677.945" y="164.667" type="line"/>
      <point x="677.945" y="160.452" type="line" smooth="yes"/>
      <point x="677.945" y="110.64"/>
      <point x="625.944" y="87.333"/>
      <point x="582.667" y="87.333" type="curve" smooth="yes"/>
      <point x="499.026" y="87.333"/>
      <point x="469.667" y="136.419"/>
      <point x="469.667" y="214.333" type="curve" smooth="yes"/>
    </contour>
    <contour>
      <point x="261.333" y="89.333" type="curve" smooth="yes"/>
      <point x="182.1" y="89.333"/>
      <point x="158" y="145.014"/>
      <point x="158" y="215.667" type="curve" smooth="yes"/>
      <point x="158" y="312.333" type="line" smooth="yes"/>
      <point x="158" y="383.319"/>
      <point x="181.937" y="438.333"/>
      <point x="261.333" y="438.333" type="curve" smooth="yes"/>
      <point x="340.282" y="438.333"/>
      <point x="362.333" y="381.994"/>
      <point x="362.333" y="312.333" type="curve" smooth="yes"/>
      <point x="362.333" y="215.667" type="line" smooth="yes"/>
      <point x="362.333" y="146.337"/>
      <point x="340.114" y="89.333"/>
    </contour>
    <contour>
      <point x="469.53" y="309.333" type="line"/>
      <point x="469.53" y="325.594" type="line" smooth="yes"/>
      <point x="469.53" y="391.887"/>
      <point x="494.95" y="441"/>
      <point x="574.333" y="441" type="curve" smooth="yes"/>
      <point x="649.972" y="441"/>
      <point x="677" y="394.941"/>
      <point x="677" y="324.667" type="curve" smooth="yes"/>
      <point x="677" y="309.333" type="line"/>
    </contour>
  </outline>
</glyph>
<glyph name="Rcommaaccent" format="2">
  <advance width="614"/>
  <unicode hex="0156"/>
  <outline>
    <contour>
      <point x="67.333" y="0" type="line"/>
      <point x="182.333" y="0" type="line"/>
      <point x="182.333" y="294.667" type="line"/>
      <point x="305.667" y="294.667" type="line"/>
      <point x="448" y="0" type="line"/>
      <point x="580" y="0" type="line"/>
      <point x="422" y="310.333" type="line"/>
      <point x="509.866" y="338.131"/>
      <point x="555.667" y="409.142"/>
      <point x="555.667" y="500" type="curve" smooth="yes"/>
      <point x="555.667" y="634.124"/>
      <point x="462.885" y="707"/>
      <point x="334" y="707" type="curve" smooth="yes"/>
      <point x="67.333" y="707" type="line"/>
    </contour>
    <contour>
      <point x="182.333" y="390.333" type="line"/>
      <point x="182.333" y="606.333" type="line"/>
      <point x="327.333" y="606.333" type="line" smooth="yes"/>
      <point x="393.97" y="606.333"/>
      <point x="441.333" y="568.99"/>
      <point x="441.333" y="499.667" type="curve" smooth="yes"/>
      <point x="441.333" y="428.017"/>
      <point x="397.236" y="390.333"/>
      <point x="327.333" y="390.333" type="curve" smooth="yes"/>
    </contour>
    <contour>
      <point x="262.667" y="-173" type="line"/>
      <point x="350.667" y="-98.333" type="line"/>
      <point x="350.667" y="-33.333" type="line"/>
      <point x="262.667" y="-33.333" type="line"/>
    </contour>
  </outline>
</glyph>
<glyph name="rcommaaccent" format="2">
  <advance width="359"/>
  <unicode hex="0157"/>
  <outline>
    <contour>
      <point x="62.333" y="0" type="line"/>
      <point x="170" y="0" type="line"/>
      <point x="170" y="322.333" type="line" smooth="yes"/>
      <point x="170" y="389.514"/>
      <point x="207.671" y="442"/>
      <point x="278.667" y="442" type="curve" smooth="yes"/>
      <point x="298.933" y="442"/>
      <point x="319.11" y="438.314"/>
      <point x="338.333" y="432" type="curve"/>
      <point x="338.333" y="534.333" type="line"/>
      <point x="324.852" y="537.092"/>
      <point x="311.075" y="538"/>
      <point x="297.333" y="538" type="curve" smooth="yes"/>
      <point x="245.347" y="538"/>
      <point x="193.591" y="514.647"/>
      <point x="167.667" y="468" type="curve"/>
      <point x="167.667" y="527.667" type="line"/>
      <point x="62.333" y="527.667" type="line"/>
    </contour>
    <contour>
      <point x="73.333" y="-173" type="line"/>
      <point x="161.333" y="-98.333" type="line"/>
      <point x="161.333" y="-33.333" type="line"/>
      <point x="73.333" y="-33.333" type="line"/>
    </contour>
  </outline>
</glyph>
<glyph name="tcaron" format="2">
  <advance width="356"/>
  <unicode hex="0165"/>
  <outline>
    <component base="t"/>
    <contour>
      <point x="257.333" y="561" type="line"/>
      <point x="345.333" y="635.667" type="line"/>
      <point x="345.333" y="769.667" type="line"/>
      <point x="257.333" y="769.667" type="line"/>
    </contour>
  </outline>
</glyph>
<glyph name="tbar" format="2">
  <advance width="356"/>
  <unicode hex="0167"/>
  <outline>
    <component base="t"/>
    <contour>
      <point x="29" y="280.667" type="line"/>
      <point x="319.667" y="280.667" type="line"/>
      <point x="319.667" y="360.333" type="line"/>
      <point x="29" y="360.333" type="line"/>
    </contour>
  </outline>
</glyph>
<glyph name="longs" format="2">
  <advance width="301"/>
  <unicode hex="017F"/>
  <anchor x="139.667" y="775" name="top"/>
  <outline>
    <contour>
      <point x="62.333" y="0" type="line"/>
      <point x="169.667" y="0" type="line"/>
      <point x="169.667" y="450" type="line"/>
      <point x="269.333" y="450" type="line"/>
      <point x="269.333" y="527.667" type="line"/>
      <point x="169.667" y="527.667" type="line"/>
      <point x="169.667" y="546" type="line" smooth="yes"/>
      <point x="169.667" y="610.246"/>
      <point x="182.652" y="630.899"/>
      <point x="254.208" y="630.899" type="curve" smooth="yes"/>
      <point x="269.333" y="630.899" type="line"/>
      <point x="269.333" y="707" type="line"/>
      <point x="202.667" y="707" type="line" smooth="yes"/>
      <point x="115.762" y="707"/>
      <point x="62.333" y="656.186"/>
      <point x="62.333" y="568.667" type="curve" smooth="yes"/>
    </contour>
  </outline>
</glyph>
<glyph name="Schwa" format="2">
  <advance width="614"/>
  <unicode hex="018F"/>
  <outline>
    <contour>
      <point x="167.972" y="482" type="line"/>
      <point x="167.972" y="486.456" type="line" smooth="yes"/>
      <point x="167.972" y="569.227"/>
      <point x="218.862" y="614"/>
      <point x="301.625" y="614" type="curve" smooth="yes"/>
      <point x="411.481" y="614"/>
      <point x="443.292" y="536.312"/>
      <point x="443.292" y="439.334" type="curve" smooth="yes"/>
      <point x="443.292" y="276" type="line" smooth="yes"/>
      <point x="443.292" y="178.557"/>
      <point x="417.259" y="93.3337"/>
      <point x="303.292" y="93.3337" type="curve" smooth="yes"/>
      <point x="219.398" y="93.3337"/>
      <point x="168.022" y="152.169"/>
      <point x="168.022" y="248.27" type="curve" smooth="yes"/>
      <point x="168.022" y="393.783" type="line"/>
      <point x="53.6666" y="393.783" type="line"/>
      <point x="53.6666" y="247.444" type="line" smooth="yes"/>
      <point x="53.6666" y="83.5747"/>
      <point x="141.752" y="-8.00033"/>
      <point x="302.625" y="-8.00033" type="curve" smooth="yes"/>
      <point x="482.561" y="-8.00033"/>
      <point x="557.958" y="99.5637"/>
      <point x="557.958" y="270.334" type="curve" smooth="yes"/>
      <point x="557.958" y="439.334" type="line" smooth="yes"/>
      <point x="557.958" y="609.18"/>
      <point x="483.1" y="716.667"/>
      <point x="303.958" y="716.667" type="curve" smooth="yes"/>
      <point x="158.739" y="716.667"/>
      <point x="55.6246" y="640.406"/>
      <point x="55.6246" y="488" type="curve" smooth="yes"/>
      <point x="55.6246" y="482" type="line"/>
    </contour>
    <contour>
      <point x="84.9046" y="393.762" type="line"/>
      <point x="84.9046" y="293.429" type="line"/>
      <point x="471.671" y="293.429" type="line"/>
      <point x="471.671" y="393.762" type="line"/>
    </contour>
  </outline>
</glyph>
<glyph name="florin" format="2">
  <advance width="424"/>
  <unicode hex="0192"/>
  <outline>
    <contour>
      <point x="10.333" y="-158.628" type="line"/>
      <point x="47.182" y="-158.628" type="line" smooth="yes"/>
      <point x="163.223" y="-158.628"/>
      <point x="207.552" y="-108.849"/>
      <point x="224.667" y="5.333" type="curve" smooth="yes"/>
      <point x="273.667" y="332.333" type="line"/>
      <point x="391.667" y="332.333" type="line"/>
      <point x="391.667" y="428.667" type="line"/>
      <point x="287.667" y="428.667" type="line"/>
      <point x="304.333" y="536.667" type="line" smooth="yes"/>
      <point x="312.089" y="586.85"/>
      <point x="333.034" y="606.326"/>
      <point x="385.994" y="606.326" type="curve" smooth="yes"/>
      <point x="414" y="606.326" type="line"/>
      <point x="414" y="707" type="line"/>
      <point x="368.667" y="707" type="line" smooth="yes"/>
      <point x="271.205" y="707"/>
      <point x="211.83" y="644.552"/>
      <point x="196.036" y="542.759" type="curve" smooth="yes"/>
      <point x="178.333" y="428.667" type="line"/>
      <point x="82" y="428.667" type="line"/>
      <point x="82" y="332.333" type="line"/>
      <point x="164.333" y="332.333" type="line"/>
      <point x="117.333" y="15.333" type="line" smooth="yes"/>
      <point x="109.261" y="-39.143"/>
      <point x="80.142" y="-55.921"/>
      <point x="22.891" y="-55.921" type="curve" smooth="yes"/>
      <point x="10.333" y="-55.921" type="line"/>
    </contour>
  </outline>
</glyph>
<glyph name="kcaron" format="2">
  <advance width="523"/>
  <unicode hex="01E9"/>
  <outline>
    <contour>
      <point x="62.333" y="0" type="line"/>
      <point x="170" y="0" type="line"/>
      <point x="170" y="157" type="line"/>
      <point x="240.667" y="238.333" type="line"/>
      <point x="377" y="0" type="line"/>
      <point x="507.333" y="0" type="line"/>
      <point x="312" y="321.667" type="line"/>
      <point x="489" y="527.667" type="line"/>
      <point x="360.333" y="527.667" type="line"/>
      <point x="170" y="288.333" type="line"/>
      <point x="170" y="707" type="line"/>
      <point x="62.333" y="707" type="line"/>
    </contour>
    <contour>
      <point x="74.667" y="768.667" type="line"/>
      <point x="155.667" y="768.667" type="line"/>
      <point x="270.667" y="920.333" type="line"/>
      <point x="183.667" y="920.333" type="line"/>
      <point x="115.667" y="834.667" type="line"/>
      <point x="47.333" y="920.333" type="line"/>
      <point x="-40.333" y="920.333" type="line"/>
    </contour>
  </outline>
</glyph>
<glyph name="dotlessj" format="2">
  <advance width="241"/>
  <unicode hex="0237"/>
  <anchor x="119" y="596.667" name="top"/>
  <outline>
    <contour>
      <point x="-33" y="-158.667" type="line"/>
      <point x="23.333" y="-158.667" type="line" smooth="yes"/>
      <point x="121.747" y="-158.667"/>
      <point x="172.667" y="-101.679"/>
      <point x="172.667" y="-5" type="curve" smooth="yes"/>
      <point x="172.667" y="527.667" type="line"/>
      <point x="65.667" y="527.667" type="line"/>
      <point x="65.667" y="1.667" type="line" smooth="yes"/>
      <point x="65.667" y="-49.092"/>
      <point x="49.385" y="-64.136"/>
      <point x="-5.888" y="-64.136" type="curve" smooth="yes"/>
      <point x="-33" y="-64.136" type="line"/>
    </contour>
  </outline>
</glyph>
<glyph name="Lbar" format="2">
  <advance width="532"/>
  <unicode hex="023D"/>
  <outline>
    <component base="L"/>
    <contour>
      <point x="13.333" y="367.333" type="line"/>
      <point x="295.333" y="367.333" type="line"/>
      <point x="295.333" y="468.333" type="line"/>
      <point x="13.333" y="468.333" type="line"/>
    </contour>
  </outline>
</glyph>
<glyph name="obarred" format="2">
  <advance width="520"/>
  <unicode hex="0275"/>
  <outline>
    <component base="o"/>
    <contour>
      <point x="126.667" y="216" type="line"/>
      <point x="408.667" y="216" type="line"/>
      <point x="408.667" y="317" type="line"/>
      <point x="126.667" y="317" type="line"/>
    </contour>
  </outline>
</glyph>
<glyph name="apostrophemod" format="2">
  <unicode hex="02BC"/>
  <anchor x="51.333" y="707" name="_dot"/>
  <outline>
    <contour>
      <point x="-51.333" y="423.667" type="line"/>
      <point x="51.333" y="513" type="line"/>
      <point x="51.333" y="707" type="line"/>
      <point x="-51.333" y="707" type="line"/>
    </contour>
  </outline>
</glyph>
<glyph name="circumflex" format="2">
  <advance width="512"/>
  <unicode hex="02C6"/>
  <outline>
    <contour>
      <point x="100" y="585.667" type="line"/>
      <point x="187.667" y="585.667" type="line"/>
      <point x="256" y="671.667" type="line"/>
      <point x="324" y="585.667" type="line"/>
      <point x="411" y="585.667" type="line"/>
      <point x="296" y="737.667" type="line"/>
      <point x="215" y="737.667" type="line"/>
    </contour>
  </outline>
</glyph>
<glyph name="breve" format="2">
  <advance width="512"/>
  <unicode hex="02D8"/>
  <outline>
    <contour>
      <point x="111.333" y="747.333" type="line"/>
      <point x="111.344" y="737.34" type="line"/>
      <point x="111.517" y="642.234"/>
      <point x="152.176" y="580"/>
      <point x="255" y="580" type="curve" smooth="yes"/>
      <point x="351.408" y="580"/>
      <point x="398.667" y="638.786"/>
      <point x="398.667" y="732" type="curve" smooth="yes"/>
      <point x="398.667" y="747.333" type="line"/>
      <point x="323.98" y="747.333" type="line"/>
      <point x="323.98" y="742.686" type="line" smooth="yes"/>
      <point x="323.98" y="693.246"/>
      <point x="310.5" y="648"/>
      <point x="255" y="648" type="curve" smooth="yes"/>
      <point x="195.025" y="648"/>
      <point x="185.728" y="692.981"/>
      <point x="185.977" y="742.649" type="curve"/>
      <point x="186" y="747.333" type="line"/>
    </contour>
  </outline>
</glyph>
<glyph name="ring" format="2">
  <advance width="512"/>
  <unicode hex="02DA"/>
  <outline>
    <contour>
      <point x="184" y="654.667" type="curve" smooth="yes"/>
      <point x="201.913" y="615.251"/>
      <point x="245.875" y="597.895"/>
      <point x="285.667" y="616" type="curve" smooth="yes"/>
      <point x="325.641" y="634.105"/>
      <point x="342.579" y="677.359"/>
      <point x="324.667" y="717.333" type="curve" smooth="yes"/>
      <point x="306.791" y="758.535"/>
      <point x="264.098" y="775.401"/>
      <point x="223.667" y="757.333" type="curve" smooth="yes"/>
      <point x="183.442" y="739.266"/>
      <point x="166.125" y="695.271"/>
    </contour>
    <contour>
      <point x="254.667" y="635" type="curve" smooth="yes"/>
      <point x="228.117" y="635"/>
      <point x="205.667" y="658.369"/>
      <point x="205.667" y="686" type="curve" smooth="yes"/>
      <point x="205.667" y="716.012"/>
      <point x="226.211" y="737.667"/>
      <point x="254.667" y="737.667" type="curve" smooth="yes"/>
      <point x="282.722" y="737.667"/>
      <point x="304.333" y="715.185"/>
      <point x="304.333" y="686" type="curve" smooth="yes"/>
      <point x="304.333" y="658.213"/>
      <point x="281.722" y="635"/>
    </contour>
  </outline>
</glyph>
<glyph name="ogonek" format="2">
  <advance width="311"/>
  <unicode hex="02DB"/>
  <outline>
    <contour>
      <point x="60" y="-104" type="line"/>
      <point x="89.428" y="-188.812"/>
      <point x="166.67" y="-223.667"/>
      <point x="251.333" y="-223.667" type="curve"/>
      <point x="251.333" y="-143.667" type="line"/>
      <point x="213.383" y="-143.667"/>
      <point x="172.841" y="-137.129"/>
      <point x="151" y="-111" type="curve"/>
      <point x="251.333" y="-0.333" type="line"/>
      <point x="251.333" y="8.667" type="line"/>
      <point x="175" y="8.667" type="line"/>
    </contour>
  </outline>
</glyph>
<glyph name="tilde" format="2">
  <advance width="512"/>
  <unicode hex="02DC"/>
  <outline>
    <contour>
      <point x="117" y="591.667" type="line"/>
      <point x="148.891" y="621.724"/>
      <point x="167.531" y="631.667"/>
      <point x="192" y="631.667" type="curve" smooth="yes"/>
      <point x="235.573" y="631.667"/>
      <point x="262.336" y="592.667"/>
      <point x="315" y="592.667" type="curve" smooth="yes"/>
      <point x="343.152" y="592.667"/>
      <point x="364.196" y="603.864"/>
      <point x="394" y="634.667" type="curve"/>
      <point x="394" y="717.333" type="line"/>
      <point x="366.325" y="687.357"/>
      <point x="346.874" y="676.667"/>
      <point x="320" y="676.667" type="curve" smooth="yes"/>
      <point x="276.604" y="676.667"/>
      <point x="247.902" y="716"/>
      <point x="196" y="716" type="curve" smooth="yes"/>
      <point x="167.067" y="716"/>
      <point x="147.492" y="705.492"/>
      <point x="117" y="673.667" type="curve"/>
    </contour>
  </outline>
</glyph>
<glyph name="hungarumlaut" format="2">
  <advance width="512"/>
  <unicode hex="02DD"/>
  <outline>
    <contour>
      <point x="161.667" y="596.667" type="line"/>
      <point x="256.667" y="596.667" type="line"/>
      <point x="391.333" y="730" type="line"/>
      <point x="269.333" y="730" type="line"/>
    </contour>
    <contour>
      <point x="248.333" y="596.667" type="line"/>
      <point x="343.333" y="596.667" type="line"/>
      <point x="478" y="730" type="line"/>
      <point x="356" y="730" type="line"/>
    </contour>
  </outline>
</glyph>
<glyph name="uni0300" format="2">
  <unicode hex="0300"/>
  <anchor x="0" y="596.667" name="_top"/>
  <outline>
    <contour>
      <point x="-23.667" y="596.667" type="line"/>
      <point x="71.333" y="596.667" type="line"/>
      <point x="-36.333" y="730" type="line"/>
      <point x="-158.333" y="730" type="line"/>
    </contour>
  </outline>
</glyph>
<glyph name="uni0301" format="2">
  <unicode hex="0301"/>
  <anchor x="0" y="596.667" name="_top"/>
  <outline>
    <contour>
      <point x="-89.167" y="596.667" type="line"/>
      <point x="5.833" y="596.667" type="line"/>
      <point x="140.5" y="730" type="line"/>
      <point x="18.5" y="730" type="line"/>
    </contour>
  </outline>
</glyph>
<glyph name="uni0302" format="2">
  <unicode hex="0302"/>
  <anchor x="0" y="596.667" name="_top"/>
  <outline>
    <contour>
      <point x="-155.5" y="585.667" type="line"/>
      <point x="-67.833" y="585.667" type="line"/>
      <point x="0.5" y="671.667" type="line"/>
      <point x="68.5" y="585.667" type="line"/>
      <point x="155.5" y="585.667" type="line"/>
      <point x="40.5" y="737.667" type="line"/>
      <point x="-40.5" y="737.667" type="line"/>
    </contour>
  </outline>
</glyph>
<glyph name="uni0303" format="2">
  <unicode hex="0303"/>
  <anchor x="0" y="596.667" name="_top"/>
  <outline>
    <contour>
      <point x="-138.5" y="591.667" type="line"/>
      <point x="-106.609" y="621.724"/>
      <point x="-87.969" y="631.667"/>
      <point x="-63.5" y="631.667" type="curve" smooth="yes"/>
      <point x="-19.927" y="631.667"/>
      <point x="6.836" y="592.667"/>
      <point x="59.5" y="592.667" type="curve" smooth="yes"/>
      <point x="87.652" y="592.667"/>
      <point x="108.696" y="603.864"/>
      <point x="138.5" y="634.667" type="curve"/>
      <point x="138.5" y="717.333" type="line"/>
      <point x="110.824" y="687.357"/>
      <point x="91.374" y="676.667"/>
      <point x="64.5" y="676.667" type="curve" smooth="yes"/>
      <point x="21.104" y="676.667"/>
      <point x="-7.598" y="716"/>
      <point x="-59.5" y="716" type="curve" smooth="yes"/>
      <point x="-88.433" y="716"/>
      <point x="-108.008" y="705.492"/>
      <point x="-138.5" y="673.667" type="curve"/>
    </contour>
  </outline>
</glyph>
<glyph name="uni0304" format="2">
  <unicode hex="0304"/>
  <anchor x="0" y="596.667" name="_top"/>
  <outline>
    <contour>
      <point x="-140.333" y="604" type="line"/>
      <point x="140.333" y="604" type="line"/>
      <point x="140.333" y="700.667" type="line"/>
      <point x="-140.333" y="700.667" type="line"/>
    </contour>
  </outline>
</glyph>
<glyph name="uni0307" format="2">
  <unicode hex="0307"/>
  <anchor x="0" y="596.667" name="_top"/>
  <outline>
    <contour>
      <point x="-57" y="608" type="line"/>
      <point x="57" y="608" type="line"/>
      <point x="57" y="706.667" type="line"/>
      <point x="-57" y="706.667" type="line"/>
    </contour>
  </outline>
</glyph>
<glyph name="uni030A" format="2">
  <unicode hex="030A"/>
  <anchor x="0" y="584.667" name="_t.ring"/>
  <outline>
    <contour>
      <point x="-70.333" y="654.667" type="curve" smooth="yes"/>
      <point x="-52.421" y="615.251"/>
      <point x="-8.458" y="597.895"/>
      <point x="31.333" y="616" type="curve" smooth="yes"/>
      <point x="71.308" y="634.105"/>
      <point x="88.246" y="677.359"/>
      <point x="70.333" y="717.333" type="curve" smooth="yes"/>
      <point x="52.458" y="758.535"/>
      <point x="9.765" y="775.401"/>
      <point x="-30.667" y="757.333" type="curve" smooth="yes"/>
      <point x="-70.891" y="739.266"/>
      <point x="-88.209" y="695.271"/>
    </contour>
    <contour>
      <point x="0.333" y="635" type="curve" smooth="yes"/>
      <point x="-26.216" y="635"/>
      <point x="-48.667" y="658.369"/>
      <point x="-48.667" y="686" type="curve" smooth="yes"/>
      <point x="-48.667" y="716.012"/>
      <point x="-28.122" y="737.667"/>
      <point x="0.333" y="737.667" type="curve" smooth="yes"/>
      <point x="28.388" y="737.667"/>
      <point x="50" y="715.185"/>
      <point x="50" y="686" type="curve" smooth="yes"/>
      <point x="50" y="658.213"/>
      <point x="27.389" y="635"/>
    </contour>
  </outline>
</glyph>
<glyph name="uni030B" format="2">
  <unicode hex="030B"/>
  <anchor x="0" y="596.667" name="_top"/>
  <outline>
    <contour>
      <point x="-141.667" y="596.667" type="line"/>
      <point x="-46.667" y="596.667" type="line"/>
      <point x="88" y="730" type="line"/>
      <point x="-34" y="730" type="line"/>
    </contour>
    <contour>
      <point x="38.333" y="596.667" type="line"/>
      <point x="133.333" y="596.667" type="line"/>
      <point x="268" y="730" type="line"/>
      <point x="146" y="730" type="line"/>
    </contour>
  </outline>
</glyph>
<glyph name="uni030C" format="2">
  <unicode hex="030C"/>
  <anchor x="0" y="596.667" name="_top"/>
  <outline>
    <contour>
      <point x="-40.5" y="581.667" type="line"/>
      <point x="40.5" y="581.667" type="line"/>
      <point x="155.5" y="733.333" type="line"/>
      <point x="68.5" y="733.333" type="line"/>
      <point x="0.5" y="647.667" type="line"/>
      <point x="-67.833" y="733.333" type="line"/>
      <point x="-155.5" y="733.333" type="line"/>
    </contour>
  </outline>
</glyph>
<glyph name="uni030F" format="2">
  <unicode hex="030F"/>
  <anchor x="0" y="596.333" name="_top"/>
  <outline>
    <contour>
      <point x="-98.8284" y="596.667" type="line"/>
      <point x="-3.8284" y="596.667" type="line"/>
      <point x="-111.494" y="730" type="line"/>
      <point x="-233.494" y="730" type="line"/>
    </contour>
    <contour>
      <point x="77.1391" y="596.667" type="line"/>
      <point x="172.139" y="596.667" type="line"/>
      <point x="64.4731" y="730" type="line"/>
      <point x="-57.5269" y="730" type="line"/>
    </contour>
  </outline>
</glyph>
<glyph name="uni0312" format="2">
  <unicode hex="0312"/>
  <outline>
    <contour>
      <point x="-89" y="596.667" type="line"/>
      <point x="33.667" y="596.667" type="line"/>
      <point x="141" y="730" type="line"/>
      <point x="46.667" y="730" type="line"/>
    </contour>
  </outline>
</glyph>
<glyph name="uni0323" format="2">
  <unicode hex="0323"/>
  <anchor x="0" y="-86" name="_bottom"/>
  <anchor x="0" y="-135.333" name="_dot"/>
  <outline>
    <contour>
      <point x="-55.667" y="-184.667" type="line"/>
      <point x="58.333" y="-184.667" type="line"/>
      <point x="58.333" y="-86" type="line"/>
      <point x="-55.667" y="-86" type="line"/>
    </contour>
  </outline>
</glyph>
<glyph name="Djecyr" format="2">
  <advance width="706"/>
  <unicode hex="0402"/>
  <anchor x="251.333" y="-86" name="bottom"/>
  <anchor x="230.5" y="775" name="top"/>
  <anchor x="222" y="0" name="b.cedilla"/>
  <outline>
    <contour>
      <point x="194" y="0" type="line"/>
      <point x="309.333" y="0" type="line"/>
      <point x="309.333" y="606.333" type="line"/>
      <point x="496.333" y="606.333" type="line"/>
      <point x="496.333" y="707" type="line"/>
      <point x="6.667" y="707" type="line"/>
      <point x="6.667" y="606.333" type="line"/>
      <point x="194" y="606.333" type="line"/>
    </contour>
    <contour>
      <point x="380.653" y="0" type="line"/>
      <point x="421.333" y="0" type="line" smooth="yes"/>
      <point x="563.229" y="0"/>
      <point x="649.333" y="82.717"/>
      <point x="649.333" y="219" type="curve" smooth="yes"/>
      <point x="649.333" y="349.215"/>
      <point x="561.383" y="431"/>
      <point x="421.333" y="431" type="curve" smooth="yes"/>
      <point x="254.82" y="431" type="line"/>
      <point x="254.82" y="330" type="line"/>
      <point x="414.667" y="330" type="line" smooth="yes"/>
      <point x="490.812" y="330"/>
      <point x="535" y="289.193"/>
      <point x="535" y="219" type="curve" smooth="yes"/>
      <point x="535" y="142.191"/>
      <point x="492.847" y="100.859"/>
      <point x="414.667" y="100.667" type="curve"/>
      <point x="380.653" y="100.591" type="line"/>
    </contour>
  </outline>
</glyph>
<glyph name="Eukrcyr" format="2">
  <advance width="614"/>
  <unicode hex="0404"/>
  <anchor x="308.667" y="775" name="top"/>
  <outline>
    <contour>
      <point x="446.653" y="226.667" type="line"/>
      <point x="446.653" y="222.211" type="line" smooth="yes"/>
      <point x="446.653" y="139.44"/>
      <point x="395.763" y="94.667"/>
      <point x="313" y="94.667" type="curve" smooth="yes"/>
      <point x="203.144" y="94.667"/>
      <point x="171.333" y="172.355"/>
      <point x="171.333" y="269.333" type="curve" smooth="yes"/>
      <point x="171.333" y="432.667" type="line" smooth="yes"/>
      <point x="171.333" y="530.11"/>
      <point x="197.366" y="615.333"/>
      <point x="311.333" y="615.333" type="curve" smooth="yes"/>
      <point x="391.87" y="615.333"/>
      <point x="446.603" y="570.408"/>
      <point x="446.603" y="490.397" type="curve" smooth="yes"/>
      <point x="446.603" y="482.333" type="line"/>
      <point x="560.958" y="482.333" type="line"/>
      <point x="560.958" y="491.223" type="line" smooth="yes"/>
      <point x="560.958" y="638.533"/>
      <point x="456.419" y="716.667"/>
      <point x="312" y="716.667" type="curve" smooth="yes"/>
      <point x="132.064" y="716.667"/>
      <point x="56.667" y="609.103"/>
      <point x="56.667" y="438.333" type="curve" smooth="yes"/>
      <point x="56.667" y="269.333" type="line" smooth="yes"/>
      <point x="56.667" y="99.487"/>
      <point x="131.525" y="-8"/>
      <point x="310.667" y="-8" type="curve" smooth="yes"/>
      <point x="455.886" y="-8"/>
      <point x="559" y="68.261"/>
      <point x="559" y="220.667" type="curve" smooth="yes"/>
      <point x="559" y="226.667" type="line"/>
    </contour>
    <contour>
      <point x="383.182" y="308.238" type="line"/>
      <point x="142.955" y="308.238" type="line"/>
      <point x="142.955" y="408.571" type="line"/>
      <point x="383.182" y="408.571" type="line"/>
    </contour>
  </outline>
</glyph>
<glyph name="Ljecyr" format="2">
  <advance width="946"/>
  <unicode hex="0409"/>
  <outline>
    <component base="Elcyr"/>
    <contour>
      <point x="495.486" y="0" type="line"/>
      <point x="662" y="0" type="line" smooth="yes"/>
      <point x="803.895" y="0"/>
      <point x="890" y="82.717"/>
      <point x="890" y="219" type="curve" smooth="yes"/>
      <point x="890" y="349.215"/>
      <point x="802.049" y="431"/>
      <point x="662" y="431" type="curve" smooth="yes"/>
      <point x="495.486" y="431" type="line"/>
      <point x="495.486" y="330" type="line"/>
      <point x="655.333" y="330" type="line" smooth="yes"/>
      <point x="731.478" y="330"/>
      <point x="775.666" y="289.193"/>
      <point x="775.666" y="219" type="curve" smooth="yes"/>
      <point x="775.666" y="142.191"/>
      <point x="733.514" y="100.706"/>
      <point x="655.333" y="100.667" type="curve" smooth="yes"/>
      <point x="495.486" y="100.591" type="line"/>
    </contour>
  </outline>
</glyph>
<glyph name="Njecyr" format="2">
  <advance width="973"/>
  <unicode hex="040A"/>
  <outline>
    <component base="H"/>
    <contour>
      <point x="522.153" y="0" type="line"/>
      <point x="688.667" y="0" type="line" smooth="yes"/>
      <point x="830.562" y="0"/>
      <point x="916.667" y="82.717"/>
      <point x="916.667" y="219" type="curve" smooth="yes"/>
      <point x="916.667" y="349.215"/>
      <point x="828.716" y="431"/>
      <point x="688.667" y="431" type="curve" smooth="yes"/>
      <point x="522.153" y="431" type="line"/>
      <point x="522.153" y="330" type="line"/>
      <point x="682" y="330" type="line" smooth="yes"/>
      <point x="758.145" y="330"/>
      <point x="802.333" y="289.193"/>
      <point x="802.333" y="219" type="curve" smooth="yes"/>
      <point x="802.333" y="142.191"/>
      <point x="760.181" y="100.706"/>
      <point x="682" y="100.667" type="curve" smooth="yes"/>
      <point x="522.153" y="100.591" type="line"/>
    </contour>
  </outline>
</glyph>
<glyph name="Tshecyr" format="2">
  <advance width="733"/>
  <unicode hex="040B"/>
  <outline>
    <contour>
      <point x="194" y="0" type="line"/>
      <point x="309.333" y="0" type="line"/>
      <point x="309.333" y="606.333" type="line"/>
      <point x="496.333" y="606.333" type="line"/>
      <point x="496.333" y="707" type="line"/>
      <point x="6.667" y="707" type="line"/>
      <point x="6.667" y="606.333" type="line"/>
      <point x="194" y="606.333" type="line"/>
    </contour>
    <contour>
      <point x="676.667" y="0" type="line"/>
      <point x="676.667" y="219" type="line" smooth="yes"/>
      <point x="676.667" y="349.215"/>
      <point x="588.716" y="451"/>
      <point x="448.667" y="451" type="curve" smooth="yes"/>
      <point x="402.675" y="451"/>
      <point x="355.29" y="446"/>
      <point x="309.298" y="431" type="curve"/>
      <point x="282.153" y="431" type="line"/>
      <point x="282.153" y="330" type="line"/>
      <point x="309.298" y="330" type="line"/>
      <point x="353.09" y="345"/>
      <point x="398.208" y="350"/>
      <point x="442" y="350" type="curve" smooth="yes"/>
      <point x="518.145" y="350"/>
      <point x="562.333" y="289.193"/>
      <point x="562.333" y="219" type="curve" smooth="yes"/>
      <point x="562.333" y="-0.152" type="line"/>
    </contour>
  </outline>
</glyph>
<glyph name="Dzhecyr" format="2">
  <advance width="605"/>
  <unicode hex="040F"/>
  <outline>
    <contour>
      <point x="245.333" y="-170" type="line"/>
      <point x="359.667" y="-170" type="line"/>
      <point x="359.667" y="100.333" type="line"/>
      <point x="245.333" y="100.333" type="line"/>
    </contour>
    <contour>
      <point x="134.667" y="0" type="line"/>
      <point x="485" y="0" type="line"/>
      <point x="485" y="100.333" type="line"/>
      <point x="134.667" y="100.333" type="line"/>
    </contour>
    <contour>
      <point x="423.334" y="0" type="line"/>
      <point x="537.667" y="0" type="line"/>
      <point x="537.667" y="707" type="line"/>
      <point x="423.334" y="707" type="line"/>
    </contour>
    <contour>
      <point x="67.333" y="0" type="line"/>
      <point x="181.667" y="0" type="line"/>
      <point x="181.667" y="707" type="line"/>
      <point x="67.333" y="707" type="line"/>
    </contour>
  </outline>
</glyph>
<glyph name="Gecyr" format="2">
  <advance width="543"/>
  <unicode hex="0413"/>
  <anchor x="308" y="775" name="top"/>
  <outline>
    <contour>
      <point x="162.153" y="606.667" type="line"/>
      <point x="509.667" y="606.667" type="line"/>
      <point x="509.667" y="707" type="line"/>
      <point x="162.153" y="707" type="line"/>
    </contour>
    <contour>
      <point x="67.333" y="0" type="line"/>
      <point x="182.333" y="0" type="line"/>
      <point x="182.333" y="707.073" type="line"/>
      <point x="67.333" y="707" type="line"/>
    </contour>
  </outline>
</glyph>
<glyph name="Decyr" format="2">
  <advance width="685"/>
  <unicode hex="0414"/>
  <outline>
    <contour>
      <point x="356.7" y="-0.247" type="line"/>
      <point x="560.48" y="-0.247" type="line"/>
      <point x="560.48" y="-169.88" type="line"/>
      <point x="674.813" y="-169.88" type="line"/>
      <point x="674.813" y="100.507" type="line"/>
      <point x="356.7" y="100.08" type="line"/>
    </contour>
    <contour>
      <point x="45.733" y="0" type="line"/>
      <point x="187.762" y="0"/>
      <point x="258.057" y="231.111"/>
      <point x="274.107" y="516.728" type="curve"/>
      <point x="286" y="707" type="line"/>
      <point x="171.667" y="707" type="line"/>
      <point x="160.24" y="526.042" type="line" smooth="yes"/>
      <point x="142.493" y="231.039"/>
      <point x="95.785" y="100.296"/>
      <point x="45.987" y="100.205" type="curve"/>
    </contour>
    <contour>
      <point x="484.667" y="0" type="line"/>
      <point x="599" y="0" type="line"/>
      <point x="599" y="707" type="line"/>
      <point x="484.667" y="707" type="line"/>
    </contour>
    <contour>
      <point x="220.333" y="606.667" type="line"/>
      <point x="516.333" y="606.667" type="line"/>
      <point x="516.333" y="707" type="line"/>
      <point x="220.333" y="707" type="line"/>
    </contour>
    <contour>
      <point x="203.275" y="-0.25" type="line"/>
      <point x="376.103" y="-0.25" type="line"/>
      <point x="376.103" y="100.08" type="line"/>
      <point x="203.275" y="100.08" type="line"/>
    </contour>
    <contour>
      <point x="10.413" y="-169.88" type="line"/>
      <point x="124.747" y="-169.88" type="line"/>
      <point x="124.747" y="-0.247" type="line"/>
      <point x="222.737" y="-0.247" type="line"/>
      <point x="222.737" y="100.08" type="line"/>
      <point x="10.413" y="100.293" type="line"/>
    </contour>
  </outline>
</glyph>
<glyph name="Zhecyr" format="2">
  <advance width="997"/>
  <unicode hex="0416"/>
  <outline>
    <contour>
      <point x="535.64" y="308.667" type="line"/>
      <point x="699.31" y="308.667" type="line"/>
      <point x="699.31" y="409" type="line"/>
      <point x="535.64" y="409" type="line"/>
    </contour>
    <contour>
      <point x="441" y="0" type="line"/>
      <point x="556" y="0" type="line"/>
      <point x="556" y="707" type="line"/>
      <point x="441" y="707" type="line"/>
    </contour>
    <contour>
      <point x="854.667" y="0" type="line"/>
      <point x="987" y="0" type="line"/>
      <point x="699.31" y="409" type="line"/>
      <point x="626.15" y="317.099" type="line"/>
    </contour>
    <contour>
      <point x="584.332" y="318.651" type="line"/>
      <point x="653.495" y="318.632" type="line"/>
      <point x="964.333" y="707" type="line"/>
      <point x="827.333" y="707" type="line"/>
      <point x="584.279" y="386.269" type="line"/>
    </contour>
    <contour>
      <point x="297.69" y="308.667" type="line"/>
      <point x="461.36" y="308.667" type="line"/>
      <point x="461.36" y="409" type="line"/>
      <point x="297.69" y="409" type="line"/>
    </contour>
    <contour>
      <point x="441" y="0" type="line"/>
      <point x="556" y="0" type="line"/>
      <point x="556" y="707" type="line"/>
      <point x="441" y="707" type="line"/>
    </contour>
    <contour>
      <point x="10" y="0" type="line"/>
      <point x="142.333" y="0" type="line"/>
      <point x="370.85" y="317.099" type="line"/>
      <point x="297.69" y="409" type="line"/>
    </contour>
    <contour>
      <point x="343.505" y="318.632" type="line"/>
      <point x="412.668" y="318.651" type="line"/>
      <point x="412.721" y="386.269" type="line"/>
      <point x="169.667" y="707" type="line"/>
      <point x="32.667" y="707" type="line"/>
    </contour>
  </outline>
</glyph>
<glyph name="Zecyr" format="2">
  <advance width="624"/>
  <unicode hex="0417"/>
  <outline>
    <contour>
      <point x="68.294" y="195.666" type="line"/>
      <point x="68.294" y="187.753" type="line" smooth="yes"/>
      <point x="68.294" y="70.028"/>
      <point x="171.221" y="-8"/>
      <point x="323.501" y="-8" type="curve" smooth="yes"/>
      <point x="453.729" y="-8"/>
      <point x="567.333" y="61.997"/>
      <point x="567.333" y="196" type="curve" smooth="yes"/>
      <point x="567.333" y="209.667" type="line" smooth="yes"/>
      <point x="567.333" y="278.603"/>
      <point x="529.01" y="338.148"/>
      <point x="462" y="364" type="curve"/>
      <point x="519.803" y="388.969"/>
      <point x="557.667" y="445.789"/>
      <point x="557.667" y="508" type="curve" smooth="yes"/>
      <point x="557.667" y="517.333" type="line" smooth="yes"/>
      <point x="557.667" y="649.605"/>
      <point x="445.102" y="716.667"/>
      <point x="318.761" y="716.667" type="curve" smooth="yes"/>
      <point x="167.855" y="716.667"/>
      <point x="68.141" y="640.519"/>
      <point x="68.141" y="519.159" type="curve" smooth="yes"/>
      <point x="68.141" y="512.694" type="line"/>
      <point x="183.194" y="512.693" type="line"/>
      <point x="183.194" y="519.159" type="line" smooth="yes"/>
      <point x="183.194" y="578.889"/>
      <point x="237.939" y="616.333"/>
      <point x="312.645" y="616.333" type="curve" smooth="yes"/>
      <point x="390.131" y="616.333"/>
      <point x="442.667" y="578.085"/>
      <point x="442.667" y="510.667" type="curve" smooth="yes"/>
      <point x="442.667" y="504" type="line" smooth="yes"/>
      <point x="442.667" y="439.728"/>
      <point x="392.744" y="410"/>
      <point x="329.226" y="410" type="curve" smooth="yes"/>
      <point x="236.093" y="410" type="line"/>
      <point x="236.093" y="310" type="line"/>
      <point x="336.576" y="310" type="line" smooth="yes"/>
      <point x="406.371" y="310"/>
      <point x="453" y="275.692"/>
      <point x="453" y="203.667" type="curve" smooth="yes"/>
      <point x="453" y="194.333" type="line" smooth="yes"/>
      <point x="453" y="127.567"/>
      <point x="390.287" y="92.333"/>
      <point x="321.354" y="92.333" type="curve" smooth="yes"/>
      <point x="241.268" y="92.333"/>
      <point x="183.304" y="132.216"/>
      <point x="183.304" y="189.753" type="curve" smooth="yes"/>
      <point x="183.304" y="195.667" type="line"/>
    </contour>
  </outline>
</glyph>
<glyph name="Icyr" format="2">
  <advance width="659"/>
  <unicode hex="0418"/>
  <anchor x="317.667" y="775" name="top"/>
  <outline>
    <contour>
      <point x="67.333" y="0" type="line"/>
      <point x="181.667" y="0" type="line"/>
      <point x="448.906" y="448.498" type="line" smooth="yes"/>
      <point x="461.814" y="470.154"/>
      <point x="472.836" y="492.505"/>
      <point x="480.743" y="512.641" type="curve"/>
      <point x="484.686" y="512.641" type="line"/>
      <point x="477.812" y="471.472"/>
      <point x="476.667" y="435.073"/>
      <point x="476.667" y="394.928" type="curve" smooth="yes"/>
      <point x="476.667" y="0" type="line"/>
      <point x="591.667" y="0" type="line"/>
      <point x="591.667" y="707" type="line"/>
      <point x="476.667" y="707" type="line"/>
      <point x="209.103" y="257.059" type="line" smooth="yes"/>
      <point x="196.278" y="235.379"/>
      <point x="184.306" y="213.775"/>
      <point x="175.01" y="193.113" type="curve"/>
      <point x="171.01" y="193.048" type="line"/>
      <point x="179.081" y="232.956"/>
      <point x="181.667" y="272.86"/>
      <point x="181.667" y="314.145" type="curve" smooth="yes"/>
      <point x="181.667" y="707" type="line"/>
      <point x="67.333" y="707" type="line"/>
    </contour>
  </outline>
</glyph>
<glyph name="Kacyr" format="2">
  <advance width="620"/>
  <unicode hex="041A"/>
  <anchor x="297" y="775" name="top"/>
  <outline>
    <contour>
      <point x="161.973" y="308.667" type="line"/>
      <point x="325.644" y="308.667" type="line"/>
      <point x="325.644" y="409" type="line"/>
      <point x="161.973" y="409" type="line"/>
    </contour>
    <contour>
      <point x="67.333" y="0" type="line"/>
      <point x="182.333" y="0" type="line"/>
      <point x="182.333" y="707" type="line"/>
      <point x="67.333" y="707" type="line"/>
    </contour>
    <contour>
      <point x="481" y="0" type="line"/>
      <point x="613.333" y="0" type="line"/>
      <point x="325.644" y="409" type="line"/>
      <point x="252.483" y="317.099" type="line"/>
    </contour>
    <contour>
      <point x="210.666" y="318.651" type="line"/>
      <point x="279.829" y="318.632" type="line"/>
      <point x="590.667" y="707" type="line"/>
      <point x="453.667" y="707" type="line"/>
      <point x="210.613" y="386.269" type="line"/>
    </contour>
  </outline>
</glyph>
<glyph name="Elcyr" format="2">
  <advance width="602"/>
  <unicode hex="041B"/>
  <outline>
    <contour>
      <point x="420" y="0" type="line"/>
      <point x="534.333" y="0" type="line"/>
      <point x="534.333" y="707" type="line"/>
      <point x="420" y="707" type="line"/>
    </contour>
    <contour>
      <point x="20.527" y="-8" type="line"/>
      <point x="127.384" y="-8"/>
      <point x="182.139" y="63.143"/>
      <point x="192.975" y="215.786" type="curve" smooth="yes"/>
      <point x="228" y="707" type="line"/>
      <point x="113.667" y="707" type="line"/>
      <point x="79.493" y="249.702" type="line" smooth="yes"/>
      <point x="71.117" y="137.378"/>
      <point x="56.474" y="100.28"/>
      <point x="20.527" y="100.205" type="curve"/>
    </contour>
    <contour>
      <point x="155.667" y="606.667" type="line"/>
      <point x="451.667" y="606.667" type="line"/>
      <point x="451.667" y="707" type="line"/>
      <point x="155.667" y="707" type="line"/>
    </contour>
  </outline>
</glyph>
<glyph name="Pecyr" format="2">
  <advance width="622"/>
  <unicode hex="041F"/>
  <outline>
    <contour>
      <point x="162.153" y="606.667" type="line"/>
      <point x="509.667" y="606.667" type="line"/>
      <point x="509.667" y="707" type="line"/>
      <point x="162.153" y="707" type="line"/>
    </contour>
    <contour>
      <point x="67.333" y="0" type="line"/>
      <point x="182.333" y="0" type="line"/>
      <point x="182.333" y="707.073" type="line"/>
      <point x="67.333" y="707" type="line"/>
    </contour>
    <contour>
      <point x="439.333" y="-0.073" type="line"/>
      <point x="554.333" y="-0.073" type="line"/>
      <point x="554.333" y="707" type="line"/>
      <point x="439.333" y="706.927" type="line"/>
    </contour>
  </outline>
</glyph>
<glyph name="Ucyr" format="2">
  <advance width="540"/>
  <unicode hex="0423"/>
  <anchor x="262" y="775" name="top"/>
  <outline>
    <contour>
      <point x="77.426" y="-8" type="line"/>
      <point x="128.574" y="-8" type="line" smooth="yes"/>
      <point x="209.246" y="-8"/>
      <point x="265.096" y="34.83"/>
      <point x="300.12" y="122.728" type="curve" smooth="yes"/>
      <point x="534.667" y="707" type="line"/>
      <point x="409" y="707" type="line"/>
      <point x="231.747" y="270.574" type="line"/>
      <point x="226.553" y="244.246" type="line"/>
      <point x="186.752" y="148.574" type="line" smooth="yes"/>
      <point x="173.92" y="117.065"/>
      <point x="143.689" y="99.016"/>
      <point x="104.244" y="98.778" type="curve" smooth="yes"/>
      <point x="77.426" y="98.667" type="line"/>
    </contour>
    <contour>
      <point x="206.623" y="187.692" type="line"/>
      <point x="274.878" y="312.844" type="line"/>
      <point x="130" y="707" type="line"/>
      <point x="5" y="707" type="line"/>
    </contour>
  </outline>
</glyph>
<glyph name="Efcyr" format="2">
  <advance width="709"/>
  <unicode hex="0424"/>
  <anchor x="317.333" y="775" name="top"/>
  <outline>
    <contour>
      <point x="307.667" y="168" type="line"/>
      <point x="217" y="168"/>
      <point x="171.333" y="226"/>
      <point x="171.333" y="342" type="curve" smooth="yes"/>
      <point x="171.333" y="372" type="line" smooth="yes"/>
      <point x="171.333" y="494.667"/>
      <point x="216.333" y="554"/>
      <point x="307.667" y="554" type="curve"/>
      <point x="307.667" y="656.667" type="line"/>
      <point x="143" y="656.667"/>
      <point x="56.667" y="559.333"/>
      <point x="56.667" y="377.667" type="curve" smooth="yes"/>
      <point x="56.667" y="342" type="line" smooth="yes"/>
      <point x="56.667" y="161.333"/>
      <point x="144.667" y="65.333"/>
      <point x="307.667" y="65.333" type="curve"/>
    </contour>
    <contour>
      <point x="297.667" y="0" type="line"/>
      <point x="412" y="0" type="line"/>
      <point x="412" y="707" type="line"/>
      <point x="297.667" y="707" type="line"/>
    </contour>
    <contour>
      <point x="402" y="65.333" type="line"/>
      <point x="566.667" y="65.333"/>
      <point x="653" y="162.667"/>
      <point x="653" y="344.333" type="curve" smooth="yes"/>
      <point x="653" y="380" type="line" smooth="yes"/>
      <point x="653" y="560.667"/>
      <point x="565" y="656.667"/>
      <point x="402" y="656.667" type="curve"/>
      <point x="402" y="554" type="line"/>
      <point x="492.667" y="554"/>
      <point x="538.333" y="496"/>
      <point x="538.333" y="380" type="curve" smooth="yes"/>
      <point x="538.333" y="350" type="line" smooth="yes"/>
      <point x="538.333" y="227.333"/>
      <point x="493.333" y="168"/>
      <point x="402" y="168" type="curve"/>
    </contour>
  </outline>
</glyph>
<glyph name="Tsecyr" format="2">
  <advance width="623"/>
  <unicode hex="0426"/>
  <outline>
    <contour>
      <point x="422.667" y="0" type="line"/>
      <point x="537" y="0" type="line"/>
      <point x="537" y="707" type="line"/>
      <point x="422.667" y="707" type="line"/>
    </contour>
    <contour>
      <point x="141.275" y="-0.25" type="line"/>
      <point x="314.103" y="-0.25" type="line"/>
      <point x="314.103" y="100.08" type="line"/>
      <point x="141.275" y="100.08" type="line"/>
    </contour>
    <contour>
      <point x="67.333" y="0" type="line"/>
      <point x="181.667" y="0" type="line"/>
      <point x="181.667" y="707" type="line"/>
      <point x="67.333" y="707" type="line"/>
    </contour>
    <contour>
      <point x="294.7" y="-0.247" type="line"/>
      <point x="498.48" y="-0.247" type="line"/>
      <point x="498.48" y="-169.88" type="line"/>
      <point x="612.813" y="-169.88" type="line"/>
      <point x="612.813" y="100.507" type="line"/>
      <point x="294.7" y="100.08" type="line"/>
    </contour>
  </outline>
</glyph>
<glyph name="Checyr" format="2">
  <advance width="634"/>
  <unicode hex="0427"/>
  <outline>
    <contour>
      <point x="453" y="364.585" type="line"/>
      <point x="424.721" y="338.886"/>
      <point x="381.239" y="327.17"/>
      <point x="316.667" y="327.17" type="curve" smooth="yes"/>
      <point x="231.031" y="327.17"/>
      <point x="182" y="385.597"/>
      <point x="182" y="470.837" type="curve" smooth="yes"/>
      <point x="182" y="707" type="line"/>
      <point x="66.667" y="707" type="line"/>
      <point x="66.667" y="465.17" type="line" smooth="yes"/>
      <point x="66.667" y="321.251"/>
      <point x="165.489" y="227.17"/>
      <point x="316.667" y="227.17" type="curve" smooth="yes"/>
      <point x="399.752" y="227.17"/>
      <point x="454.897" y="243.896"/>
      <point x="502.065" y="283.508" type="curve"/>
      <point x="502.065" y="364.723" type="line"/>
    </contour>
    <contour>
      <point x="452.333" y="0" type="line"/>
      <point x="567" y="0" type="line"/>
      <point x="567" y="707" type="line"/>
      <point x="452.333" y="707" type="line"/>
    </contour>
  </outline>
</glyph>
<glyph name="Shacyr" format="2">
  <advance width="833"/>
  <unicode hex="0428"/>
  <anchor x="677" y="695" name="top"/>
  <outline>
    <contour>
      <point x="67.3337" y="0" type="line"/>
      <point x="182" y="0" type="line"/>
      <point x="182" y="707" type="line"/>
      <point x="67.3337" y="707" type="line"/>
    </contour>
    <contour>
      <point x="359.278" y="0" type="line"/>
      <point x="473.945" y="0" type="line"/>
      <point x="473.945" y="707" type="line"/>
      <point x="359.278" y="707" type="line"/>
    </contour>
    <contour>
      <point x="650.667" y="0" type="line"/>
      <point x="765.333" y="0" type="line"/>
      <point x="765.333" y="707" type="line"/>
      <point x="650.667" y="707" type="line"/>
    </contour>
    <contour>
      <point x="82.608" y="-0.25" type="line"/>
      <point x="757.421" y="-0.25" type="line"/>
      <point x="757.421" y="100.08" type="line"/>
      <point x="82.608" y="100.08" type="line"/>
    </contour>
  </outline>
</glyph>
<glyph name="Shchacyr" format="2">
  <advance width="880"/>
  <unicode hex="0429"/>
  <outline>
    <contour>
      <point x="67.3337" y="0" type="line"/>
      <point x="182" y="0" type="line"/>
      <point x="182" y="707" type="line"/>
      <point x="67.3337" y="707" type="line"/>
    </contour>
    <contour>
      <point x="359.278" y="0" type="line"/>
      <point x="473.945" y="0" type="line"/>
      <point x="473.945" y="707" type="line"/>
      <point x="359.278" y="707" type="line"/>
    </contour>
    <contour>
      <point x="650.667" y="0" type="line"/>
      <point x="765.333" y="0" type="line"/>
      <point x="765.333" y="707" type="line"/>
      <point x="650.667" y="707" type="line"/>
    </contour>
    <contour>
      <point x="82.608" y="-0.25" type="line"/>
      <point x="757.421" y="-0.25" type="line"/>
      <point x="757.421" y="100.08" type="line"/>
      <point x="82.608" y="100.08" type="line"/>
    </contour>
    <contour>
      <point x="551.784" y="-0.673192" type="line"/>
      <point x="755.564" y="-0.673192" type="line"/>
      <point x="755.564" y="-170.306" type="line"/>
      <point x="869.897" y="-170.306" type="line"/>
      <point x="869.897" y="100.081" type="line"/>
      <point x="551.784" y="99.6538" type="line"/>
    </contour>
  </outline>
</glyph>
<glyph name="Hardcyr" format="2">
  <advance width="703"/>
  <unicode hex="042A"/>
  <outline>
    <contour>
      <point x="252.153" y="0" type="line"/>
      <point x="418.667" y="0" type="line" smooth="yes"/>
      <point x="560.562" y="0"/>
      <point x="646.667" y="82.717"/>
      <point x="646.667" y="219" type="curve" smooth="yes"/>
      <point x="646.667" y="349.215"/>
      <point x="558.716" y="431"/>
      <point x="418.667" y="431" type="curve" smooth="yes"/>
      <point x="252.153" y="431" type="line"/>
      <point x="252.153" y="330" type="line"/>
      <point x="412" y="330" type="line" smooth="yes"/>
      <point x="488.145" y="330"/>
      <point x="532.333" y="289.193"/>
      <point x="532.333" y="219" type="curve" smooth="yes"/>
      <point x="532.333" y="142.191"/>
      <point x="490.181" y="100.706"/>
      <point x="412" y="100.667" type="curve" smooth="yes"/>
      <point x="252.153" y="100.591" type="line"/>
    </contour>
    <contour>
      <point x="157.333" y="0" type="line"/>
      <point x="272.333" y="-0.002" type="line"/>
      <point x="272.333" y="707" type="line"/>
      <point x="157.333" y="707" type="line"/>
    </contour>
    <contour>
      <point x="0" y="606.667" type="line"/>
      <point x="262" y="606.667" type="line"/>
      <point x="262" y="707" type="line"/>
      <point x="0" y="707" type="line"/>
    </contour>
  </outline>
</glyph>
<glyph name="Softcyr" format="2">
  <advance width="613"/>
  <unicode hex="042C"/>
  <anchor x="291.333" y="775" name="top"/>
  <outline>
    <contour>
      <point x="162.153" y="0" type="line"/>
      <point x="328.667" y="0" type="line" smooth="yes"/>
      <point x="470.562" y="0"/>
      <point x="556.667" y="82.717"/>
      <point x="556.667" y="219" type="curve" smooth="yes"/>
      <point x="556.667" y="349.215"/>
      <point x="468.716" y="431"/>
      <point x="328.667" y="431" type="curve" smooth="yes"/>
      <point x="162.153" y="431" type="line"/>
      <point x="162.153" y="330" type="line"/>
      <point x="322" y="330" type="line" smooth="yes"/>
      <point x="398.145" y="330"/>
      <point x="442.333" y="289.193"/>
      <point x="442.333" y="219" type="curve" smooth="yes"/>
      <point x="442.333" y="142.191"/>
      <point x="400.181" y="100.706"/>
      <point x="322" y="100.667" type="curve" smooth="yes"/>
      <point x="162.153" y="100.591" type="line"/>
    </contour>
    <contour>
      <point x="67.333" y="0" type="line"/>
      <point x="182.333" y="-0.002" type="line"/>
      <point x="182.333" y="707" type="line"/>
      <point x="67.333" y="707" type="line"/>
    </contour>
  </outline>
</glyph>
<glyph name="Ereversedcyr" format="2">
  <advance width="614"/>
  <unicode hex="042D"/>
  <anchor x="302" y="775" name="top"/>
  <outline>
    <component base="C" xScale="-1" xOffset="614.625"/>
    <contour>
      <point x="231.443" y="308.238" type="line"/>
      <point x="471.67" y="308.238" type="line"/>
      <point x="471.67" y="408.571" type="line"/>
      <point x="231.443" y="408.571" type="line"/>
    </contour>
  </outline>
</glyph>
<glyph name="Yucyr" format="2">
  <advance width="821"/>
  <unicode hex="042E"/>
  <anchor x="450" y="775" name="top"/>
  <outline>
    <component base="O" xScale="1" xOffset="203.333"/>
    <contour>
      <point x="161.973" y="308.667" type="line"/>
      <point x="321.575" y="308.667" type="line"/>
      <point x="321.575" y="409" type="line"/>
      <point x="161.973" y="409" type="line"/>
    </contour>
    <contour>
      <point x="67.333" y="0" type="line"/>
      <point x="182.333" y="0" type="line"/>
      <point x="182.333" y="707" type="line"/>
      <point x="67.333" y="707" type="line"/>
    </contour>
  </outline>
</glyph>
<glyph name="becyr" format="2">
  <advance width="515"/>
  <unicode hex="0431"/>
  <outline>
    <contour>
      <point x="257.261" y="-6" type="curve" smooth="yes"/>
      <point x="384.334" y="-6"/>
      <point x="464" y="86.31"/>
      <point x="464" y="211.79" type="curve" smooth="yes"/>
      <point x="464" y="268.544" type="line" smooth="yes"/>
      <point x="464" y="384.166"/>
      <point x="415.412" y="486"/>
      <point x="285.928" y="486" type="curve" smooth="yes"/>
      <point x="233.706" y="486"/>
      <point x="193.688" y="470.072"/>
      <point x="162.46" y="435.735" type="curve"/>
      <point x="51.633" y="435.532" type="line"/>
      <point x="51.818" y="240.079" type="line" smooth="yes"/>
      <point x="51.952" y="87.084"/>
      <point x="107.703" y="-6"/>
    </contour>
    <contour>
      <point x="256.684" y="89.333" type="curve" smooth="yes"/>
      <point x="182.013" y="89.333"/>
      <point x="158.667" y="149.317"/>
      <point x="158.667" y="216.128" type="curve" smooth="yes"/>
      <point x="158.667" y="261.869" type="line" smooth="yes"/>
      <point x="158.667" y="327.031"/>
      <point x="185.872" y="390"/>
      <point x="260.112" y="390" type="curve" smooth="yes"/>
      <point x="335.753" y="390"/>
      <point x="356" y="328.677"/>
      <point x="356" y="263.874" type="curve" smooth="yes"/>
      <point x="356" y="215.794" type="line" smooth="yes"/>
      <point x="356" y="152.837"/>
      <point x="331.425" y="89.333"/>
    </contour>
    <contour>
      <point x="51.781" y="393.346" type="line"/>
      <point x="159.333" y="393.442" type="line"/>
      <point x="159.333" y="450.786" type="line" smooth="yes"/>
      <point x="159.333" y="594.428"/>
      <point x="306.04" y="558.294"/>
      <point x="392.527" y="591.085" type="curve"/>
      <point x="392.527" y="707" type="line"/>
      <point x="250.186" y="634.376"/>
      <point x="51.05" y="704.005"/>
      <point x="51.667" y="443.399" type="curve" smooth="yes"/>
    </contour>
  </outline>
</glyph>
<glyph name="vecyr" format="2">
  <advance width="532"/>
  <unicode hex="0432"/>
  <outline>
    <contour>
      <point x="149.667" y="0" type="line"/>
      <point x="304.667" y="0" type="line" smooth="yes"/>
      <point x="410" y="0"/>
      <point x="469.667" y="55.667"/>
      <point x="469.667" y="153" type="curve" smooth="yes"/>
      <point x="469.667" y="213.667"/>
      <point x="445.667" y="265.333"/>
      <point x="388.667" y="286.667" type="curve"/>
      <point x="388.667" y="289.667" type="line"/>
      <point x="428.598" y="312.86"/>
      <point x="449.667" y="352.356"/>
      <point x="449.667" y="401.689" type="curve" smooth="yes"/>
      <point x="449.667" y="475.393"/>
      <point x="395.654" y="527.667"/>
      <point x="316" y="527.667" type="curve" smooth="yes"/>
      <point x="149.667" y="527.667" type="line"/>
      <point x="149.667" y="432" type="line"/>
      <point x="286.667" y="432" type="line" smooth="yes"/>
      <point x="317.333" y="432"/>
      <point x="342.333" y="410.667"/>
      <point x="342.333" y="375.667" type="curve" smooth="yes"/>
      <point x="342.333" y="351.333"/>
      <point x="319.667" y="317"/>
      <point x="286.667" y="317" type="curve" smooth="yes"/>
      <point x="149.667" y="317" type="line"/>
      <point x="149.667" y="221.333" type="line"/>
      <point x="305" y="221.333" type="line" smooth="yes"/>
      <point x="339" y="221.333"/>
      <point x="359.333" y="190"/>
      <point x="359.333" y="159.333" type="curve" smooth="yes"/>
      <point x="359.333" y="125.333"/>
      <point x="336" y="95.667"/>
      <point x="303.333" y="95.667" type="curve" smooth="yes"/>
      <point x="149.667" y="95.667" type="line"/>
    </contour>
    <contour>
      <point x="62.333" y="0" type="line"/>
      <point x="169.667" y="0" type="line"/>
      <point x="169.667" y="527.667" type="line"/>
      <point x="62.333" y="527.667" type="line"/>
    </contour>
  </outline>
</glyph>
<glyph name="gecyr" format="2">
  <advance width="359"/>
  <unicode hex="0433"/>
  <anchor x="210.333" y="596.667" name="top"/>
  <outline>
    <contour>
      <point x="338.333" y="432" type="line"/>
      <point x="338.333" y="527.667" type="line"/>
      <point x="62.333" y="527.667" type="line"/>
      <point x="62.333" y="431.56" type="line"/>
    </contour>
    <contour>
      <point x="62.333" y="0" type="line"/>
      <point x="170" y="0" type="line"/>
      <point x="170" y="527.683" type="line"/>
      <point x="62.333" y="527.667" type="line"/>
    </contour>
  </outline>
</glyph>
<glyph name="decyr" format="2">
  <advance width="584"/>
  <unicode hex="0434"/>
  <outline>
    <contour>
      <point x="456.24" y="-170" type="line"/>
      <point x="563.573" y="-170" type="line"/>
      <point x="563.573" y="95.74" type="line"/>
      <point x="436.24" y="95.74" type="line"/>
      <point x="436.24" y="0.274" type="line"/>
      <point x="456.24" y="0.274" type="line"/>
    </contour>
    <contour>
      <point x="20.416" y="-169.881" type="line"/>
      <point x="129.416" y="-169.881" type="line"/>
      <point x="129.416" y="95.629" type="line"/>
      <point x="20.416" y="95.629" type="line"/>
    </contour>
    <contour>
      <point x="392.333" y="0" type="line"/>
      <point x="499.667" y="0" type="line"/>
      <point x="499.667" y="527.667" type="line"/>
      <point x="392.333" y="527.667" type="line"/>
    </contour>
    <contour>
      <point x="51.796" y="91.296" type="curve"/>
      <point x="76.353" y="19.476" type="line"/>
      <point x="163.401" y="19.476"/>
      <point x="229.743" y="119.648"/>
      <point x="240.606" y="279.777" type="curve"/>
      <point x="262" y="527.662" type="line"/>
      <point x="155.534" y="527.662" type="line"/>
      <point x="133.032" y="290.064" type="line"/>
      <point x="123.929" y="169.085"/>
      <point x="93.422" y="91.377"/>
    </contour>
    <contour>
      <point x="82.71" y="-0.001" type="line"/>
      <point x="425.572" y="0.439" type="line"/>
      <point x="425.572" y="96.106" type="line"/>
      <point x="82.71" y="96.106" type="line"/>
    </contour>
    <contour>
      <point x="203.667" y="447.333" type="line"/>
      <point x="439.667" y="447.333" type="line"/>
      <point x="439.667" y="527.667" type="line"/>
      <point x="203.667" y="527.667" type="line"/>
    </contour>
  </outline>
</glyph>
<glyph name="zhecyr" format="2">
  <advance width="804"/>
  <unicode hex="0436"/>
  <outline>
    <component base="kacyr" xOffset="285.667"/>
    <contour>
      <point x="345.855" y="259" type="line"/>
      <point x="165.667" y="527.667" type="line"/>
      <point x="37" y="527.667" type="line"/>
      <point x="228.667" y="259" type="line"/>
    </contour>
    <contour>
      <point x="141" y="0" type="line"/>
      <point x="293.667" y="254.667" type="line"/>
      <point x="201.333" y="317.333" type="line"/>
      <point x="10.667" y="0" type="line"/>
    </contour>
    <contour>
      <point x="389.333" y="228" type="line"/>
      <point x="389.333" y="323.667" type="line"/>
      <point x="218.333" y="323.667" type="line"/>
      <point x="218.333" y="228" type="line"/>
    </contour>
  </outline>
</glyph>
<glyph name="zecyr" format="2">
  <advance width="510"/>
  <unicode hex="0437"/>
  <outline>
    <contour>
      <point x="50.893" y="160.48" type="line"/>
      <point x="50.893" y="153.052" type="line" smooth="yes"/>
      <point x="50.893" y="57.297"/>
      <point x="129.475" y="-6"/>
      <point x="248.372" y="-6" type="curve" smooth="yes"/>
      <point x="368.767" y="-6"/>
      <point x="447.404" y="55.855"/>
      <point x="447.404" y="150.561" type="curve" smooth="yes"/>
      <point x="447.404" y="156.464" type="line" smooth="yes"/>
      <point x="447.404" y="212.94"/>
      <point x="416.422" y="256.707"/>
      <point x="373.51" y="276.652" type="curve"/>
      <point x="373.51" y="279.652" type="line"/>
      <point x="412.814" y="297.289"/>
      <point x="438.175" y="335.299"/>
      <point x="438.175" y="381.458" type="curve" smooth="yes"/>
      <point x="438.175" y="385.841" type="line" smooth="yes"/>
      <point x="438.175" y="479.763"/>
      <point x="370.337" y="534.667"/>
      <point x="252.565" y="534.667" type="curve" smooth="yes"/>
      <point x="136.024" y="534.667"/>
      <point x="50.921" y="466.069"/>
      <point x="50.921" y="368.637" type="curve" smooth="yes"/>
      <point x="50.921" y="360.52" type="line"/>
      <point x="159.335" y="360.493" type="line"/>
      <point x="159.335" y="366.458" type="line" smooth="yes"/>
      <point x="159.335" y="411.041"/>
      <point x="197.289" y="442.022"/>
      <point x="249.502" y="442.022" type="curve" smooth="yes"/>
      <point x="299.107" y="442.022"/>
      <point x="329.833" y="417.754"/>
      <point x="329.833" y="380.055" type="curve" smooth="yes"/>
      <point x="329.833" y="374.561" type="line" smooth="yes"/>
      <point x="329.833" y="329.337"/>
      <point x="301.015" y="308.573"/>
      <point x="245.404" y="308.573" type="curve" smooth="yes"/>
      <point x="192.754" y="308.573" type="line"/>
      <point x="192.754" y="228.503" type="line"/>
      <point x="255.736" y="228.503" type="line" smooth="yes"/>
      <point x="309.706" y="228.503"/>
      <point x="339.078" y="204.91"/>
      <point x="339.078" y="159.26" type="curve" smooth="yes"/>
      <point x="339.078" y="153.447" type="line" smooth="yes"/>
      <point x="339.078" y="110.812"/>
      <point x="306.585" y="85.93"/>
      <point x="253.536" y="85.979" type="curve" smooth="yes"/>
      <point x="197.792" y="86.027"/>
      <point x="159.348" y="113.94"/>
      <point x="159.348" y="154.389" type="curve" smooth="yes"/>
      <point x="159.348" y="160.546" type="line"/>
    </contour>
  </outline>
</glyph>
<glyph name="icyr" format="2">
  <advance width="565"/>
  <unicode hex="0438"/>
  <anchor x="277.333" y="596.667" name="top"/>
  <outline>
    <contour>
      <point x="395.333" y="0" type="line"/>
      <point x="502.667" y="0" type="line"/>
      <point x="502.667" y="527.667" type="line"/>
      <point x="412" y="527.667" type="line"/>
      <point x="404.132" y="468.395"/>
      <point x="395.333" y="371.667"/>
      <point x="395.333" y="314.333" type="curve" smooth="yes"/>
    </contour>
    <contour>
      <point x="62.333" y="0" type="line"/>
      <point x="153" y="0" type="line"/>
      <point x="161.685" y="58.429"/>
      <point x="169.667" y="156"/>
      <point x="169.667" y="213.333" type="curve" smooth="yes"/>
      <point x="169.667" y="527.667" type="line"/>
      <point x="62.333" y="527.667" type="line"/>
    </contour>
    <contour>
      <point x="135" y="0" type="line"/>
      <point x="179.667" y="0" type="line"/>
      <point x="362.333" y="314.333" type="line" smooth="yes"/>
      <point x="380.396" y="345.515"/>
      <point x="387.734" y="359.886"/>
      <point x="395.333" y="377.667" type="curve"/>
      <point x="430" y="377.667" type="line"/>
      <point x="430" y="527.667" type="line"/>
      <point x="385.333" y="527.667" type="line"/>
      <point x="202" y="213.333" type="line" smooth="yes"/>
      <point x="190.333" y="193"/>
      <point x="178.856" y="170.355"/>
      <point x="169.667" y="150.667" type="curve"/>
      <point x="135" y="150.667" type="line"/>
    </contour>
  </outline>
</glyph>
<glyph name="kacyr" format="2">
  <advance width="518"/>
  <unicode hex="043A"/>
  <anchor x="243" y="596.667" name="top"/>
  <outline>
    <contour>
      <point x="62.333" y="0" type="line"/>
      <point x="170" y="0" type="line"/>
      <point x="170" y="527.667" type="line"/>
      <point x="62.333" y="527.667" type="line"/>
    </contour>
    <contour>
      <point x="172.145" y="259" type="line"/>
      <point x="289.333" y="259" type="line"/>
      <point x="481" y="527.667" type="line"/>
      <point x="352.333" y="527.667" type="line"/>
    </contour>
    <contour>
      <point x="377" y="0" type="line"/>
      <point x="507.333" y="0" type="line"/>
      <point x="316.667" y="317.333" type="line"/>
      <point x="224.333" y="254.667" type="line"/>
    </contour>
    <contour>
      <point x="128.667" y="228" type="line"/>
      <point x="299.667" y="228" type="line"/>
      <point x="299.667" y="323.667" type="line"/>
      <point x="128.667" y="323.667" type="line"/>
    </contour>
  </outline>
</glyph>
<glyph name="elcyr" format="2">
  <advance width="514"/>
  <unicode hex="043B"/>
  <outline>
    <contour>
      <point x="344.333" y="0" type="line"/>
      <point x="451.667" y="0" type="line"/>
      <point x="451.667" y="527.667" type="line"/>
      <point x="344.333" y="527.667" type="line"/>
    </contour>
    <contour>
      <point x="149.667" y="447.333" type="line"/>
      <point x="385.667" y="447.333" type="line"/>
      <point x="385.667" y="527.667" type="line"/>
      <point x="149.667" y="527.667" type="line"/>
    </contour>
    <contour>
      <point x="10.697" y="98.668" type="curve"/>
      <point x="10.697" y="0" type="line"/>
      <point x="113.21" y="0"/>
      <point x="169.978" y="52.826"/>
      <point x="180.361" y="163.564" type="curve" smooth="yes"/>
      <point x="214.667" y="527.662" type="line"/>
      <point x="108.201" y="527.662" type="line"/>
      <point x="74.852" y="198.124" type="line" smooth="yes"/>
      <point x="67.826" y="129.204"/>
      <point x="44.573" y="98.746"/>
    </contour>
  </outline>
</glyph>
<glyph name="emcyr" format="2">
  <advance width="698"/>
  <unicode hex="043C"/>
  <outline>
    <contour>
      <point x="62.333" y="0" type="line"/>
      <point x="169.667" y="0" type="line"/>
      <point x="169.667" y="314.645" type="line" smooth="yes"/>
      <point x="169.667" y="371.843"/>
      <point x="159.877" y="468.61"/>
      <point x="153" y="527.667" type="curve"/>
      <point x="62.333" y="527.667" type="line"/>
    </contour>
    <contour>
      <point x="349.286" y="230.64" type="line"/>
      <point x="347.053" y="230.667" type="line"/>
      <point x="337.105" y="253.613"/>
      <point x="325.664" y="276.112"/>
      <point x="314.828" y="296.696" type="curve" smooth="yes"/>
      <point x="191.831" y="527.742" type="line"/>
      <point x="151.937" y="527.676" type="line"/>
      <point x="151.937" y="370.919" type="line"/>
      <point x="171.165" y="371.075" type="line"/>
      <point x="179.778" y="349.307"/>
      <point x="185.01" y="335.67"/>
      <point x="202.987" y="301.138" type="curve" smooth="yes"/>
      <point x="319.053" y="80" type="line"/>
      <point x="349.286" y="79.841" type="line"/>
    </contour>
    <contour>
      <point x="348.737" y="79.841" type="line"/>
      <point x="378.97" y="80" type="line"/>
      <point x="495.036" y="301.138" type="line" smooth="yes"/>
      <point x="513.014" y="335.67"/>
      <point x="518.246" y="349.307"/>
      <point x="526.859" y="371.075" type="curve"/>
      <point x="546.086" y="370.919" type="line"/>
      <point x="546.086" y="527.676" type="line"/>
      <point x="506.192" y="527.742" type="line"/>
      <point x="383.196" y="296.696" type="line" smooth="yes"/>
      <point x="372.36" y="276.112"/>
      <point x="360.918" y="253.613"/>
      <point x="350.97" y="230.667" type="curve"/>
      <point x="348.737" y="230.64" type="line"/>
    </contour>
    <contour>
      <point x="527.667" y="0" type="line"/>
      <point x="635.001" y="0" type="line"/>
      <point x="635.001" y="527.667" type="line"/>
      <point x="544.334" y="527.667" type="line"/>
      <point x="537.457" y="468.61"/>
      <point x="527.667" y="371.843"/>
      <point x="527.667" y="314.645" type="curve" smooth="yes"/>
    </contour>
  </outline>
</glyph>
<glyph name="encyr" format="2">
  <advance width="532"/>
  <unicode hex="043D"/>
  <outline>
    <contour>
      <point x="362.333" y="0" type="line"/>
      <point x="469.667" y="0" type="line"/>
      <point x="469.667" y="527.667" type="line"/>
      <point x="362.333" y="527.667" type="line"/>
    </contour>
    <contour>
      <point x="62.333" y="0" type="line"/>
      <point x="169.667" y="0" type="line"/>
      <point x="169.667" y="527.667" type="line"/>
      <point x="62.333" y="527.667" type="line"/>
    </contour>
    <contour>
      <point x="149.667" y="234.666" type="line"/>
      <point x="382.333" y="234.666" type="line"/>
      <point x="382.333" y="330.333" type="line"/>
      <point x="149.667" y="330.333" type="line"/>
    </contour>
  </outline>
</glyph>
